<?xml version="1.0" encoding="utf-8"?>
<!-- Generator: Adobe Illustrator 23.0.2, SVG Export Plug-In . SVG Version: 6.00 Build 0)  -->
<svg version="1.1" id="矩形_3_拷贝_xA0_图像_1_"
	 xmlns="http://www.w3.org/2000/svg" xmlns:xlink="http://www.w3.org/1999/xlink" x="0px" y="0px" viewBox="0 0 1024 1024"
	 style="enable-background:new 0 0 1024 1024;" xml:space="preserve">
<style type="text/css">
	.st0{fill:url(#SVGID_1_);}
	.st1{fill:url(#SVGID_2_);}
	.st2{fill:url(#SVGID_3_);}
	.st3{fill:url(#SVGID_4_);}
</style>
<g>
	<g>
		<linearGradient id="SVGID_1_" gradientUnits="userSpaceOnUse" x1="654.4318" y1="1008.1304" x2="654.4318" y2="15.3696">
			<stop  offset="0" style="stop-color:#F8D3D3"/>
			<stop  offset="1" style="stop-color:#CEE2FE"/>
		</linearGradient>
		<path class="st0" d="M519,15.4l270.9,184.1L618,199.6v660.2l-98.2,148.3C519.8,1008.1,518.8,15.2,519,15.4z"/>
		<linearGradient id="SVGID_2_" gradientUnits="userSpaceOnUse" x1="833.2213" y1="841.7264" x2="833.2213" y2="234.3448">
			<stop  offset="0" style="stop-color:#F8D3D3"/>
			<stop  offset="1" style="stop-color:#CEE2FE"/>
		</linearGradient>
		<path class="st1" d="M642.8,234.3h380.9L643.3,841.7C643.3,841.7,642.8,233.9,642.8,234.3z"/>
	</g>
	<g>
		<linearGradient id="SVGID_3_" gradientUnits="userSpaceOnUse" x1="369.4037" y1="1008.1306" x2="369.4037" y2="15.3698">
			<stop  offset="0" style="stop-color:#F8D3D3"/>
			<stop  offset="1" style="stop-color:#CEE2FE"/>
		</linearGradient>
		<path class="st2" d="M504.8,15.4L234,199.5l171.9,0.1v660.2l98.2,148.3C504,1008.1,505,15.2,504.8,15.4z"/>
		<linearGradient id="SVGID_4_" gradientUnits="userSpaceOnUse" x1="190.6142" y1="841.7266" x2="190.6142" y2="234.345">
			<stop  offset="0" style="stop-color:#F8D3D3"/>
			<stop  offset="1" style="stop-color:#CEE2FE"/>
		</linearGradient>
		<path class="st3" d="M381,234.3H0.2l380.3,607.4C380.5,841.7,381,233.9,381,234.3z"/>
	</g>
</g>
</svg>
