<svg width="64" height="64" viewBox="0 0 64 64" fill="none" xmlns="http://www.w3.org/2000/svg">
<g filter="url(#filter0_d_1714_735)">
<path d="M31.7763 57.5526C47.669 57.5526 60.5526 44.669 60.5526 28.7763C60.5526 12.8836 47.669 0 31.7763 0C15.8836 0 3 12.8836 3 28.7763C3 44.669 15.8836 57.5526 31.7763 57.5526Z" fill="url(#paint0_linear_1714_735)" fill-opacity="0.3"/>
<path d="M31.7763 56.5526C47.1167 56.5526 59.5526 44.1167 59.5526 28.7763C59.5526 13.4359 47.1167 1 31.7763 1C16.4359 1 4 13.4359 4 28.7763C4 44.1167 16.4359 56.5526 31.7763 56.5526Z" stroke="url(#paint1_linear_1714_735)" stroke-width="2"/>
</g>
<g filter="url(#filter1_d_1714_735)">
<path d="M43.7113 19.8444C43.7113 19.8444 40.3759 17.3134 36.4136 17L36.0625 17.699C39.6236 18.5427 41.2788 19.7721 42.9841 21.2666C40.0499 19.7962 37.1409 18.4222 32.05 18.4222C26.9591 18.4222 24.0501 19.7962 21.1159 21.2666C22.8213 19.748 24.7773 18.3981 28.0375 17.699L27.6613 17C23.5234 17.3857 20.3887 19.8444 20.3887 19.8444C20.3887 19.8444 16.652 25.0993 16 35.4163C19.7617 39.6347 25.4795 39.6588 25.4795 39.6588L26.6833 38.1161C24.652 37.4412 22.3698 36.2118 20.3887 33.9941C22.746 35.7297 26.3071 37.5376 32.05 37.5376C37.7929 37.5376 41.354 35.7297 43.7113 33.9941C41.7302 36.2118 39.448 37.417 37.4167 38.1161L38.6205 39.6588C38.6205 39.6588 44.3383 39.6347 48.1 35.4163C47.448 25.0993 43.7113 19.8444 43.7113 19.8444ZM27.3102 32.5719C25.9059 32.5719 24.7523 31.2943 24.7523 29.7275C24.7523 28.1607 25.9059 26.8831 27.3102 26.8831C28.7146 26.8831 29.8682 28.1607 29.8682 29.7275C29.8682 31.2943 28.7146 32.5719 27.3102 32.5719ZM36.7898 32.5719C35.3854 32.5719 34.2318 31.2943 34.2318 29.7275C34.2318 28.1607 35.3854 26.8831 36.7898 26.8831C38.1941 26.8831 39.3477 28.1607 39.3477 29.7275C39.3477 31.2943 38.1941 32.5719 36.7898 32.5719Z" fill="white"/>
</g>
<defs>
<filter id="filter0_d_1714_735" x="0" y="0" width="63.5527" height="63.5526" filterUnits="userSpaceOnUse" color-interpolation-filters="sRGB">
<feFlood flood-opacity="0" result="BackgroundImageFix"/>
<feColorMatrix in="SourceAlpha" type="matrix" values="0 0 0 0 0 0 0 0 0 0 0 0 0 0 0 0 0 0 127 0" result="hardAlpha"/>
<feOffset dy="3"/>
<feGaussianBlur stdDeviation="1.5"/>
<feColorMatrix type="matrix" values="0 0 0 0 0 0 0 0 0 0 0 0 0 0 0 0 0 0 0.2 0"/>
<feBlend mode="normal" in2="BackgroundImageFix" result="effect1_dropShadow_1714_735"/>
<feBlend mode="normal" in="SourceGraphic" in2="effect1_dropShadow_1714_735" result="shape"/>
</filter>
<filter id="filter1_d_1714_735" x="12" y="17" width="40.0996" height="30.6588" filterUnits="userSpaceOnUse" color-interpolation-filters="sRGB">
<feFlood flood-opacity="0" result="BackgroundImageFix"/>
<feColorMatrix in="SourceAlpha" type="matrix" values="0 0 0 0 0 0 0 0 0 0 0 0 0 0 0 0 0 0 127 0" result="hardAlpha"/>
<feOffset dy="4"/>
<feGaussianBlur stdDeviation="2"/>
<feColorMatrix type="matrix" values="0 0 0 0 0 0 0 0 0 0 0 0 0 0 0 0 0 0 0.25 0"/>
<feBlend mode="normal" in2="BackgroundImageFix" result="effect1_dropShadow_1714_735"/>
<feBlend mode="normal" in="SourceGraphic" in2="effect1_dropShadow_1714_735" result="shape"/>
</filter>
<linearGradient id="paint0_linear_1714_735" x1="31.7763" y1="0" x2="31.7763" y2="57.5526" gradientUnits="userSpaceOnUse">
<stop stop-color="white"/>
<stop offset="1" stop-color="white" stop-opacity="0.3"/>
</linearGradient>
<linearGradient id="paint1_linear_1714_735" x1="31.7763" y1="-1.41701e-08" x2="31.7763" y2="57.5526" gradientUnits="userSpaceOnUse">
<stop stop-color="white"/>
<stop offset="1" stop-color="white" stop-opacity="0"/>
</linearGradient>
</defs>
</svg>
