<svg width="65" height="63" viewBox="0 0 65 63" fill="none" xmlns="http://www.w3.org/2000/svg">
<path d="M32.948 1.917e-06L50.1522 11.6821L39.2352 11.6884V53.5813L32.9988 62.9917C32.9988 62.9917 32.9353 -0.0126891 32.948 1.917e-06Z" fill="url(#paint0_linear_1836_491)"/>
<path d="M40.8105 13.8903H65.0006L40.8423 52.4328C40.8423 52.4328 40.8105 13.8649 40.8105 13.8903Z" fill="url(#paint1_linear_1836_491)"/>
<path d="M32.0455 1.917e-06L14.8477 11.6821L25.7646 11.6884V53.5813L32.0011 62.9917C31.9947 62.9917 32.0582 -0.0126891 32.0455 1.917e-06Z" fill="url(#paint2_linear_1836_491)"/>
<path d="M24.1837 13.8903H0L24.1519 52.4328C24.1519 52.4328 24.1837 13.8649 24.1837 13.8903Z" fill="url(#paint3_linear_1836_491)"/>
<defs>
<linearGradient id="paint0_linear_1836_491" x1="41.5492" y1="62.9906" x2="41.5492" y2="-0.00110385" gradientUnits="userSpaceOnUse">
<stop stop-color="#E89D9F"/>
<stop offset="1" stop-color="#9FC7FE"/>
</linearGradient>
<linearGradient id="paint1_linear_1836_491" x1="52.9056" y1="52.4317" x2="52.9056" y2="13.8892" gradientUnits="userSpaceOnUse">
<stop stop-color="#E89D9F"/>
<stop offset="1" stop-color="#9FC7FE"/>
</linearGradient>
<linearGradient id="paint2_linear_1836_491" x1="23.4474" y1="62.9906" x2="23.4474" y2="-0.00110385" gradientUnits="userSpaceOnUse">
<stop stop-color="#E89D9F"/>
<stop offset="1" stop-color="#9FC7FE"/>
</linearGradient>
<linearGradient id="paint3_linear_1836_491" x1="12.0918" y1="52.4317" x2="12.0918" y2="13.8892" gradientUnits="userSpaceOnUse">
<stop stop-color="#E89D9F"/>
<stop offset="1" stop-color="#9FC7FE"/>
</linearGradient>
</defs>
</svg>
