<svg width="64" height="64" viewBox="0 0 64 64" fill="none" xmlns="http://www.w3.org/2000/svg">
<g filter="url(#filter0_d_1987_621)">
<path d="M31.7763 57.5526C47.669 57.5526 60.5526 44.669 60.5526 28.7763C60.5526 12.8836 47.669 0 31.7763 0C15.8836 0 3 12.8836 3 28.7763C3 44.669 15.8836 57.5526 31.7763 57.5526Z" fill="url(#paint0_linear_1987_621)" fill-opacity="0.3"/>
<path d="M31.7763 56.5526C47.1167 56.5526 59.5526 44.1167 59.5526 28.7763C59.5526 13.4359 47.1167 1 31.7763 1C16.4359 1 4 13.4359 4 28.7763C4 44.1167 16.4359 56.5526 31.7763 56.5526Z" stroke="url(#paint1_linear_1987_621)" stroke-width="2"/>
</g>
<g filter="url(#filter1_d_1987_621)">
<path d="M29.7135 36.4047C30.2801 36.4047 30.6407 36.8541 30.6407 37.3035C30.6407 37.8777 30.1771 38.2023 29.7135 38.2023C29.1469 38.2023 28.7863 37.7529 28.7863 37.3035C28.7863 36.8541 29.1211 36.4047 29.7135 36.4047ZM44.8578 30.6621C44.2912 30.6621 43.9306 30.2127 43.9306 29.7632C43.9306 29.3138 44.3942 28.8644 44.8578 28.8644C45.4244 28.8644 45.785 29.3138 45.785 29.7632C45.785 30.2127 45.3214 30.6621 44.8578 30.6621ZM44.8578 26.8171C43.2352 26.8171 41.8444 28.1653 41.8444 29.7383C41.8444 30.0878 41.8444 30.4124 41.9474 30.6371L32.1345 35.7305C31.5679 34.9316 30.6407 34.4821 29.7135 34.4821C28.5545 34.4821 27.5243 35.1563 27.0607 36.0551L18.278 31.5609C17.3251 31.1115 16.6297 29.5136 16.7585 28.1653C16.7585 27.4912 17.0933 26.9169 17.4539 26.6922C17.6857 26.5674 18.0205 26.5674 18.2523 26.6922H18.3553C20.6733 27.9406 28.4257 31.7607 28.6575 31.9854C29.1211 32.2101 29.456 32.3349 30.2801 31.8605L46.1198 23.8709C46.3516 23.746 46.5834 23.5213 46.5834 23.1967C46.5834 22.7473 46.1198 22.5226 46.1198 22.5226C45.1926 22.0732 43.8018 21.4989 42.5398 20.8248C39.6552 19.4766 36.41 18.0035 34.9162 17.3293C33.6541 16.6552 32.7269 17.2045 32.4951 17.3293L32.1603 17.4542C25.6441 20.6251 16.9903 24.7947 16.5267 25.0194C15.5995 25.5687 15.1359 26.5923 15.0071 27.8407C14.9041 29.8631 15.9343 32.0103 17.5569 32.7843L26.9319 37.5282C27.1637 39.0013 28.4257 40 29.8165 40C31.4391 40 32.83 38.7516 32.83 37.1786L43.1322 31.7607C43.6988 32.2101 44.2912 32.3349 44.9866 32.3349C46.6092 32.3349 48 30.9867 48 29.4137C47.7424 28.0654 46.4804 26.8171 44.8578 26.8171Z" fill="white"/>
</g>
<defs>
<filter id="filter0_d_1987_621" x="0" y="0" width="63.5527" height="63.5526" filterUnits="userSpaceOnUse" color-interpolation-filters="sRGB">
<feFlood flood-opacity="0" result="BackgroundImageFix"/>
<feColorMatrix in="SourceAlpha" type="matrix" values="0 0 0 0 0 0 0 0 0 0 0 0 0 0 0 0 0 0 127 0" result="hardAlpha"/>
<feOffset dy="3"/>
<feGaussianBlur stdDeviation="1.5"/>
<feColorMatrix type="matrix" values="0 0 0 0 0 0 0 0 0 0 0 0 0 0 0 0 0 0 0.2 0"/>
<feBlend mode="normal" in2="BackgroundImageFix" result="effect1_dropShadow_1987_621"/>
<feBlend mode="normal" in="SourceGraphic" in2="effect1_dropShadow_1987_621" result="shape"/>
</filter>
<filter id="filter1_d_1987_621" x="11" y="17" width="41" height="31" filterUnits="userSpaceOnUse" color-interpolation-filters="sRGB">
<feFlood flood-opacity="0" result="BackgroundImageFix"/>
<feColorMatrix in="SourceAlpha" type="matrix" values="0 0 0 0 0 0 0 0 0 0 0 0 0 0 0 0 0 0 127 0" result="hardAlpha"/>
<feOffset dy="4"/>
<feGaussianBlur stdDeviation="2"/>
<feColorMatrix type="matrix" values="0 0 0 0 0 0 0 0 0 0 0 0 0 0 0 0 0 0 0.25 0"/>
<feBlend mode="normal" in2="BackgroundImageFix" result="effect1_dropShadow_1987_621"/>
<feBlend mode="normal" in="SourceGraphic" in2="effect1_dropShadow_1987_621" result="shape"/>
</filter>
<linearGradient id="paint0_linear_1987_621" x1="31.7763" y1="0" x2="31.7763" y2="57.5526" gradientUnits="userSpaceOnUse">
<stop stop-color="white"/>
<stop offset="1" stop-color="white" stop-opacity="0.3"/>
</linearGradient>
<linearGradient id="paint1_linear_1987_621" x1="31.7763" y1="-1.41701e-08" x2="31.7763" y2="57.5526" gradientUnits="userSpaceOnUse">
<stop stop-color="white"/>
<stop offset="1" stop-color="white" stop-opacity="0"/>
</linearGradient>
</defs>
</svg>
