<svg width="64" height="64" viewBox="0 0 64 64" fill="none" xmlns="http://www.w3.org/2000/svg">
<g filter="url(#filter0_d_1714_717)">
<path d="M31.7763 57.5526C47.669 57.5526 60.5526 44.669 60.5526 28.7763C60.5526 12.8836 47.669 0 31.7763 0C15.8836 0 3 12.8836 3 28.7763C3 44.669 15.8836 57.5526 31.7763 57.5526Z" fill="url(#paint0_linear_1714_717)" fill-opacity="0.3"/>
<path d="M31.7763 56.5526C47.1167 56.5526 59.5526 44.1167 59.5526 28.7763C59.5526 13.4359 47.1167 1 31.7763 1C16.4359 1 4 13.4359 4 28.7763C4 44.1167 16.4359 56.5526 31.7763 56.5526Z" stroke="url(#paint1_linear_1714_717)" stroke-width="2"/>
</g>
<g filter="url(#filter1_d_1714_717)">
<path d="M42.8188 22.597C42.8404 22.8346 42.8404 23.0938 42.8404 23.3314C42.8404 30.8267 37.1379 39.4669 26.7049 39.4669C23.6161 39.4669 20.592 38.5813 18 36.918C18.4536 36.9612 18.9072 37.0044 19.3608 37.0044C21.9097 37.0044 24.3937 36.1404 26.4025 34.5636C23.9833 34.5204 21.8449 32.9436 21.1104 30.6323C21.9529 30.8051 22.8385 30.7619 23.6809 30.5243C21.0024 30.0059 19.1016 27.6731 19.1016 24.9731C19.1016 24.9515 19.1016 24.9299 19.1016 24.9083C19.9008 25.3403 20.7648 25.5995 21.6721 25.6211C19.188 23.9362 18.4104 20.6314 19.9224 18.0394C22.7953 21.5818 27.0505 23.7418 31.6082 23.9578C31.1546 21.9922 31.781 19.9186 33.2498 18.5362C35.5395 16.3977 39.1251 16.5057 41.2851 18.7738C42.5596 18.5146 43.7692 18.061 44.8924 17.3913C44.4604 18.709 43.5748 19.8106 42.4084 20.5234C43.5316 20.3938 44.6332 20.0914 45.67 19.6378C44.8924 20.8042 43.9204 21.7978 42.8188 22.597Z" fill="white"/>
</g>
<defs>
<filter id="filter0_d_1714_717" x="0" y="0" width="63.5527" height="63.5526" filterUnits="userSpaceOnUse" color-interpolation-filters="sRGB">
<feFlood flood-opacity="0" result="BackgroundImageFix"/>
<feColorMatrix in="SourceAlpha" type="matrix" values="0 0 0 0 0 0 0 0 0 0 0 0 0 0 0 0 0 0 127 0" result="hardAlpha"/>
<feOffset dy="3"/>
<feGaussianBlur stdDeviation="1.5"/>
<feColorMatrix type="matrix" values="0 0 0 0 0 0 0 0 0 0 0 0 0 0 0 0 0 0 0.2 0"/>
<feBlend mode="normal" in2="BackgroundImageFix" result="effect1_dropShadow_1714_717"/>
<feBlend mode="normal" in="SourceGraphic" in2="effect1_dropShadow_1714_717" result="shape"/>
</filter>
<filter id="filter1_d_1714_717" x="14" y="17" width="35.6699" height="30.4669" filterUnits="userSpaceOnUse" color-interpolation-filters="sRGB">
<feFlood flood-opacity="0" result="BackgroundImageFix"/>
<feColorMatrix in="SourceAlpha" type="matrix" values="0 0 0 0 0 0 0 0 0 0 0 0 0 0 0 0 0 0 127 0" result="hardAlpha"/>
<feOffset dy="4"/>
<feGaussianBlur stdDeviation="2"/>
<feColorMatrix type="matrix" values="0 0 0 0 0 0 0 0 0 0 0 0 0 0 0 0 0 0 0.35 0"/>
<feBlend mode="normal" in2="BackgroundImageFix" result="effect1_dropShadow_1714_717"/>
<feBlend mode="normal" in="SourceGraphic" in2="effect1_dropShadow_1714_717" result="shape"/>
</filter>
<linearGradient id="paint0_linear_1714_717" x1="31.7763" y1="0" x2="31.7763" y2="57.5526" gradientUnits="userSpaceOnUse">
<stop stop-color="white"/>
<stop offset="1" stop-color="white" stop-opacity="0.3"/>
</linearGradient>
<linearGradient id="paint1_linear_1714_717" x1="31.7763" y1="-1.41701e-08" x2="31.7763" y2="57.5526" gradientUnits="userSpaceOnUse">
<stop stop-color="white"/>
<stop offset="1" stop-color="white" stop-opacity="0"/>
</linearGradient>
</defs>
</svg>
