<svg width="24" height="24" viewBox="0 0 24 24" fill="none" xmlns="http://www.w3.org/2000/svg">
<g clip-path="url(#clip0_1733_816)">
<path d="M10.6985 17.9175C10.8325 17.9167 10.9637 17.9558 11.0756 18.0297C11.1874 18.1036 11.2747 18.2091 11.3265 18.3327C11.3783 18.4563 11.3922 18.5925 11.3666 18.7241C11.3409 18.8556 11.2767 18.9766 11.1822 19.0716C11.0877 19.1666 10.9671 19.2315 10.8357 19.2579C10.7043 19.2843 10.568 19.2712 10.4441 19.22C10.3202 19.1689 10.2142 19.0822 10.1397 18.9708C10.0652 18.8594 10.0254 18.7284 10.0254 18.5943C10.0241 18.5054 10.0406 18.4171 10.074 18.3347C10.1073 18.2523 10.1568 18.1773 10.2195 18.1143C10.2822 18.0512 10.3569 18.0013 10.4391 17.9675C10.5214 17.9337 10.6096 17.9167 10.6985 17.9175ZM21.7272 13.605C21.6381 13.6062 21.5496 13.5896 21.467 13.556C21.3844 13.5224 21.3094 13.4725 21.2464 13.4094C21.1835 13.3463 21.1339 13.2711 21.1005 13.1885C21.0671 13.1058 21.0507 13.0172 21.0522 12.9281C21.064 12.7528 21.1389 12.5876 21.263 12.4632C21.387 12.3388 21.552 12.2635 21.7272 12.2512C21.8162 12.2504 21.9043 12.2675 21.9866 12.3013C22.0688 12.3351 22.1435 12.3849 22.2062 12.448C22.2689 12.5111 22.3184 12.586 22.3517 12.6684C22.3851 12.7509 22.4016 12.8392 22.4004 12.9281C22.3886 13.1029 22.3139 13.2675 22.1902 13.3916C22.0665 13.5157 21.902 13.5908 21.7272 13.6031V13.605ZM21.7272 10.7287C21.1487 10.7403 20.5973 10.9757 20.1888 11.3856C19.7804 11.7954 19.5468 12.3477 19.5372 12.9262C19.518 13.1552 19.5468 13.3858 19.6216 13.6031L12.4666 17.4093C12.2533 17.1017 11.9637 16.8548 11.6263 16.6927C11.2889 16.5306 10.9151 16.4589 10.5417 16.4846C10.1682 16.5103 9.80784 16.6325 9.4958 16.8393C9.18377 17.0461 8.93078 17.3304 8.76161 17.6643L2.36411 14.2893C1.68723 13.9425 1.18473 12.75 1.26911 11.7412C1.26358 11.5317 1.30617 11.3237 1.39361 11.1332C1.48104 10.9427 1.611 10.7748 1.77348 10.6425C1.86634 10.6007 1.96699 10.5791 2.0688 10.5791C2.17061 10.5791 2.27126 10.6007 2.36411 10.6425H2.44848C4.13598 11.58 9.77223 14.4487 9.94849 14.6193C10.2841 14.7881 10.5372 14.8725 11.126 14.5331L22.661 8.53308C22.7591 8.4886 22.8427 8.4173 22.9021 8.32741C22.9614 8.23751 22.9942 8.13267 22.9966 8.02495C22.9883 7.91875 22.9532 7.81639 22.8945 7.7275C22.8358 7.63861 22.7554 7.56612 22.661 7.51683C21.986 7.17933 20.9735 6.75558 20.051 6.24933C17.9379 5.22745 15.581 4.12495 14.486 3.62058C14.2192 3.45967 13.9135 3.37463 13.6019 3.37463C13.2903 3.37463 12.9847 3.45967 12.7179 3.62058L12.4666 3.70495C7.75098 6.07308 1.43786 9.20433 1.10036 9.37495C0.427234 9.79683 0.0897345 10.5581 -0.000265541 11.4881C-0.0790155 13.0106 0.680359 14.625 1.85786 15.21L8.67723 18.7631C8.75404 19.2988 9.02934 19.7861 9.44854 20.1284C9.86774 20.4707 10.4003 20.643 10.9405 20.6112C11.4808 20.5793 11.9894 20.3457 12.3654 19.9565C12.7415 19.5673 12.9577 19.051 12.971 18.51L20.471 14.4487C20.8526 14.7516 21.3328 14.9025 21.8191 14.8725C22.3963 14.8585 22.9457 14.6217 23.3521 14.2117C23.7586 13.8017 23.9907 13.2503 23.9997 12.6731C23.9048 12.1358 23.6263 11.648 23.2119 11.2931C22.7975 10.9382 22.2728 10.738 21.7272 10.7268" fill="url(#paint0_radial_1733_816)"/>
</g>
<defs>
<radialGradient id="paint0_radial_1733_816" cx="0" cy="0" r="1" gradientUnits="userSpaceOnUse" gradientTransform="translate(8.18324 15.5231) rotate(78.346) scale(11.2625 10.8527)">
<stop stop-color="#FFD613"/>
<stop offset="1" stop-color="#FF9100"/>
</radialGradient>
<clipPath id="clip0_1733_816">
<rect width="24" height="24" fill="white"/>
</clipPath>
</defs>
</svg>
