<svg width="24" height="24" viewBox="0 0 24 24" fill="none" xmlns="http://www.w3.org/2000/svg">
<path fill-rule="evenodd" clip-rule="evenodd" d="M11.9997 0.28125C9.14855 0.285772 6.39184 1.30375 4.22201 3.15336C2.05218 5.00296 0.610564 7.56372 0.154666 10.3782C-0.301232 13.1927 0.258284 16.0776 1.73327 18.5176C3.20826 20.9576 5.50264 22.7938 8.20659 23.6981C8.80659 23.8087 9.02597 23.4375 9.02597 23.1206C9.02597 22.8337 9.01472 21.8869 9.00909 20.8837C5.67159 21.6094 4.96659 19.4644 4.96659 19.4644C4.42097 18.0769 3.63534 17.7075 3.63534 17.7075C2.54597 16.9575 3.71597 16.9762 3.71597 16.9762C4.92159 17.0606 5.55534 18.2156 5.55534 18.2156C6.62597 20.0512 8.36784 19.5281 9.04847 19.2131C9.15534 18.4369 9.46659 17.9006 9.80972 17.6062C7.14534 17.3025 4.34222 16.2731 4.34222 11.6681C4.32406 10.4722 4.76724 9.31524 5.57972 8.4375C5.45409 8.13562 5.04347 6.91312 5.69597 5.25C5.69597 5.25 6.70284 4.92562 8.99597 6.48C10.963 5.94254 13.0383 5.94254 15.0053 6.48C17.2966 4.92562 18.3035 5.25 18.3035 5.25C18.956 6.90375 18.5453 8.12625 18.4197 8.4375C19.231 9.3136 19.6735 10.4686 19.6553 11.6625C19.6553 16.2787 16.8428 17.2875 14.1766 17.5912C14.606 17.9662 14.9903 18.6956 14.9903 19.8169C14.9903 21.4237 14.9753 22.7194 14.9753 23.115C14.9753 23.4337 15.1928 23.8087 15.8003 23.6906C18.4994 22.782 20.7881 20.9445 22.2586 18.5057C23.7291 16.0668 24.2857 13.1849 23.8293 10.3739C23.3729 7.56279 21.9332 5.00511 19.7666 3.1567C17.6001 1.30829 14.8476 0.289263 11.9997 0.28125Z" fill="url(#paint0_radial_1733_818)"/>
<path d="M4.54477 17.5331C4.51852 17.5931 4.42477 17.61 4.33852 17.5687C4.25227 17.5275 4.20352 17.4487 4.23164 17.3812C4.25977 17.3137 4.35164 17.3025 4.43789 17.3437C4.52415 17.385 4.57477 17.4656 4.54477 17.5312V17.5331Z" fill="url(#paint1_radial_1733_818)"/>
<path d="M5.03034 18.075C4.97409 18.1294 4.86159 18.1032 4.78659 18.0207C4.71159 17.9382 4.69284 17.8332 4.75097 17.7713C4.80909 17.7094 4.91784 17.7413 4.99659 17.8257C5.07534 17.91 5.09034 18.0225 5.03034 18.075Z" fill="url(#paint2_radial_1733_818)"/>
<path d="M5.50467 18.7669C5.42967 18.8194 5.31717 18.7669 5.23655 18.6637C5.15592 18.5606 5.16155 18.4294 5.23655 18.3769C5.31155 18.3244 5.42405 18.3769 5.50467 18.4781C5.5853 18.5794 5.5778 18.7144 5.50467 18.7669Z" fill="url(#paint3_radial_1733_818)"/>
<path d="M6.15164 19.4362C6.08602 19.5094 5.94539 19.4887 5.84414 19.3894C5.74289 19.29 5.70914 19.155 5.77477 19.0837C5.84039 19.0125 5.98289 19.0312 6.08602 19.1287C6.18914 19.2262 6.22289 19.365 6.15164 19.4362Z" fill="url(#paint4_radial_1733_818)"/>
<path d="M7.04598 19.8244C7.01786 19.9181 6.88286 19.9613 6.74598 19.9219C6.60911 19.8825 6.52286 19.77 6.55848 19.6744C6.59411 19.5788 6.72348 19.5356 6.85848 19.5788C6.99348 19.6219 7.08348 19.7288 7.04598 19.8244Z" fill="url(#paint5_radial_1733_818)"/>
<path d="M8.02847 19.8956C8.02847 19.995 7.91597 20.0831 7.77347 20.0831C7.63097 20.0831 7.51472 20.0062 7.51285 19.9087C7.51097 19.8112 7.62535 19.7212 7.76972 19.7212C7.9141 19.7212 8.02847 19.7981 8.02847 19.8956Z" fill="url(#paint6_radial_1733_818)"/>
<path d="M8.94161 19.74C8.95848 19.8375 8.86098 19.9275 8.71848 19.9631C8.57598 19.9987 8.45036 19.9293 8.43348 19.8337C8.41661 19.7381 8.51598 19.635 8.65473 19.6087C8.79348 19.5825 8.92473 19.6425 8.94161 19.74Z" fill="url(#paint7_radial_1733_818)"/>
<defs>
<radialGradient id="paint0_radial_1733_818" cx="0" cy="0" r="1" gradientUnits="userSpaceOnUse" gradientTransform="translate(8.18196 16.7961) rotate(81.3802) scale(15.1662 10.9464)">
<stop stop-color="#FFD613"/>
<stop offset="1" stop-color="#FF9100"/>
</radialGradient>
<radialGradient id="paint1_radial_1733_818" cx="0" cy="0" r="1" gradientUnits="userSpaceOnUse" gradientTransform="translate(8.18196 16.7961) rotate(81.3802) scale(15.1662 10.9464)">
<stop stop-color="#FFD613"/>
<stop offset="1" stop-color="#FF9100"/>
</radialGradient>
<radialGradient id="paint2_radial_1733_818" cx="0" cy="0" r="1" gradientUnits="userSpaceOnUse" gradientTransform="translate(8.18196 16.7961) rotate(81.3802) scale(15.1662 10.9464)">
<stop stop-color="#FFD613"/>
<stop offset="1" stop-color="#FF9100"/>
</radialGradient>
<radialGradient id="paint3_radial_1733_818" cx="0" cy="0" r="1" gradientUnits="userSpaceOnUse" gradientTransform="translate(8.18196 16.7961) rotate(81.3802) scale(15.1662 10.9464)">
<stop stop-color="#FFD613"/>
<stop offset="1" stop-color="#FF9100"/>
</radialGradient>
<radialGradient id="paint4_radial_1733_818" cx="0" cy="0" r="1" gradientUnits="userSpaceOnUse" gradientTransform="translate(8.18196 16.7961) rotate(81.3802) scale(15.1662 10.9464)">
<stop stop-color="#FFD613"/>
<stop offset="1" stop-color="#FF9100"/>
</radialGradient>
<radialGradient id="paint5_radial_1733_818" cx="0" cy="0" r="1" gradientUnits="userSpaceOnUse" gradientTransform="translate(8.18196 16.7961) rotate(81.3802) scale(15.1662 10.9464)">
<stop stop-color="#FFD613"/>
<stop offset="1" stop-color="#FF9100"/>
</radialGradient>
<radialGradient id="paint6_radial_1733_818" cx="0" cy="0" r="1" gradientUnits="userSpaceOnUse" gradientTransform="translate(8.18196 16.7961) rotate(81.3802) scale(15.1662 10.9464)">
<stop stop-color="#FFD613"/>
<stop offset="1" stop-color="#FF9100"/>
</radialGradient>
<radialGradient id="paint7_radial_1733_818" cx="0" cy="0" r="1" gradientUnits="userSpaceOnUse" gradientTransform="translate(8.18196 16.7961) rotate(81.3802) scale(15.1662 10.9464)">
<stop stop-color="#FFD613"/>
<stop offset="1" stop-color="#FF9100"/>
</radialGradient>
</defs>
</svg>
