<svg width="240" height="240" viewBox="0 0 240 240" fill="none" xmlns="http://www.w3.org/2000/svg">
<g opacity="0.9" clip-path="url(#clip0_552:516)">
<g filter="url(#filter0_dd_552:516)">
<path fill-rule="evenodd" clip-rule="evenodd" d="M51.0928 84.1782C59.296 77.1094 69.0881 66.9516 65.767 58.6875C70.3772 65.6953 66.0999 73.3453 61.3139 79.6758H60.1678L51.0928 84.1782Z" fill="#FC9E12"/>
<path fill-rule="evenodd" clip-rule="evenodd" d="M188.917 84.1782C180.702 77.1094 170.91 66.9516 174.231 58.6875C169.621 65.6953 173.898 73.3453 178.684 79.6758H179.83L188.915 84.1782H188.917Z" fill="#FC9E12"/>
<path fill-rule="evenodd" clip-rule="evenodd" d="M72.2565 83.025C72.2565 83.025 72.9596 79.4016 72.4323 76.9664C71.8979 74.468 68.4878 69.0352 72.2565 64.4906C71.6635 68.1399 72.1909 71.1539 73.7401 73.4414C73.7401 73.4414 71.9448 63.4758 77.5932 57.0352C83.6612 50.1117 91.0206 44.6133 92.0588 35.7469C92.9776 39.3891 92.6401 43.8211 88.7776 50.4774C92.9753 50.0367 94.8713 52.5867 93.6549 55.4344C92.7479 52.0242 89.3401 52.6055 87.4206 53.611C81.2753 56.8289 81.3737 62.3227 81.3737 62.3227L79.8854 66.9211L72.2565 83.025Z" fill="#FC9E12"/>
<path fill-rule="evenodd" clip-rule="evenodd" d="M167.741 83.025C167.741 83.025 167.038 79.4016 167.563 76.9664C168.1 74.468 171.51 69.0352 167.741 64.4906C168.334 68.1399 167.807 71.1539 166.258 73.4414C166.258 73.4414 168.053 63.4758 162.404 57.0352C156.336 50.1117 148.977 44.6133 147.939 35.7469C147.02 39.3891 147.358 43.8211 151.22 50.4774C147.022 50.0367 145.126 52.5867 146.343 55.4344C147.25 52.0242 150.658 52.6055 152.577 53.611C158.722 56.8289 158.624 62.3227 158.624 62.3227L160.112 66.9211L164.565 76.3125L167.736 83.0274L167.741 83.025Z" fill="#FC9E12"/>
<path fill-rule="evenodd" clip-rule="evenodd" d="M98.5371 52.4086C98.5371 52.4086 100.232 48.0609 97.1309 46.8117C95.0004 45.9516 94.8481 47.8453 95.4903 48.3445C94.4801 48.0656 94.1028 46.9969 94.4098 46.1227C95.2067 43.868 98.7481 44.5734 99.8848 45.4195C99.1395 38.4375 100.618 33.4945 104.174 30.4688C100.246 39.0539 107.832 48.3328 107.399 52.6406L106.656 53.0555L105.54 51.9422L101.261 48.3445L99.8965 50.1492L98.5371 52.4086Z" fill="#FC9E12"/>
<path fill-rule="evenodd" clip-rule="evenodd" d="M141.461 52.4086C141.461 52.4086 139.766 48.0609 142.867 46.8117C144.998 45.9516 145.15 47.8453 144.508 48.3445C145.518 48.0656 145.895 46.9969 145.588 46.1227C144.791 43.868 141.25 44.5734 140.113 45.4195C140.859 38.4375 139.38 33.4945 135.824 30.4688C139.752 39.0539 132.166 48.3328 132.599 52.6406L133.342 53.0555L134.458 51.9422L138.749 48.3445L140.113 50.1492L141.473 52.4086H141.461Z" fill="#FC9E12"/>
<path fill-rule="evenodd" clip-rule="evenodd" d="M23.4156 195.628C23.4156 195.628 20.7812 193.209 17.4016 192.302C14.6547 191.566 9.16328 191.449 8.18593 187.338C7.83906 185.871 8.84921 183.429 10.7641 183.459C13.4547 183.502 13.3703 186.523 13.3703 186.523C13.3703 186.523 12.1984 184.158 10.7641 185.351C10.1664 185.838 10.3562 187.198 11.2586 187.76C12.4609 188.508 17.8867 188.808 17.8867 188.808L21.3367 192.323L23.4109 195.649L23.4156 195.628Z" fill="#FC9E12"/>
<path fill-rule="evenodd" clip-rule="evenodd" d="M216.583 195.628C216.583 195.628 219.217 193.209 222.597 192.302C225.343 191.566 230.835 191.449 231.812 187.338C232.159 185.871 231.149 183.429 229.234 183.459C226.543 183.502 226.628 186.523 226.628 186.523C226.628 186.523 227.8 184.158 229.234 185.351C229.832 185.838 229.642 187.198 228.74 187.76C227.537 188.508 222.111 188.808 222.111 188.808L218.661 192.323L216.587 195.649L216.583 195.628Z" fill="#FC9E12"/>
<path fill-rule="evenodd" clip-rule="evenodd" d="M119.998 209.531C123.964 207.991 127.705 206.29 131.309 204.492L127.219 207.656C130.658 207.935 139.018 207.422 146.752 204.495C151.311 202.772 153.908 200.51 156.894 198.145C161.438 194.536 165.418 191.262 169.606 195.066C172.184 193.493 172.609 190.847 170.846 187.097C172.233 187.323 173.647 187.323 175.034 187.097C175.972 192.57 180.048 194.285 186.425 193.202L184.866 195.066C194.659 196.111 201.849 193.472 206.846 187.905L209.916 187.097C209.33 192.272 207.765 196.35 205.782 199.695C217.032 196.805 219.718 194.808 225.849 183.933C228.055 180.021 233.171 176.963 236.801 172.448C240.034 168.427 241.707 163.47 237.444 157.214C237.859 160.495 236.403 162.888 234.214 164.836C234.214 164.836 236.419 159.41 236.792 157.214C237.008 155.986 235.749 153.136 235.749 151.547C235.749 150.223 236.595 147.663 236.595 147.663C235.238 147.898 234.324 148.875 233.548 150.073C233.441 148.936 234.202 148.048 234.587 147.319C235.189 146.177 234.901 139.924 234.509 136.069C234.059 131.616 233.19 127.038 232.154 122.414L229.852 125.259C226.187 107.344 217.264 93.9984 210.983 88.1461C211.392 92.5648 211.392 97.0118 210.983 101.43C205.962 95.6906 200.659 90.1101 195.233 84.6094L196.25 91.1719C190.698 85.4695 185.752 81.2625 178.977 76.2422C178.587 80.7141 178.36 83.8758 178.463 88.1601C175.36 84.2672 172.604 80.0414 171.242 74.9508C169.583 77.4422 168.631 80.2266 167.75 83.0391C167.75 83.0391 165.816 73.1531 161.52 66.2015C158.961 62.0601 155.206 58.2539 151.852 58.5164C148.304 58.7953 148.039 61.8164 148.039 61.8164C142.951 56.4703 140.117 51.4289 140.614 47.0156C136.585 47.0929 134.089 49.2023 132.612 52.6617C128.419 48.9273 124.217 45.0992 120.008 41.1773C115.798 45.1039 111.597 48.932 107.403 52.6617C105.927 49.2023 103.419 47.0929 99.4015 47.0156C99.8984 51.4289 97.0578 56.4703 91.9765 61.8164C91.9765 61.8164 91.7117 58.7953 88.1633 58.5164C84.8093 58.2539 81.0547 62.0601 78.4953 66.2015C74.1992 73.1531 72.2656 83.0391 72.2656 83.0391C71.3843 80.2266 70.4328 77.4422 68.7758 74.9508C67.4094 80.0414 64.6554 84.2672 61.5523 88.1601C61.6554 83.8758 61.4281 80.7141 61.039 76.2422C54.2633 81.2625 49.3203 85.4695 43.7656 91.1719L44.764 84.6094C39.3289 90.1195 34.025 95.7 29.0047 101.44C28.5954 97.0212 28.5954 92.5741 29.0047 88.1555C22.7328 93.9984 13.8101 107.344 10.1445 125.262L7.84296 122.416C6.80702 127.041 5.93749 131.616 5.49921 136.071C5.1078 139.924 4.81952 146.177 5.42187 147.321C5.80624 148.05 6.56796 148.938 6.46015 150.075C5.67499 148.877 4.76093 147.9 3.41327 147.666C3.41327 147.666 4.25937 150.225 4.25937 151.549C4.25937 153.138 3.00077 155.988 3.2164 157.216C3.59843 159.413 5.79452 164.838 5.79452 164.838C3.59374 162.891 2.13827 160.493 2.55312 157.214C-1.71016 163.465 -0.0250061 168.422 3.19531 172.448C6.82577 176.953 11.9516 180.019 14.1476 183.93C20.2789 194.805 22.9672 196.802 34.2172 199.688C32.2344 196.343 30.6687 192.265 30.0828 187.09L33.1531 187.898C38.15 193.465 45.3406 196.102 55.1328 195.059L53.5742 193.195C59.9515 194.278 64.0156 192.563 64.9648 187.09C66.3517 187.316 67.7662 187.316 69.1531 187.09C67.3906 190.84 67.8195 193.486 70.3929 195.059C74.5812 191.255 78.5609 194.529 83.1054 198.138C86.0914 200.513 88.6882 202.765 93.2468 204.488C100.981 207.413 109.341 207.928 112.777 207.649L108.687 204.492C112.292 206.29 116.033 207.991 119.998 209.531Z" fill="#FC9E12"/>
</g>
<path fill-rule="evenodd" clip-rule="evenodd" d="M58.8512 138.113L70.0379 117.973V99.7664H60.7098L50.2074 93.8883L33.2223 107.276L26.8496 113.684L25.5254 118.153L15.6512 138.113L13.2699 147.87L10.2793 160.516L13.2699 167.473H17.0387L17.9106 172.758L19.9215 176.107L22.5231 177.661L26.8496 180.07L29.477 177.661L33.2223 175.355L31.4598 169.577L36.9559 167.473L40.4317 166.305L46.7645 157.613L54.302 151.678L58.8512 138.113Z" fill="#C1312C"/>
<path fill-rule="evenodd" clip-rule="evenodd" d="M181.149 138.113L169.962 117.973V99.7664H179.29L189.792 93.8883L206.778 107.276L213.15 113.684L214.474 118.153L224.349 138.113L226.73 147.87L229.72 160.516L226.73 167.473H222.961L222.089 172.758L220.078 176.107L217.477 177.661L213.15 180.07L210.523 177.661L206.778 175.355L208.54 169.577L203.044 167.473L199.568 166.305L193.235 157.613L185.698 151.678L181.149 138.113Z" fill="#C1312C"/>
<path fill-rule="evenodd" clip-rule="evenodd" d="M120.001 204.487L137.098 196.296L144.835 191.466L149.907 184.453L151.637 180.084L142.728 182.191L138.191 176.766L144.835 160.416L151.637 158.039L157.609 146.639L165.908 137.278L167.42 128.351H163.14V123.38L159.584 121.505L163.14 110.829L159.584 112.46L163.14 99.4664V85.8375L159.584 76.3664L155.551 80.8406L149.157 93.8203L138.191 74.0508L129.16 70.0219L120.001 63.6469L110.841 70.0219L101.811 74.0508L90.8445 93.8203L84.4508 80.8406L80.4172 76.3664L76.8617 85.8375V99.4664L80.4172 112.46L76.8617 110.829L80.4172 121.505L76.8617 123.38V128.351H72.582L74.0938 137.278L82.393 146.639L88.3648 158.039L95.1664 160.416L101.811 176.766L97.2734 182.191L88.3648 180.084L90.0945 184.453L95.1664 191.466L102.903 196.296L120.001 204.487Z" fill="#871C19"/>
<path fill-rule="evenodd" clip-rule="evenodd" d="M120 204.232L128.254 201.234L141.077 193.812L148.455 186.457L150.304 183.448L149.784 181.573C149.784 181.573 144.206 188.21 142.394 189.452C137.604 192.743 120 199.922 120 199.922C120 199.922 102.396 192.745 97.6051 189.459C95.7934 188.217 90.2152 181.58 90.2152 181.58L89.6973 183.455L91.5441 186.464L98.9223 193.819L111.743 201.241L120 204.232Z" fill="#C1312C"/>
<path fill-rule="evenodd" clip-rule="evenodd" d="M119.999 172.523L126.412 169.673V157.423L129.803 155.091L132.824 151.678L132.091 143.756L136.987 140.965L140.772 142.683L142.771 153.347L141.557 165.818L136.987 169.673L132.824 171.862L129.803 175.552L124.232 179.414L119.999 180.07L115.767 179.414L110.196 175.552L107.177 171.862L103.012 169.673L98.4416 165.818L97.2275 153.347L99.2268 142.683L103.012 140.965L107.908 143.756L107.177 151.678L110.196 155.091L113.587 157.423V169.673L119.999 172.523Z" fill="#F59B05"/>
<path fill-rule="evenodd" clip-rule="evenodd" d="M42.3959 169.24L37.9873 166.305L31.46 169.577L33.0162 176.107L38.2896 185.515L45.1193 190.165L46.5889 184.409L42.3959 172.758V169.24Z" fill="#F59B05"/>
<path fill-rule="evenodd" clip-rule="evenodd" d="M24.6613 178.852L21.5348 177.07L17.9113 172.758L17.227 168.619H14.4355V174.408L18.9074 185.006L24.6613 191.414L25.7395 186.511L24.6613 178.852Z" fill="#F59B05"/>
<path fill-rule="evenodd" clip-rule="evenodd" d="M197.603 169.24L202.012 166.305L208.539 169.577L206.983 176.107L201.709 185.515L194.88 190.165L193.41 184.409L197.603 172.758V169.24Z" fill="#F59B05"/>
<path fill-rule="evenodd" clip-rule="evenodd" d="M215.34 178.852L218.466 177.07L222.09 172.758L222.774 168.619H225.566V174.408L221.094 185.006L215.34 191.414L214.262 186.511L215.34 178.852Z" fill="#F59B05"/>
<path fill-rule="evenodd" clip-rule="evenodd" d="M43.31 166.305L45.9795 158.688L49.992 151.678C47.5357 150.642 44.3881 150.429 40.7529 150.506C40.7529 150.506 46.235 147.298 47.1607 145.877C48.6842 143.534 49.7154 140.337 50.6998 137.304C52.7693 130.917 53.1818 126.523 53.6436 125.449C54.1615 124.263 61.8256 116.384 64.6006 101.121L71.3084 107.859L64.242 129.506L67.7576 140.271L71.3131 151.678L67.7576 160.516L60.3373 160.985H55.3475L48.4826 170.234L43.31 166.298V166.305Z" fill="#871C19"/>
<path fill-rule="evenodd" clip-rule="evenodd" d="M24.6611 117.973L23.5432 105.218L18.3752 115.673L13.1533 136.062L14.5877 136.98L16.0361 136.062L19.7064 127.854L24.6611 117.973Z" fill="#871C19"/>
<path fill-rule="evenodd" clip-rule="evenodd" d="M32.315 112.861C30.9369 116.318 29.8072 119.789 29.2822 123.281C30.2314 122.227 31.2088 121.362 32.315 119.82L34.101 113.681L32.315 112.859V112.861Z" fill="#871C19"/>
<path fill-rule="evenodd" clip-rule="evenodd" d="M15.3209 142.001C15.3209 142.001 15.0865 143.449 15.5295 144.162C16.0287 144.961 17.4045 146.923 18.4498 146.454C23.7537 144.11 31.474 136.561 31.474 136.561C30.042 139.209 28.0732 141.884 25.6146 144.584C30.1345 140.918 34.1116 136.63 37.4271 131.848C40.2865 127.741 43.0006 123.928 44.4982 120.129C48.3654 110.33 50.1865 98.2054 50.1865 98.2054L51.7803 110.198L47.9389 122.231L45.1264 128.843L37.4271 139.409L29.2826 146.953L22.4506 149.634L18.0467 150.305L14.435 146.953C14.0553 145.228 14.1396 143.391 15.3209 141.994V142.001Z" fill="#871C19"/>
<path fill-rule="evenodd" clip-rule="evenodd" d="M30.4357 147.87C25.7811 155.677 19.1271 161.51 12.8904 159.166L11.5381 163.416L14.4467 168.619L18.199 169.219C21.8389 168.914 24.6959 171.223 26.0365 173.759C26.5521 174.734 23.4584 175.587 23.4584 175.587C25.7646 176.951 28.099 177.124 30.4357 177.063L32.1912 171.97L29.2826 168.612H35.1186L43.9217 161.508L45.2342 157.095C42.1029 152.262 37.3217 151.397 32.9412 155.048C32.9412 155.048 36.5084 157.034 33.6443 159.602C31.7365 161.313 27.5271 160.514 27.5834 157.962C27.6162 156.518 29.4584 155.747 30.4381 154.552C31.1014 153.743 32.5873 151.92 33.6443 151.191C35.1115 150.183 37.8795 149.588 39.6654 148.46C41.0436 147.588 43.0592 144.741 43.0592 144.741L40.1623 145.097L34.1014 146.953L30.4357 147.863V147.87Z" fill="#871C19"/>
<path fill-rule="evenodd" clip-rule="evenodd" d="M120.001 188.144L128.464 186.408L132.826 180.853V176.4L131.734 174.415C131.41 175.877 130.796 177.525 130.182 178.507C129.875 178.997 128.623 179.602 127.89 180.209C127.156 180.816 126.111 181.957 125.202 182.421C123.774 183.148 121.252 183.199 120.001 183.199C118.749 183.199 116.227 183.148 114.8 182.421C113.888 181.952 112.871 180.834 112.112 180.209C111.352 179.583 110.127 178.997 109.82 178.507C109.203 177.525 108.591 175.877 108.268 174.415L107.176 176.4V180.853L111.538 186.408L120.001 188.144Z" fill="#C1312C"/>
<path fill-rule="evenodd" clip-rule="evenodd" d="M135.137 77.8289C138.352 83.3461 139.988 89.1773 140.398 93.8391L138.247 97.1203C138.633 94.346 138.085 91.5221 136.69 89.093C136.456 88.6898 135.57 89.0578 135.35 88.6453C137.403 95.6531 137.694 103.158 133.006 108.717L124.749 115.971L126.969 115.798C126.969 115.798 126.734 117.928 126.969 118.322C127.189 118.678 127.892 118.575 128.225 118.322C129.465 117.384 131.068 116.182 134.41 112.671C137.344 109.584 140.663 105.448 142.789 100.781C143.994 98.1281 143.52 93.7641 142.789 90.8836C144.325 94.258 145.621 97.7361 146.67 101.292L147.01 93.8461L138.247 79.493L135.35 75.6445L135.137 77.8359V77.8289Z" fill="#C1312C"/>
<path fill-rule="evenodd" clip-rule="evenodd" d="M147.729 105.938L146.534 110.107L146.016 113.932C146.016 113.932 153.429 105.902 154.559 103.521C156.902 98.5758 159.012 80.0836 159.012 80.0836L153.886 92.4211L147.729 105.938Z" fill="#C1312C"/>
<path fill-rule="evenodd" clip-rule="evenodd" d="M148.29 117.103C150.193 115.281 151.934 113.298 153.495 111.176L152.579 117.727L161.276 113.456C158.215 116.079 154.887 118.375 151.348 120.307C149.436 125.672 146.511 129.565 143.34 133.631L143.265 126.755L147.015 120.307L148.294 117.103H148.29Z" fill="#C1312C"/>
<path fill-rule="evenodd" clip-rule="evenodd" d="M161.089 126.169C157.578 128.395 153.851 130.263 149.966 131.745C150.892 130.676 152.04 129.415 152.806 128.128L159.472 124.125L161.089 126.169Z" fill="#C1312C"/>
<path fill-rule="evenodd" clip-rule="evenodd" d="M119.999 109.219C112.136 101.684 112.764 95.0484 115.457 88.6711C113.16 90.4687 111.334 92.8265 110.502 96.3633C109.766 89.489 115.48 84.1758 119.999 75.6351C124.518 84.1711 130.232 89.489 129.496 96.3633C128.671 92.8289 126.838 90.4687 124.541 88.6734C127.234 95.0508 127.862 101.686 119.999 109.219Z" fill="#C1312C"/>
<path fill-rule="evenodd" clip-rule="evenodd" d="M196.69 166.305L194.02 158.688L190.008 151.678C192.464 150.642 195.612 150.429 199.247 150.506C199.247 150.506 193.765 147.298 192.839 145.877C191.315 143.534 190.284 140.337 189.3 137.304C187.23 130.917 186.818 126.523 186.356 125.449C185.838 124.263 178.174 116.384 175.399 101.121L168.691 107.859L175.758 129.497L172.242 140.262L168.687 151.669L172.242 160.507L179.662 160.976H184.647L191.512 170.224L196.685 166.289L196.69 166.305Z" fill="#871C19"/>
<path fill-rule="evenodd" clip-rule="evenodd" d="M215.34 117.973L216.458 105.218L221.626 115.673L226.848 136.062L225.413 136.98L223.965 136.062L220.295 127.854L215.34 117.973Z" fill="#871C19"/>
<path fill-rule="evenodd" clip-rule="evenodd" d="M207.682 112.861C209.063 116.318 210.192 119.789 210.717 123.281C209.78 122.227 208.791 121.362 207.682 119.82L205.898 113.681L207.682 112.859V112.861Z" fill="#871C19"/>
<path fill-rule="evenodd" clip-rule="evenodd" d="M224.678 142.001C224.678 142.001 224.913 143.449 224.47 144.162C223.97 144.961 222.595 146.923 221.549 146.454C216.245 144.11 208.525 136.561 208.525 136.561C209.957 139.209 211.926 141.884 214.384 144.584C209.865 140.918 205.887 136.63 202.572 131.848C199.713 127.741 196.998 123.928 195.501 120.129C191.634 110.33 189.813 98.2054 189.813 98.2054L188.219 110.198L192.06 122.231L194.873 128.843L202.572 139.409L210.716 146.953L217.548 149.627L221.964 150.298L225.564 146.953C225.944 145.228 225.859 143.391 224.678 141.994V142.001Z" fill="#871C19"/>
<path fill-rule="evenodd" clip-rule="evenodd" d="M209.564 147.87C214.223 155.677 220.873 161.51 227.121 159.166L228.473 163.416L225.565 168.619L221.801 169.219C218.161 168.914 215.304 171.223 213.963 173.759C213.448 174.734 216.541 175.587 216.541 175.587C214.235 176.951 211.901 177.124 209.564 177.063L207.809 171.97L210.717 168.612H204.881L196.078 161.515L194.766 157.095C197.897 152.262 202.678 151.397 207.059 155.048C207.059 155.048 203.491 157.034 206.355 159.602C208.263 161.313 212.473 160.514 212.416 157.962C212.384 156.518 210.541 155.747 209.562 154.552C208.898 153.743 207.412 151.92 206.355 151.191C204.888 150.183 202.12 149.588 200.334 148.46C198.956 147.588 196.941 144.741 196.941 144.741L199.838 145.097L205.898 146.953L209.564 147.863V147.87Z" fill="#871C19"/>
<path fill-rule="evenodd" clip-rule="evenodd" d="M105.666 135.108C106.24 135.769 109.782 139.357 112.803 140.967C112.995 141.07 110.55 141.11 109.735 140.639C108.429 139.899 107.173 139.075 105.973 138.173C104.859 137.289 103.868 136.26 103.027 135.113C102.228 133.985 103.69 131.224 103.69 131.224C104.232 132.577 104.766 133.934 105.666 135.113V135.108Z" fill="#C1312C"/>
<path fill-rule="evenodd" clip-rule="evenodd" d="M109.452 130.479C111.032 132.183 112.614 133.418 114.374 134.304C110.955 133.659 107.2 131.611 106.229 129.919C105.648 128.906 107.108 127.167 107.108 127.167L109.452 130.479Z" fill="#C1312C"/>
<path fill-rule="evenodd" clip-rule="evenodd" d="M119.999 133.594C120.632 133.594 123.281 132.656 126.042 130.617C127.778 129.33 129.342 127.936 130.047 127.298C130.753 126.661 130.593 124.017 130.593 124.017L128.17 125.391C125.228 129.188 121.279 131.116 119.999 131.116C118.72 131.116 114.771 129.188 111.829 125.391L109.406 124.005C109.406 124.005 109.221 126.621 109.952 127.287C110.683 127.952 112.221 129.319 113.957 130.605C116.73 132.656 119.367 133.594 119.999 133.594Z" fill="#C1312C"/>
<path fill-rule="evenodd" clip-rule="evenodd" d="M120.001 129.441C120.819 129.441 123.071 128.198 124.065 127.526C125.722 126.408 126.643 125.166 128.072 123.349L125.879 122.241L122.466 122.756C122.466 122.756 125.445 123.893 125.105 124.702C124.688 125.691 121.074 127.28 120.001 127.28C118.927 127.28 115.313 125.702 114.896 124.702C114.556 123.893 117.535 122.756 117.535 122.756L114.122 122.241L111.929 123.349C113.368 125.166 114.272 126.408 115.937 127.526C116.93 128.198 119.183 129.441 120.001 129.441Z" fill="#C1312C"/>
<path fill-rule="evenodd" clip-rule="evenodd" d="M134.335 135.108C133.761 135.769 130.219 139.357 127.198 140.967C127.006 141.07 129.451 141.11 130.266 140.639C131.572 139.898 132.829 139.075 134.03 138.173C135.143 137.289 136.133 136.259 136.974 135.113C137.773 133.985 136.311 131.224 136.311 131.224C135.769 132.577 135.235 133.934 134.335 135.113V135.108Z" fill="#C1312C"/>
<path fill-rule="evenodd" clip-rule="evenodd" d="M130.547 130.479C128.967 132.183 127.385 133.418 125.625 134.304C129.045 133.659 132.799 131.611 133.77 129.919C134.358 128.897 132.898 127.167 132.898 127.167L130.554 130.479H130.547Z" fill="#C1312C"/>
<path fill-rule="evenodd" clip-rule="evenodd" d="M129.885 144.473L131.971 149.632L131.024 152.393L127.291 151.16L122.673 148.891H117.325L112.708 151.16L108.974 152.393L108.027 149.632L110.113 144.473L113.102 144.094L119.999 144.473L126.897 144.094L129.885 144.473Z" fill="#FC9E12"/>
<path fill-rule="evenodd" clip-rule="evenodd" d="M34.1834 176.517C34.1834 176.517 33.103 171.83 35.1209 171.265C37.9663 170.452 38.2381 175.866 39.9303 179.887C41.1874 182.848 42.5955 185.743 44.1491 188.559C40.0241 186.248 36.7475 183.265 34.1858 176.51L34.1834 176.517Z" fill="#FCC66F"/>
<path fill-rule="evenodd" clip-rule="evenodd" d="M106.406 144.087C105.088 143.7 103.446 143.419 102.356 144.488C105.051 144.405 105.119 146.639 104.507 147.87C99.8713 157.188 100.246 166.425 100.246 166.425L98.1111 162.422L97.2275 150.291L99.8057 142.432L103.024 139.427L106.406 144.087Z" fill="#FCC66F"/>
<path fill-rule="evenodd" clip-rule="evenodd" d="M107.766 167.344C108.657 170.201 110.846 172.064 111.538 173.346C112.034 174.267 111.669 175.76 110.108 174.284C109.576 173.777 107.909 172.755 107.909 172.755L107.176 169.123L107.766 167.344Z" fill="#FCC66F"/>
<path fill-rule="evenodd" clip-rule="evenodd" d="M119.999 179.459L124.232 178.756L126.412 176.477L126.897 174.403L126.543 171.684C125.355 175.2 123.894 176.477 119.999 176.477C116.104 176.477 114.644 175.198 113.455 171.684L113.102 174.403L113.587 176.477L115.766 178.756L119.999 179.459Z" fill="#FCC66F"/>
<path fill-rule="evenodd" clip-rule="evenodd" d="M205.816 176.517C205.816 176.517 206.897 171.83 204.879 171.265C202.033 170.452 201.762 175.866 200.069 179.887C198.812 182.848 197.404 185.743 195.851 188.559C199.976 186.248 203.252 183.265 205.814 176.51L205.816 176.517Z" fill="#FCC66F"/>
<path fill-rule="evenodd" clip-rule="evenodd" d="M133.594 144.087C134.911 143.7 136.554 143.419 137.644 144.488C134.948 144.405 134.88 146.639 135.492 147.87C140.128 157.188 139.753 166.425 139.753 166.425L141.888 162.422L142.772 150.291L140.194 142.432L136.976 139.427L133.594 144.087Z" fill="#FCC66F"/>
<path fill-rule="evenodd" clip-rule="evenodd" d="M132.234 167.344C131.344 170.201 129.155 172.064 128.463 173.346C127.966 174.267 128.332 175.76 129.893 174.284C130.425 173.777 132.091 172.755 132.091 172.755L132.825 169.123L132.234 167.344Z" fill="#FCC66F"/>
<path fill-rule="evenodd" clip-rule="evenodd" d="M131.024 149.074L128.352 146.105L127.534 146.501L128.657 150.014L131.024 151.678V149.074Z" fill="#FCC66F"/>
<path fill-rule="evenodd" clip-rule="evenodd" d="M125.853 146.801L126.617 146.512L127.292 148.397L125.853 149.632L123.818 147.916H116.182L114.148 149.632L112.709 148.397L113.384 146.512L114.148 146.801L115.027 146.105H124.974L125.853 146.801Z" fill="#FCC66F"/>
<path fill-rule="evenodd" clip-rule="evenodd" d="M108.976 149.074L111.647 146.105L112.465 146.501L111.343 150.014L108.976 151.678V149.074Z" fill="#FCC66F"/>
<path fill-rule="evenodd" clip-rule="evenodd" d="M110.481 122.756L97.7662 111.448L96.7842 112.427L97.2271 115.472L102.433 122.756L106.719 124.5L110.481 122.756Z" fill="#FDCE12"/>
<path fill-rule="evenodd" clip-rule="evenodd" d="M45.1193 133.582L41.81 144.342L36.1053 146.96H31.46L37.8678 140.266L45.1193 133.582Z" fill="#FDCE12"/>
<path fill-rule="evenodd" clip-rule="evenodd" d="M129.518 122.756L142.232 111.448L143.215 112.427L142.772 115.472L137.566 122.756L133.279 124.5L129.518 122.756Z" fill="#FDCE12"/>
<path fill-rule="evenodd" clip-rule="evenodd" d="M194.881 133.582L198.19 144.342L203.895 146.96H208.54L202.132 140.266L194.881 133.582Z" fill="#FDCE12"/>
<path fill-rule="evenodd" clip-rule="evenodd" d="M104.865 77.8289C101.649 83.3461 100.013 89.1773 99.6029 93.8391L101.754 97.1203C101.369 94.346 101.916 91.5221 103.311 89.093C103.545 88.6898 104.431 89.0578 104.654 88.6453C102.598 95.6531 102.31 103.158 106.997 108.717L115.254 115.971L113.035 115.798C113.035 115.798 113.269 117.928 113.035 118.322C112.815 118.678 112.112 118.575 111.779 118.322C110.539 117.384 108.936 116.182 105.594 112.671C102.657 109.584 99.3381 105.448 97.2123 100.781C96.0076 98.1281 96.481 93.7641 97.2123 90.8836C95.6766 94.258 94.3796 97.7361 93.3311 101.292L92.9912 93.8461L101.754 79.493L104.654 75.6445L104.865 77.8359V77.8289Z" fill="#C1312C"/>
<path fill-rule="evenodd" clip-rule="evenodd" d="M92.2721 105.938L93.4674 110.107L93.9854 113.932C93.9854 113.932 86.5721 105.902 85.4424 103.521C83.0986 98.5758 80.9893 80.0836 80.9893 80.0836L86.115 92.4211L92.2721 105.938Z" fill="#C1312C"/>
<path fill-rule="evenodd" clip-rule="evenodd" d="M91.7113 117.103C89.8084 115.281 88.0667 113.298 86.5059 111.176L87.4223 117.727L78.7246 113.456C81.7863 116.079 85.1138 118.375 88.6527 120.307C90.5652 125.672 93.4902 129.565 96.6613 133.631L96.7363 126.755L92.998 120.307L91.7183 117.103H91.7113Z" fill="#C1312C"/>
<path fill-rule="evenodd" clip-rule="evenodd" d="M78.9121 126.169C82.4238 128.395 86.1503 130.263 90.0355 131.745C89.1098 130.676 87.9613 129.415 87.1949 128.128L80.5293 124.125L78.9121 126.169Z" fill="#C1312C"/>
<path fill-rule="evenodd" clip-rule="evenodd" d="M120 168.342C119.489 168.342 117.3 167.937 116.918 165.879C116.653 164.43 117.602 163.207 118.069 160.875C118.284 162.464 117.93 163.699 118.069 164.836C118.207 165.973 118.889 166.966 120 166.966C121.111 166.966 121.795 165.94 121.931 164.836C122.067 163.732 121.716 162.464 121.931 160.875C122.4 163.219 123.337 164.43 123.082 165.879C122.7 167.937 120.504 168.342 120 168.342Z" fill="#2C0C0B"/>
<path fill-rule="evenodd" clip-rule="evenodd" d="M120 205.901C130.043 202.296 142.333 195.464 145.132 192.869C147.771 190.42 151.46 185.163 155.21 177.762C151.579 178.383 148.289 178.406 145.366 177.762C152.596 171.919 156.918 162.218 159.358 150.016C160.061 159.577 158.596 167.156 155.029 172.69C157.49 172.455 159.717 171.839 161.749 171.284C157.764 189.082 148.987 197.688 133.811 205.198C159.4 200.548 155.414 188.398 169.235 190.877C169.453 188.466 167.146 186.37 164.507 185.859C167.775 182.578 172.007 186.063 176.212 184.219C179.789 182.651 180.853 179.531 180.487 175.566C178.256 177.661 175.823 178.029 173.011 176.794C175.176 175.924 176.1 174.134 175.675 171.483C170.653 173.737 166 164.58 166.987 156.586C170.573 167.51 181.617 168.717 183.457 176.993C185.611 171.429 182.43 168.173 180.67 163.702C185.763 169.376 190.031 173.967 187.012 179.405C189.121 178.786 191.264 177.342 193.16 175.554C191.889 180.141 189.867 183.94 187.971 185.845C185.008 188.822 180.072 188.1 180.487 186.223C180.857 184.542 183.904 184.207 183.904 184.207C182.657 183.431 178.045 183.27 177.775 186.701C177.602 188.88 179.463 190.589 182.029 190.964C184.793 191.367 188.285 190.594 190.575 188.737C190.088 190.142 189.523 191.519 188.882 192.86C196.043 193.13 201.651 190.402 205.992 184.922C208.275 184.571 210.534 184.073 212.754 183.431C212.407 188.287 211.427 192.534 209.843 196.198C214.134 194.583 216.874 192.647 218.948 190.338C221.093 187.931 222.41 184.383 224.233 181.842C228.707 175.603 238.235 170.428 237.555 163.943C236.545 166.823 231.918 169.652 228.107 172.69C229.584 170.263 230.904 167.746 232.061 165.152C233.245 162.478 234.218 159.471 234.639 156.949C234.768 156.183 234.246 154.863 234.011 153.975C233.777 153.052 233.505 151.884 233.505 151.884C232.078 153.007 233.161 156.591 232.68 157.153C232.68 157.153 231.822 155.187 230.906 153.403C230.217 152.067 229.46 150.745 229.392 150.014C229.333 149.391 232.345 147.422 232.49 146.829C232.839 145.394 232.441 140.913 232.167 137.955C231.869 134.773 231.391 131.564 230.761 128.287C230.255 129.68 229.662 131.039 228.984 132.356C226.354 118.594 221.032 106.249 213.736 94.8961C213.628 99.2273 213.371 103.594 212.964 107.995C208.546 102.541 203.697 97.214 198.799 91.95C199.424 94.039 199.957 96.1695 200.4 98.3414C194.536 92.5945 188.083 86.7273 181.043 80.7398C180.788 85.4551 180.788 90.1807 181.043 94.8961C179.207 92.1023 174.658 89.2148 170.596 80.5336C169.604 83.1711 169.145 85.9791 169.244 88.7953C165.26 84.7593 164.236 77.6953 161.289 71.1C158.768 65.4468 155.472 61.2562 152.768 61.0054C150.853 60.8297 149.704 62.6132 149.69 64.3617C149.69 65.7796 150.335 66.9656 151.493 67.5187C151.114 66.8745 150.922 66.1377 150.937 65.3906C150.986 64.6875 151.35 63.9843 152.13 63.9211C154.678 63.75 154.992 70.0711 152.13 73.6922C151.066 67.4648 138.609 58.5398 138.663 49.4742C135.649 50.5359 134.369 53.5757 133.366 57.0351C128.679 52.9968 124.195 49.0195 120.007 45.1265C115.821 49.0195 111.335 52.9968 106.647 57.0351C105.644 53.5757 104.364 50.5359 101.35 49.4742C101.404 58.5398 88.9472 67.4648 87.8832 73.6922C85.0215 70.0711 85.3355 63.75 87.8832 63.9211C88.6637 63.9726 89.0269 64.6898 89.0761 65.3906C89.0906 66.1418 88.895 66.8821 88.5113 67.5281C89.6691 66.975 90.3254 65.789 90.3137 64.3711C90.2996 62.6226 89.1418 60.839 87.2363 61.0148C84.5316 61.2656 81.2363 65.4562 78.7144 71.1093C75.7683 77.7047 74.7301 84.7687 70.7597 88.8046C70.8592 85.9884 70.3995 83.1805 69.4074 80.5429C65.3457 89.2148 60.7965 92.1117 58.9613 94.9054C59.2159 90.1901 59.2159 85.4645 58.9613 80.7492C51.9019 86.7398 45.4496 92.607 39.6043 98.3507C40.0402 96.1789 40.5738 94.0484 41.205 91.9593C36.3066 97.214 31.4574 102.551 27.0394 108.005C26.6394 103.606 26.3824 99.2398 26.2683 94.9054C18.9675 106.249 13.6449 118.594 11.0152 132.356C10.333 131.04 9.73488 129.682 9.22457 128.29C8.60582 131.571 8.1277 134.775 7.81832 137.958C7.5441 140.916 7.14566 145.397 7.49488 146.831C7.6402 147.424 10.6519 149.393 10.5933 150.016C10.5254 150.748 9.76832 152.07 9.07926 153.405C8.16285 155.184 7.30504 157.155 7.30504 157.155C6.82457 156.593 7.90738 153.009 6.48004 151.887C6.48004 151.887 6.21754 153.059 5.97379 153.977C5.73941 154.866 5.21676 156.185 5.34566 156.952C5.77223 159.476 6.75191 162.483 7.92379 165.155C9.08098 167.748 10.4016 170.266 11.8777 172.692C8.06676 169.645 3.44019 166.833 2.43004 163.945C1.75035 170.43 11.2777 175.605 15.7519 181.844C17.5754 184.385 18.8925 187.938 21.0371 190.341C23.1043 192.659 25.8511 194.594 30.1425 196.2C28.5582 192.537 27.5785 188.29 27.2316 183.434C29.4551 184.075 31.7176 184.572 34.005 184.922C38.3386 190.402 43.9472 193.125 51.1144 192.86C50.4736 191.519 49.9087 190.142 49.4222 188.737C51.7121 190.594 55.2043 191.367 57.9675 190.964C60.534 190.589 62.3949 188.88 62.2215 186.701C61.9496 183.265 57.3394 183.42 56.0925 184.207C56.0925 184.207 59.1394 184.542 59.5097 186.223C59.9246 188.098 54.9886 188.822 52.0261 185.845C50.13 183.94 48.1074 180.141 46.8371 175.554C48.7332 177.342 50.8777 178.786 52.9847 179.405C49.966 173.955 54.234 169.364 59.3269 163.702C57.5668 168.173 54.3863 171.436 56.5425 176.993C58.38 168.717 69.4332 167.51 73.0097 156.586C73.9965 164.58 69.3441 173.737 64.3215 171.483C63.8972 174.134 64.8207 175.936 66.9863 176.794C64.1738 178.029 61.741 177.661 59.5097 175.566C59.1441 179.522 60.2129 182.651 63.7847 184.219C67.9847 186.061 72.2222 182.578 75.4894 185.859C72.8504 186.37 70.5441 188.466 70.7621 190.877C84.5902 188.398 80.6058 200.548 106.186 205.198C91.0097 197.698 82.2371 189.082 78.248 171.284C80.2801 171.844 82.5066 172.455 84.9676 172.69C81.3933 167.156 79.9215 159.577 80.6246 150.016C83.0644 162.218 87.3863 171.919 94.6168 177.762C91.7035 178.406 88.4129 178.383 84.773 177.762C88.523 185.163 92.2121 190.418 94.8512 192.869C97.666 195.469 109.957 202.296 120 205.901ZM120 196.409C136.769 191.534 144.876 186.548 149.615 181.791C149.615 181.791 145.371 188.655 142.652 190.697C136.336 195.429 125.339 200.47 120 202.5C114.661 200.461 103.664 195.42 97.3473 190.683C94.6285 188.646 90.384 181.777 90.384 181.777C95.123 186.548 103.23 191.534 120 196.406V196.409ZM16.3214 169.31C17.6574 175.069 19.3683 177.687 23.2777 178.648C23.0879 181.434 23.2777 184.952 23.6691 187.852C19.5277 181.786 16.2652 176.093 16.3214 169.31ZM223.678 169.31C222.342 175.069 220.631 177.687 216.721 178.648C216.911 181.434 216.721 184.952 216.33 187.852C220.471 181.786 223.734 176.093 223.678 169.31ZM201.522 167.887C202.774 169.214 204.569 170.135 207.147 170.435C206.444 176.358 200.414 184.922 196.23 187.753C196.23 187.753 199.209 176.909 200.245 169.758C200.35 169.024 201.511 167.883 201.511 167.883L201.522 167.887ZM38.4769 167.887C37.2254 169.214 35.43 170.135 32.8519 170.435C33.555 176.358 39.5855 184.922 43.7691 187.753C43.7691 187.753 40.7902 176.909 39.7543 169.758C39.6488 169.024 38.4886 167.883 38.4886 167.883L38.4769 167.887ZM120 185.257C119.107 185.257 117.011 185.093 116.463 185.051C116.025 185.016 116.1 186.134 116.055 186.105C114.079 184.795 113.271 182.618 111.248 180.445C110.463 179.606 109.57 179.508 109.225 179.011C108.48 177.919 108.464 175.118 108.464 175.118C110.032 178.165 112.797 181.479 120 181.479C127.202 181.479 129.968 178.165 131.536 175.118C131.536 175.118 131.519 177.93 130.774 179.011C130.429 179.517 129.536 179.606 128.751 180.445C126.729 182.618 125.92 184.795 123.944 186.105C123.9 186.134 123.975 185.016 123.536 185.051C122.988 185.093 120.893 185.257 120 185.257ZM120 178.376C116.594 178.376 113.519 176.616 113.765 172.516C115.23 174.495 116.669 175.174 120 175.174C123.33 175.174 124.769 174.495 126.234 172.516C126.468 176.604 123.405 178.376 120 178.376ZM219.246 166.793C219.848 166.655 221.552 168.525 221.618 169.059C221.805 170.569 220.542 174.286 219.67 175.226C218.379 176.618 216.857 177.23 215.074 177.975C215.62 177.221 216.105 176.425 216.525 175.594C216.525 175.594 212.306 175.741 211.193 175.507C210.325 175.322 208.42 174.473 208.404 173.712C208.357 171.584 210.904 170.062 214.071 168.79C215.496 168.216 217.171 167.269 219.246 166.795V166.793ZM20.7535 166.793C20.1511 166.655 18.4472 168.525 18.3816 169.059C18.1941 170.569 19.4574 174.286 20.3293 175.226C21.6207 176.618 23.1418 177.23 24.9254 177.975C24.3796 177.221 23.8944 176.425 23.4746 175.594C23.4746 175.594 27.6933 175.741 28.8066 175.507C29.6738 175.322 31.5793 174.473 31.5957 173.712C31.6425 171.584 29.0949 170.062 25.9285 168.79C24.5035 168.216 22.8277 167.269 20.7535 166.795V166.793ZM111.925 175.465C112.607 175.481 112.879 173.421 112.483 172.816C111.686 171.605 109.225 169.39 107.993 167.843C107.962 170.688 110.21 175.42 111.925 175.465ZM128.069 175.465C127.387 175.481 127.115 173.421 127.511 172.816C128.308 171.605 130.769 169.39 132.002 167.843C132.032 170.688 129.785 175.42 128.069 175.465ZM120 169.758C117.944 169.758 116.041 168.312 115.629 166.296C115.225 164.325 116.566 161.14 116.376 158.248C116.289 156.909 114.614 155.592 114.642 154.556C114.67 153.52 115.83 152.107 116.751 151.931C117.475 151.793 118.441 152.831 120.009 152.831C121.577 152.831 122.543 151.793 123.267 151.931C124.179 152.107 125.339 153.523 125.376 154.556C125.414 155.59 123.736 156.9 123.642 158.248C123.457 161.13 124.793 164.325 124.389 166.296C123.977 168.312 122.074 169.758 120.018 169.758H120ZM61.6871 131.407C63.9488 121.723 65.0105 111.841 64.4996 101.702C64.4996 101.702 60.6793 110.491 57.2832 115.624C53.3316 121.596 49.823 124.969 49.1879 126.171C48.3113 127.812 46.8886 133.003 46.1269 136.648C45.4754 139.76 44.1418 143.637 42.9582 144.891C42.4566 145.423 39.1332 146.836 35.7746 147.888C33.63 148.561 30.2972 148.545 29.6808 148.894C26.9832 150.396 24.2902 151.57 21.9464 151.802C20.3792 151.969 18.7945 151.79 17.3035 151.28L12.8105 159.141C16.0918 160.84 19.7691 159.987 27.555 155.77C27.1964 157.683 26.2519 159.471 24.7636 160.573C24.7636 160.573 23.7464 159.429 23.4043 159.614C23.0621 159.799 23.0808 161.29 23.0808 161.29C22.4602 162.316 21.6765 163.234 20.7605 164.009C20.7605 164.009 29.1371 168.722 33.6511 167.733C35.6879 167.287 39.93 163.847 40.3519 161.784C40.966 158.782 39.991 155.857 39.991 155.857C41.8004 155.041 43.2886 155.721 44.8097 156.49C44.6083 155.482 44.1766 154.535 43.5485 153.722C42.9203 152.909 42.1127 152.252 41.1886 151.802C44.0011 151.099 46.8699 151.132 50.0152 151.687C53.6902 144.225 55.8254 135.862 58.0121 127.474C58.5746 125.32 59.184 123.337 59.6949 121.146C60.6921 124.498 61.3578 127.939 61.6824 131.421L61.6871 131.407ZM178.312 131.407C176.05 121.723 174.989 111.841 175.5 101.702C175.5 101.702 179.32 110.491 182.716 115.624C186.668 121.596 190.176 124.969 190.811 126.171C191.688 127.812 193.111 133.003 193.872 136.648C194.524 139.76 195.857 143.637 197.041 144.891C197.543 145.423 200.866 146.836 204.225 147.888C206.369 148.561 209.702 148.545 210.318 148.894C213.016 150.396 215.709 151.57 218.053 151.802C219.62 151.969 221.205 151.79 222.696 151.28L227.189 159.141C223.907 160.84 220.23 159.987 212.444 155.77C212.803 157.683 213.747 159.471 215.236 160.573C215.236 160.573 216.253 159.429 216.595 159.614C216.937 159.799 216.918 161.29 216.918 161.29C217.539 162.316 218.323 163.234 219.239 164.009C219.239 164.009 210.862 168.722 206.348 167.733C204.311 167.287 200.069 163.847 199.647 161.784C199.033 158.782 200.008 155.857 200.008 155.857C198.199 155.041 196.708 155.721 195.189 156.49C195.39 155.482 195.822 154.534 196.45 153.721C197.078 152.908 197.886 152.251 198.811 151.802C195.998 151.099 193.129 151.132 189.984 151.687C186.309 144.225 184.174 135.862 181.987 127.474C181.425 125.32 180.815 123.337 180.304 121.146C179.307 124.498 178.641 127.939 178.317 131.421L178.312 131.407ZM18.7027 164.388C16.7171 163.974 14.8386 163.154 13.1855 161.979C13.1855 161.979 13.3519 163.678 13.5464 164.222C13.905 165.23 14.8402 166.634 15.7097 166.8C17.1652 167.077 18.7027 164.388 18.7027 164.388ZM221.296 164.388C223.282 163.974 225.161 163.154 226.814 161.979C226.814 161.979 226.647 163.678 226.453 164.222C226.094 165.23 225.159 166.634 224.289 166.8C222.834 167.077 221.296 164.388 221.296 164.388ZM111.588 164.827C111.377 164.212 110.24 162.893 109.896 163.05C109.551 163.207 109.5 165.012 109.711 165.628C109.898 166.174 110.819 166.936 111.274 166.767C111.729 166.598 111.796 165.434 111.588 164.829V164.827ZM128.411 164.827C128.622 164.212 129.759 162.893 130.104 163.05C130.448 163.207 130.5 165.012 130.289 165.628C130.101 166.174 129.18 166.936 128.725 166.767C128.271 166.598 128.203 165.434 128.411 164.829V164.827ZM132.644 146.311C132.452 144.497 137.357 141.877 138.103 143.541C142.19 152.681 139.718 166.041 139.718 166.041C139.718 166.041 138.384 160.929 136.518 156.019C134.957 151.915 132.832 148.073 132.644 146.323V146.311ZM107.355 146.311C107.547 144.497 102.642 141.877 101.896 143.541C97.809 152.681 100.282 166.041 100.282 166.041C100.282 166.041 101.615 160.929 103.481 156.019C105.042 151.915 107.168 148.073 107.355 146.323V146.311ZM65.8707 158.402C69.0816 152.864 69.2222 146.944 65.0129 141.469C63.9558 146.184 62.1324 148.387 60.0347 150.218C58.2113 151.812 55.4058 152.48 53.8707 154.048C52.3355 155.616 52.2019 158.501 50.9363 159.816C49.7527 161.044 47.9808 161.988 46.2746 161.925C46.4478 162.433 46.7499 162.887 47.1512 163.243C47.5526 163.599 48.0395 163.845 48.5644 163.957C47.0808 164.822 46.0707 165.03 45.1191 164.965C47.0129 166.137 49.5722 165.834 51.4871 163.559C50.5138 163.491 49.5609 163.247 48.6746 162.839C49.9004 162.457 51.4871 161.473 52.284 160.495C53.7605 158.691 53.6199 157.015 54.9816 155.597C56.4394 154.08 58.4269 154.104 60.9535 152.135C62.2707 151.109 63.5504 149.878 64.4902 147.855C66.4965 151.256 66.616 154.683 65.8636 158.402H65.8707ZM174.129 158.402C170.918 152.864 170.777 146.944 174.986 141.469C176.043 146.184 177.867 148.387 179.964 150.218C181.788 151.812 184.593 152.48 186.129 154.048C187.664 155.616 187.795 158.501 189.063 159.816C190.246 161.044 192.018 161.988 193.725 161.925C193.551 162.433 193.249 162.887 192.848 163.243C192.447 163.599 191.96 163.845 191.435 163.957C192.918 164.822 193.929 165.03 194.88 164.965C192.986 166.137 190.427 165.834 188.512 163.559C189.485 163.491 190.438 163.247 191.325 162.839C190.099 162.457 188.512 161.473 187.715 160.495C186.239 158.691 186.379 157.015 185.018 155.597C183.56 154.08 181.572 154.104 179.046 152.135C177.729 151.109 176.449 149.878 175.509 147.855C173.503 151.256 173.383 154.683 174.136 158.402H174.129ZM111.721 162.705C111.991 162.541 112.15 161.602 111.916 161.128C111.682 160.655 110.573 159.652 110.303 159.813C110.034 159.975 110.069 161.625 110.303 162.108C110.538 162.591 111.454 162.867 111.721 162.705ZM128.278 162.705C128.008 162.541 127.849 161.602 128.083 161.128C128.318 160.655 129.426 159.652 129.696 159.813C129.965 159.975 129.93 161.625 129.696 162.108C129.461 162.591 128.545 162.867 128.289 162.705H128.278ZM128.278 159.143C128.076 159.016 127.973 158.351 128.142 158.03C128.311 157.709 129.079 157.092 129.288 157.219C129.496 157.345 129.457 158.358 129.288 158.677C129.119 158.995 128.477 159.267 128.278 159.145V159.143ZM111.721 159.143C111.923 159.016 112.026 158.351 111.857 158.03C111.689 157.709 110.92 157.092 110.711 157.219C110.503 157.345 110.543 158.358 110.711 158.677C110.88 158.995 111.522 159.267 111.721 159.145V159.143ZM92.1863 155.552C90.7966 151.464 89.7454 147.269 89.0433 143.009C83.9407 139.906 79.3745 135.996 75.5222 131.433C77.36 136.287 80.5049 140.537 84.609 143.714C86.2496 148.495 88.8465 152.489 92.191 155.552H92.1863ZM147.813 155.552C149.203 151.464 150.254 147.269 150.956 143.009C156.059 139.906 160.625 135.996 164.477 131.433C162.639 136.287 159.494 140.537 155.39 143.714C153.75 148.495 151.153 152.489 147.808 155.552H147.813ZM120 147.23L115.078 147.281L113.763 148.453L112.591 147.281L109.889 150.408C109.889 150.408 109.42 148.151 109.685 147.281C109.95 146.412 111.52 145.188 111.52 145.188L113.416 145.891C113.416 145.891 114.611 145.188 115.324 145.188H124.661C125.364 145.188 126.569 145.891 126.569 145.891L128.465 145.188C128.465 145.188 130.029 146.412 130.3 147.281C130.572 148.151 130.096 150.408 130.096 150.408L127.401 147.281L126.229 148.453L124.914 147.281L119.993 147.23H120ZM19.4058 149.313C18.5574 149.416 17.3433 147.949 16.5511 146.969C15.5785 145.777 14.9105 144.712 14.9855 144.187C15.4543 140.358 18.0816 134.616 21.3886 128.937C25.0496 122.651 29.3879 116.562 32.0902 113.616C32.0714 115.561 32.0339 117.579 32.3246 119.585C38.0293 112.718 43.9402 106.066 49.8441 100.523C49.8441 100.523 49.1972 117.689 45.4918 125.33C42.7988 130.88 39.7472 135.08 34.5629 140.988C29.8754 146.337 25.891 148.519 19.4058 149.306V149.313ZM220.593 149.313C221.442 149.416 222.656 147.949 223.448 146.969C224.421 145.777 225.089 144.712 225.014 144.187C224.545 140.358 221.918 134.616 218.611 128.937C214.95 122.651 210.611 116.562 207.909 113.616C207.928 115.561 207.965 117.579 207.675 119.585C201.97 112.718 196.059 106.066 190.155 100.523C190.155 100.523 190.802 117.689 194.507 125.33C197.2 130.88 200.252 135.08 205.436 140.988C210.124 146.337 214.108 148.519 220.593 149.306V149.313ZM206.65 146.337C202.504 143.606 198.916 139.409 195.914 135.239C195.914 135.239 197.693 141.595 199.46 143.477C201.227 145.359 206.65 146.337 206.65 146.337ZM33.3488 146.337C37.4949 143.606 41.0832 139.409 44.0832 135.239C44.0832 135.239 42.3066 141.595 40.5394 143.477C38.7722 145.359 33.3488 146.337 33.3488 146.337ZM120 136.289C118.228 136.289 113.006 135.37 109.896 133.28C109.896 133.28 109.003 135.644 109.743 136.781C110.807 138.422 112.964 139.184 113.376 139.193C113.376 139.193 113.868 138.462 114.194 138.572C114.972 138.834 115.277 140.313 115.877 140.93C116.538 141.612 118.282 142.755 118.282 142.755C114.801 142.587 113.395 143.142 111.417 142.966C108.682 142.732 102.492 136.758 101.674 135.408C100.757 133.901 103.263 132.269 103.263 132.269C104.064 133.732 104.993 135.082 106.178 135.645C106.178 135.645 103.532 131.775 104.599 128.796C104.833 128.119 106.854 127.58 106.854 127.58C107.056 128.344 107.439 129.048 107.968 129.635C108.498 130.222 109.161 130.673 109.9 130.952C109.9 130.952 108.553 128.077 108.466 126.717C108.44 126.314 109.455 125.407 109.455 125.407L114.686 128.362C113.676 127.066 112.938 125.691 112.687 124.355C112.687 124.355 114.407 123.443 115.197 123.218C115.83 123.037 116.714 123.218 117.346 123.408C118.118 123.642 119.254 124.76 120.004 124.76C120.754 124.76 121.879 123.633 122.662 123.408C123.295 123.223 124.179 123.037 124.811 123.218C125.601 123.452 127.321 124.355 127.321 124.355C127.071 125.691 126.332 127.066 125.32 128.362L130.546 125.407C130.546 125.407 131.561 126.314 131.536 126.717C131.449 128.077 130.101 130.952 130.101 130.952C130.841 130.673 131.503 130.222 132.033 129.635C132.563 129.048 132.945 128.344 133.148 127.58C133.148 127.58 135.159 128.119 135.403 128.796C136.469 131.775 133.823 135.645 133.823 135.645C135.009 135.08 135.932 133.732 136.739 132.269C136.739 132.269 139.244 133.91 138.328 135.408C137.507 136.758 131.318 142.734 128.582 142.969C126.604 143.145 125.198 142.589 121.718 142.758C121.718 142.758 123.461 141.614 124.122 140.932C124.722 140.316 125.027 138.837 125.805 138.574C126.131 138.464 126.623 139.195 126.623 139.195C127.036 139.195 129.201 138.415 130.256 136.784C130.996 135.647 130.104 133.282 130.104 133.282C126.993 135.373 121.771 136.291 120 136.291V136.289ZM148.725 129.009C147.553 132.291 145.284 135.509 142.474 138.68C149.518 135.409 155.603 131.317 160.729 126.403C158.653 127.275 156.004 127.87 152.761 128.177C156.276 124.193 158.596 119.088 160.729 113.829C158.191 115.473 155.451 116.783 152.578 117.727C152.578 117.727 157.071 108.042 158.306 102.476C159.946 95.1047 158.918 80.3086 158.918 80.3086C156.178 91.7929 151.776 101.121 145.64 109.657C145.64 109.657 143.636 116.824 140.695 121.172C139.872 122.388 137.648 124.378 137.648 124.378C138.907 124.055 143.7 122.386 144.586 121.65C145.509 120.884 148.336 117.007 148.336 117.007C147.663 123.731 146.128 128.456 144.199 132.497C145.813 131.478 147.328 130.311 148.725 129.009ZM91.2746 129.009C92.4465 132.291 94.7152 135.509 97.5254 138.68C90.4769 135.411 84.3918 131.319 79.2699 126.403C81.3465 127.275 83.9949 127.87 87.2387 128.177C83.7347 124.193 81.4027 119.088 79.2699 113.829C81.8084 115.473 84.5481 116.783 87.4215 117.727C87.4215 117.727 82.9332 108.047 81.698 102.476C80.0574 95.1047 81.0863 80.3086 81.0863 80.3086C83.8261 91.7929 88.2277 101.121 94.3637 109.657C94.3637 109.657 96.3676 116.824 99.309 121.172C100.132 122.388 102.356 124.378 102.356 124.378C101.097 124.055 96.3043 122.386 95.4183 121.65C94.4949 120.884 91.6683 117.007 91.6683 117.007C92.341 123.731 93.8762 128.456 95.8051 132.497C94.1907 131.478 92.6755 130.311 91.2793 129.009H91.2746ZM224.4 135.195C222.159 129.3 219.44 123.599 216.269 118.148L217.343 108.97C220.143 117.152 223.04 125.726 224.4 135.195ZM15.5855 135.195C17.8263 129.3 20.5456 123.599 23.716 118.148L22.6425 108.97C19.83 117.152 16.9449 125.726 15.5855 135.195ZM109.378 122.899C104.599 120.509 101.022 116.834 97.8019 113.358C97.8019 113.358 101.807 120.272 102.473 120.919C102.953 121.387 106.223 122.679 107.346 123.028C107.946 123.216 109.378 122.897 109.378 122.897V122.899ZM130.607 122.899C135.386 120.509 138.963 116.834 142.186 113.358C142.186 113.358 138.178 120.272 137.512 120.919C137.043 121.387 133.762 122.679 132.639 123.028C132.039 123.216 130.607 122.897 130.607 122.897V122.899ZM120 120.637C119.062 120.316 118.19 119.688 117.342 118.943C117.171 120.265 118.38 121.378 120 122.43C121.619 121.378 122.829 120.265 122.657 118.943C121.809 119.688 120.937 120.316 120 120.637ZM120 66.1875C120 66.1875 114.632 76.4648 111.328 80.1117C106.014 85.9593 103.45 90.2718 101.643 95.8148C101.132 90.5554 102.501 84.5132 104.604 78.2554C97.2347 86.7328 93.4473 94.1203 93.7308 100.155C93.7308 100.155 98.5847 108.569 101.643 111.968C104.107 114.708 109.612 119.468 111.635 120.626C112.434 121.08 114.037 119.848 113.882 118.952C113.564 117.131 111.907 114.431 110.177 112.334C108.548 110.355 106.856 108.975 106.193 107.266C105.021 104.25 104.648 100.938 105.724 97.8398C106.568 100.706 107.381 103.781 109.078 105.949C111.138 108.579 116.896 113.344 118.35 115.324L117.836 116.545C118.471 117.419 119.196 118.222 120 118.943C120.803 118.216 121.526 117.406 122.158 116.527L121.64 115.312C123.093 113.341 128.852 108.577 130.912 105.937C132.609 103.77 133.422 100.694 134.266 97.8281C135.351 100.917 134.969 104.238 133.797 107.255C133.136 108.963 131.454 110.344 129.813 112.322C128.083 114.419 126.426 117.119 126.107 118.941C125.953 119.836 127.556 121.069 128.355 120.614C130.387 119.442 135.883 114.696 138.346 111.956C141.393 108.558 146.259 100.144 146.259 100.144C146.543 94.1086 142.743 86.7211 135.386 78.2437C137.496 84.5015 138.857 90.5437 138.346 95.8031C136.539 90.2695 133.975 85.9593 128.662 80.1C125.35 76.4531 119.99 66.1757 119.99 66.1757L120 66.1875Z" fill="#2C0C0B"/>
<path fill-rule="evenodd" clip-rule="evenodd" d="M135.64 120C135.64 120 136.465 119.147 137.494 118.09C138.197 117.373 138.722 115.523 139.24 114.989C140.412 113.773 141.776 113.416 142.737 112.388C143.566 111.502 144.009 110.201 144.722 109.341C145.434 108.48 146.815 108.384 147.658 107.627C149.449 106.024 155.468 99.7125 155.468 99.7125C155.468 99.7125 149.297 106.666 147.656 108.356C147.082 108.952 146.09 109.139 145.683 109.861C145.195 110.73 145.235 112.045 144.511 113.1C143.726 114.246 141.9 114.78 140.651 115.976C138.89 117.659 137.59 120.525 137.59 120.525L136.345 120.837L135.642 119.998L135.64 120Z" fill="#FDCE12"/>
<path fill-rule="evenodd" clip-rule="evenodd" d="M104.36 120C104.36 120 103.535 119.147 102.506 118.09C101.803 117.373 101.278 115.523 100.76 114.989C99.5885 113.773 98.2244 113.416 97.2635 112.388C96.4338 111.502 95.9908 110.201 95.2783 109.341C94.5658 108.48 93.1853 108.384 92.3416 107.627C90.551 106.024 84.5322 99.7125 84.5322 99.7125C84.5322 99.7125 90.7033 106.666 92.3439 108.356C92.9182 108.952 93.9096 109.139 94.3174 109.861C94.8049 110.73 94.765 112.045 95.4893 113.1C96.2744 114.246 98.1002 114.78 99.3494 115.976C101.11 117.659 102.41 120.525 102.41 120.525L103.655 120.837L104.358 119.998L104.36 120Z" fill="#FDCE12"/>
<path fill-rule="evenodd" clip-rule="evenodd" d="M158.616 96.7711C158.71 96.8484 158.428 97.4742 158.299 97.6195C158.243 97.679 158.169 97.7197 158.089 97.736C158.008 97.7524 157.925 97.7436 157.849 97.7109C157.756 97.6359 157.615 97.3031 157.737 97.1578C157.859 97.0125 158.522 96.689 158.616 96.7711Z" fill="#FDCE12"/>
<path fill-rule="evenodd" clip-rule="evenodd" d="M81.385 96.7711C81.2912 96.8484 81.5725 97.4742 81.7014 97.6195C81.758 97.679 81.8315 97.7197 81.912 97.736C81.9925 97.7524 82.0761 97.7436 82.1514 97.7109C82.2452 97.6359 82.3858 97.3031 82.2639 97.1578C82.142 97.0125 81.4787 96.689 81.385 96.7711Z" fill="#FDCE12"/>
<path fill-rule="evenodd" clip-rule="evenodd" d="M182.943 117.455C183.023 117.363 183.628 117.668 183.778 117.799C183.835 117.858 183.874 117.933 183.888 118.014C183.901 118.096 183.89 118.179 183.855 118.254C183.775 118.345 183.44 118.472 183.299 118.348C183.159 118.223 182.863 117.546 182.943 117.455Z" fill="#FDCE12"/>
<path fill-rule="evenodd" clip-rule="evenodd" d="M57.0557 117.455C56.976 117.363 56.3713 117.668 56.2213 117.799C56.1634 117.858 56.125 117.933 56.1112 118.014C56.0973 118.096 56.1088 118.179 56.144 118.254C56.2236 118.345 56.5588 118.472 56.6994 118.348C56.84 118.223 57.1354 117.546 57.0557 117.455Z" fill="#FDCE12"/>
<path fill-rule="evenodd" clip-rule="evenodd" d="M199.573 140.337C198.601 139.275 197.809 138.061 197.229 136.744C196.54 135.122 196.496 132.994 195.917 132.11C194.881 130.528 192.483 129.41 191.698 128.327C191.154 127.587 190.908 125.962 190.383 125.208C189.511 123.961 186.467 120.837 186.467 120.837C186.467 120.837 188.907 124.291 189.699 125.625C190.207 126.49 190.536 128.222 191.161 129.007C191.946 129.991 193.465 131.168 194.222 132.506C195.012 133.912 195.188 135.532 195.912 137.039C196.615 138.492 198.523 141.727 198.523 141.727L199.573 140.339V140.337Z" fill="#FDCE12"/>
<path fill-rule="evenodd" clip-rule="evenodd" d="M40.4277 140.337C41.4 139.275 42.1917 138.061 42.7715 136.744C43.4605 135.122 43.5051 132.994 44.084 132.11C45.1199 130.528 47.5176 129.41 48.3027 128.327C48.8465 127.587 49.0926 125.962 49.6176 125.208C50.4894 123.961 53.534 120.837 53.534 120.837C53.534 120.837 51.0941 124.291 50.3019 125.625C49.7933 126.49 49.4652 128.222 48.8394 129.007C48.0543 129.991 46.5355 131.168 45.7785 132.506C44.9887 133.912 44.8129 135.532 44.0887 137.039C43.3855 138.492 41.4777 141.727 41.4777 141.727L40.4277 140.339V140.337Z" fill="#FDCE12"/>
</g>
<defs>
<filter id="filter0_dd_552:516" x="-9.99805" y="24.4688" width="259.996" height="199.062" filterUnits="userSpaceOnUse" color-interpolation-filters="sRGB">
<feFlood flood-opacity="0" result="BackgroundImageFix"/>
<feColorMatrix in="SourceAlpha" type="matrix" values="0 0 0 0 0 0 0 0 0 0 0 0 0 0 0 0 0 0 127 0" result="hardAlpha"/>
<feOffset dy="4"/>
<feGaussianBlur stdDeviation="5"/>
<feComposite in2="hardAlpha" operator="out"/>
<feColorMatrix type="matrix" values="0 0 0 0 0.952941 0 0 0 0 0.678431 0 0 0 0 0.337255 0 0 0 1 0"/>
<feBlend mode="normal" in2="BackgroundImageFix" result="effect1_dropShadow_552:516"/>
<feColorMatrix in="SourceAlpha" type="matrix" values="0 0 0 0 0 0 0 0 0 0 0 0 0 0 0 0 0 0 127 0" result="hardAlpha"/>
<feOffset/>
<feGaussianBlur stdDeviation="2"/>
<feComposite in2="hardAlpha" operator="out"/>
<feColorMatrix type="matrix" values="0 0 0 0 1 0 0 0 0 0.952941 0 0 0 0 0.635294 0 0 0 1 0"/>
<feBlend mode="normal" in2="effect1_dropShadow_552:516" result="effect2_dropShadow_552:516"/>
<feBlend mode="normal" in="SourceGraphic" in2="effect2_dropShadow_552:516" result="shape"/>
</filter>
<clipPath id="clip0_552:516">
<rect width="240" height="240" fill="white"/>
</clipPath>
</defs>
</svg>
