<svg width="183" height="48" viewBox="0 0 183 48" fill="none" xmlns="http://www.w3.org/2000/svg">
<path d="M57.3359 8.11523H61.3174V12.624H65.668V8.11523H69.667V21H65.668V15.7881H61.3174V21H57.3359V8.11523ZM72.3037 8.11523H82.9736V10.8662H76.2939V12.9141H82.4902V15.542H76.2939V18.082H83.167V21H72.3037V8.11523ZM85.3203 8.11523H89.3018V17.8271H95.5156V21H85.3203V8.11523ZM97.3262 8.11523H101.308V17.8271H107.521V21H97.3262V8.11523ZM109.35 8.11523H113.331V12.624H117.682V8.11523H121.681V21H117.682V15.7881H113.331V21H109.35V8.11523ZM123.825 14.5664C123.825 12.4629 124.411 10.8252 125.583 9.65332C126.755 8.48145 128.387 7.89551 130.479 7.89551C132.623 7.89551 134.275 8.47266 135.436 9.62695C136.596 10.7754 137.176 12.3867 137.176 14.4609C137.176 15.9668 136.921 17.2031 136.411 18.1699C135.907 19.1309 135.175 19.8809 134.214 20.4199C133.259 20.9531 132.066 21.2197 130.637 21.2197C129.184 21.2197 127.979 20.9883 127.024 20.5254C126.075 20.0625 125.305 19.3301 124.713 18.3281C124.121 17.3262 123.825 16.0723 123.825 14.5664ZM127.807 14.584C127.807 15.8848 128.047 16.8193 128.527 17.3877C129.014 17.9561 129.673 18.2402 130.505 18.2402C131.36 18.2402 132.022 17.9619 132.491 17.4053C132.96 16.8486 133.194 15.8496 133.194 14.4082C133.194 13.1953 132.948 12.3105 132.456 11.7539C131.97 11.1914 131.308 10.9102 130.47 10.9102C129.667 10.9102 129.022 11.1943 128.536 11.7627C128.05 12.3311 127.807 13.2715 127.807 14.584ZM147.705 8.11523H151.678V15.7969C151.678 16.5586 151.558 17.2793 151.317 17.959C151.083 18.6328 150.711 19.2246 150.201 19.7344C149.697 20.2383 149.167 20.5928 148.61 20.7979C147.837 21.085 146.908 21.2285 145.824 21.2285C145.197 21.2285 144.512 21.1846 143.768 21.0967C143.029 21.0088 142.411 20.8359 141.913 20.5781C141.415 20.3145 140.958 19.9424 140.542 19.4619C140.132 18.9814 139.851 18.4863 139.698 17.9766C139.452 17.1562 139.329 16.4297 139.329 15.7969V8.11523H143.302V15.9814C143.302 16.6846 143.495 17.2354 143.882 17.6338C144.274 18.0264 144.816 18.2227 145.508 18.2227C146.193 18.2227 146.729 18.0293 147.116 17.6426C147.509 17.25 147.705 16.6963 147.705 15.9814V8.11523ZM154.341 8.11523H158.059L162.91 15.2432V8.11523H166.663V21H162.91L158.085 13.9248V21H154.341V8.11523ZM169.361 8.11523H175.276C176.442 8.11523 177.383 8.27344 178.098 8.58984C178.818 8.90625 179.413 9.36035 179.882 9.95215C180.351 10.5439 180.69 11.2324 180.901 12.0176C181.112 12.8027 181.218 13.6348 181.218 14.5137C181.218 15.8906 181.06 16.96 180.743 17.7217C180.433 18.4775 179.999 19.1133 179.442 19.6289C178.886 20.1387 178.288 20.4785 177.649 20.6484C176.776 20.8828 175.985 21 175.276 21H169.361V8.11523ZM173.343 11.0332V18.0732H174.318C175.15 18.0732 175.742 17.9824 176.094 17.8008C176.445 17.6133 176.721 17.291 176.92 16.834C177.119 16.3711 177.219 15.624 177.219 14.5928C177.219 13.2275 176.996 12.293 176.551 11.7891C176.105 11.2852 175.367 11.0332 174.336 11.0332H173.343ZM67.875 29.5469H76.625V32.0078H71.4297V34.0078H75.8672V36.3203H71.4297V41H67.875V29.5469ZM78.6719 29.5469H82.2188V41H78.6719V29.5469ZM84.7891 29.5469H88.0938L92.4062 35.8828V29.5469H95.7422V41H92.4062L88.1172 34.7109V41H84.7891V29.5469ZM105.141 39.1094H101.109L100.555 41H96.9375L101.242 29.5469H105.102L109.406 41H105.703L105.141 39.1094ZM104.398 36.6328L103.133 32.5156L101.875 36.6328H104.398ZM110.57 29.5469H113.875L118.188 35.8828V29.5469H121.523V41H118.188L113.898 34.7109V41H110.57V29.5469ZM131.5 36.3203L134.602 37.2578C134.393 38.1276 134.065 38.8542 133.617 39.4375C133.169 40.0208 132.612 40.4609 131.945 40.7578C131.284 41.0547 130.44 41.2031 129.414 41.2031C128.169 41.2031 127.151 41.0234 126.359 40.6641C125.573 40.2995 124.893 39.6615 124.32 38.75C123.747 37.8385 123.461 36.6719 123.461 35.25C123.461 33.3542 123.964 31.8984 124.969 30.8828C125.979 29.862 127.406 29.3516 129.25 29.3516C130.693 29.3516 131.826 29.6432 132.648 30.2266C133.477 30.8099 134.091 31.7057 134.492 32.9141L131.367 33.6094C131.258 33.2604 131.143 33.0052 131.023 32.8438C130.826 32.5729 130.583 32.3646 130.297 32.2188C130.01 32.0729 129.69 32 129.336 32C128.534 32 127.919 32.3229 127.492 32.9688C127.169 33.4479 127.008 34.2005 127.008 35.2266C127.008 36.4974 127.201 37.3698 127.586 37.8438C127.971 38.3125 128.513 38.5469 129.211 38.5469C129.888 38.5469 130.398 38.3568 130.742 37.9766C131.091 37.5964 131.344 37.0443 131.5 36.3203ZM136.32 29.5469H145.805V31.9922H139.867V33.8125H145.375V36.1484H139.867V38.4062H145.977V41H136.32V29.5469Z" fill="#2C0C0B"/>
<path d="M57.3359 8.11523V7.11523H56.3359V8.11523H57.3359ZM61.3174 8.11523H62.3174V7.11523H61.3174V8.11523ZM61.3174 12.624H60.3174V13.624H61.3174V12.624ZM65.668 12.624V13.624H66.668V12.624H65.668ZM65.668 8.11523V7.11523H64.668V8.11523H65.668ZM69.667 8.11523H70.667V7.11523H69.667V8.11523ZM69.667 21V22H70.667V21H69.667ZM65.668 21H64.668V22H65.668V21ZM65.668 15.7881H66.668V14.7881H65.668V15.7881ZM61.3174 15.7881V14.7881H60.3174V15.7881H61.3174ZM61.3174 21V22H62.3174V21H61.3174ZM57.3359 21H56.3359V22H57.3359V21ZM57.3359 9.11523H61.3174V7.11523H57.3359V9.11523ZM60.3174 8.11523V12.624H62.3174V8.11523H60.3174ZM61.3174 13.624H65.668V11.624H61.3174V13.624ZM66.668 12.624V8.11523H64.668V12.624H66.668ZM65.668 9.11523H69.667V7.11523H65.668V9.11523ZM68.667 8.11523V21H70.667V8.11523H68.667ZM69.667 20H65.668V22H69.667V20ZM66.668 21V15.7881H64.668V21H66.668ZM65.668 14.7881H61.3174V16.7881H65.668V14.7881ZM60.3174 15.7881V21H62.3174V15.7881H60.3174ZM61.3174 20H57.3359V22H61.3174V20ZM58.3359 21V8.11523H56.3359V21H58.3359ZM72.3037 8.11523V7.11523H71.3037V8.11523H72.3037ZM82.9736 8.11523H83.9736V7.11523H82.9736V8.11523ZM82.9736 10.8662V11.8662H83.9736V10.8662H82.9736ZM76.2939 10.8662V9.86621H75.2939V10.8662H76.2939ZM76.2939 12.9141H75.2939V13.9141H76.2939V12.9141ZM82.4902 12.9141H83.4902V11.9141H82.4902V12.9141ZM82.4902 15.542V16.542H83.4902V15.542H82.4902ZM76.2939 15.542V14.542H75.2939V15.542H76.2939ZM76.2939 18.082H75.2939V19.082H76.2939V18.082ZM83.167 18.082H84.167V17.082H83.167V18.082ZM83.167 21V22H84.167V21H83.167ZM72.3037 21H71.3037V22H72.3037V21ZM72.3037 9.11523H82.9736V7.11523H72.3037V9.11523ZM81.9736 8.11523V10.8662H83.9736V8.11523H81.9736ZM82.9736 9.86621H76.2939V11.8662H82.9736V9.86621ZM75.2939 10.8662V12.9141H77.2939V10.8662H75.2939ZM76.2939 13.9141H82.4902V11.9141H76.2939V13.9141ZM81.4902 12.9141V15.542H83.4902V12.9141H81.4902ZM82.4902 14.542H76.2939V16.542H82.4902V14.542ZM75.2939 15.542V18.082H77.2939V15.542H75.2939ZM76.2939 19.082H83.167V17.082H76.2939V19.082ZM82.167 18.082V21H84.167V18.082H82.167ZM83.167 20H72.3037V22H83.167V20ZM73.3037 21V8.11523H71.3037V21H73.3037ZM85.3203 8.11523V7.11523H84.3203V8.11523H85.3203ZM89.3018 8.11523H90.3018V7.11523H89.3018V8.11523ZM89.3018 17.8271H88.3018V18.8271H89.3018V17.8271ZM95.5156 17.8271H96.5156V16.8271H95.5156V17.8271ZM95.5156 21V22H96.5156V21H95.5156ZM85.3203 21H84.3203V22H85.3203V21ZM85.3203 9.11523H89.3018V7.11523H85.3203V9.11523ZM88.3018 8.11523V17.8271H90.3018V8.11523H88.3018ZM89.3018 18.8271H95.5156V16.8271H89.3018V18.8271ZM94.5156 17.8271V21H96.5156V17.8271H94.5156ZM95.5156 20H85.3203V22H95.5156V20ZM86.3203 21V8.11523H84.3203V21H86.3203ZM97.3262 8.11523V7.11523H96.3262V8.11523H97.3262ZM101.308 8.11523H102.308V7.11523H101.308V8.11523ZM101.308 17.8271H100.308V18.8271H101.308V17.8271ZM107.521 17.8271H108.521V16.8271H107.521V17.8271ZM107.521 21V22H108.521V21H107.521ZM97.3262 21H96.3262V22H97.3262V21ZM97.3262 9.11523H101.308V7.11523H97.3262V9.11523ZM100.308 8.11523V17.8271H102.308V8.11523H100.308ZM101.308 18.8271H107.521V16.8271H101.308V18.8271ZM106.521 17.8271V21H108.521V17.8271H106.521ZM107.521 20H97.3262V22H107.521V20ZM98.3262 21V8.11523H96.3262V21H98.3262ZM109.35 8.11523V7.11523H108.35V8.11523H109.35ZM113.331 8.11523H114.331V7.11523H113.331V8.11523ZM113.331 12.624H112.331V13.624H113.331V12.624ZM117.682 12.624V13.624H118.682V12.624H117.682ZM117.682 8.11523V7.11523H116.682V8.11523H117.682ZM121.681 8.11523H122.681V7.11523H121.681V8.11523ZM121.681 21V22H122.681V21H121.681ZM117.682 21H116.682V22H117.682V21ZM117.682 15.7881H118.682V14.7881H117.682V15.7881ZM113.331 15.7881V14.7881H112.331V15.7881H113.331ZM113.331 21V22H114.331V21H113.331ZM109.35 21H108.35V22H109.35V21ZM109.35 9.11523H113.331V7.11523H109.35V9.11523ZM112.331 8.11523V12.624H114.331V8.11523H112.331ZM113.331 13.624H117.682V11.624H113.331V13.624ZM118.682 12.624V8.11523H116.682V12.624H118.682ZM117.682 9.11523H121.681V7.11523H117.682V9.11523ZM120.681 8.11523V21H122.681V8.11523H120.681ZM121.681 20H117.682V22H121.681V20ZM118.682 21V15.7881H116.682V21H118.682ZM117.682 14.7881H113.331V16.7881H117.682V14.7881ZM112.331 15.7881V21H114.331V15.7881H112.331ZM113.331 20H109.35V22H113.331V20ZM110.35 21V8.11523H108.35V21H110.35ZM135.436 9.62695L134.73 10.3359L134.732 10.3376L135.436 9.62695ZM136.411 18.1699L135.527 17.7035L135.526 17.7055L136.411 18.1699ZM134.214 20.4199L134.701 21.2931L134.703 21.2921L134.214 20.4199ZM127.024 20.5254L126.586 21.4242L126.588 21.4253L127.024 20.5254ZM128.527 17.3877L127.764 18.0333L127.768 18.0378L128.527 17.3877ZM132.456 11.7539L131.7 12.408L131.707 12.4163L132.456 11.7539ZM124.825 14.5664C124.825 12.6531 125.353 11.2976 126.29 10.3604L124.876 8.94621C123.469 10.3527 122.825 12.2727 122.825 14.5664H124.825ZM126.29 10.3604C127.228 9.42219 128.579 8.89551 130.479 8.89551V6.89551C128.195 6.89551 126.281 7.5407 124.876 8.94621L126.29 10.3604ZM130.479 8.89551C132.444 8.89551 133.81 9.42054 134.73 10.3358L136.141 8.91806C134.741 7.52478 132.802 6.89551 130.479 6.89551V8.89551ZM134.732 10.3376C135.655 11.2508 136.176 12.5777 136.176 14.4609H138.176C138.176 12.1958 137.537 10.3 136.139 8.91627L134.732 10.3376ZM136.176 14.4609C136.176 15.8625 135.937 16.9244 135.527 17.7035L137.296 18.6363C137.904 17.4818 138.176 16.0711 138.176 14.4609H136.176ZM135.526 17.7055C135.113 18.4923 134.52 19.1019 133.725 19.5478L134.703 21.2921C135.83 20.6599 136.701 19.7695 137.297 18.6343L135.526 17.7055ZM133.726 19.5468C132.959 19.9751 131.947 20.2197 130.637 20.2197V22.2197C132.186 22.2197 133.558 21.9312 134.701 21.2931L133.726 19.5468ZM130.637 20.2197C129.282 20.2197 128.239 20.0028 127.461 19.6255L126.588 21.4253C127.72 21.9737 129.085 22.2197 130.637 22.2197V20.2197ZM127.463 19.6266C126.707 19.2582 126.077 18.6707 125.574 17.8196L123.852 18.8367C124.533 19.9895 125.443 20.8668 126.586 21.4242L127.463 19.6266ZM125.574 17.8196C125.096 17.0106 124.825 15.9449 124.825 14.5664H122.825C122.825 16.1997 123.146 17.6417 123.852 18.8367L125.574 17.8196ZM126.807 14.584C126.807 15.9613 127.052 17.1915 127.764 18.0333L129.291 16.7421C129.042 16.4471 128.807 15.8083 128.807 14.584H126.807ZM127.768 18.0378C128.467 18.8548 129.418 19.2402 130.505 19.2402V17.2402C129.928 17.2402 129.561 17.0573 129.287 16.7375L127.768 18.0378ZM130.505 19.2402C131.598 19.2402 132.563 18.8722 133.256 18.0494L131.726 16.7611C131.482 17.0517 131.123 17.2402 130.505 17.2402V19.2402ZM133.256 18.0494C133.968 17.2043 134.194 15.8884 134.194 14.4082H132.194C132.194 15.8109 131.952 16.493 131.726 16.7611L133.256 18.0494ZM134.194 14.4082C134.194 13.096 133.934 11.9161 133.205 11.0915L131.707 12.4163C131.962 12.705 132.194 13.2947 132.194 14.4082H134.194ZM133.213 11.0999C132.511 10.2883 131.557 9.91016 130.47 9.91016V11.9102C131.058 11.9102 131.429 12.0945 131.7 12.4079L133.213 11.0999ZM130.47 9.91016C129.399 9.91016 128.468 10.3044 127.776 11.1125L129.296 12.4128C129.577 12.0843 129.935 11.9102 130.47 11.9102V9.91016ZM127.776 11.1125C127.055 11.956 126.807 13.1957 126.807 14.584H128.807C128.807 13.3472 129.045 12.7062 129.296 12.4128L127.776 11.1125ZM147.705 8.11523V7.11523H146.705V8.11523H147.705ZM151.678 8.11523H152.678V7.11523H151.678V8.11523ZM151.317 17.959L150.375 17.6257L150.373 17.6305L151.317 17.959ZM148.61 20.7979L148.265 19.8595L148.262 19.8604L148.61 20.7979ZM143.768 21.0967L143.649 22.0897L143.65 22.0898L143.768 21.0967ZM141.913 20.5781L141.445 21.462L141.453 21.4662L141.913 20.5781ZM140.542 19.4619L139.781 20.1112L139.786 20.1165L140.542 19.4619ZM139.698 17.9766L140.656 17.6902L140.656 17.6892L139.698 17.9766ZM139.329 8.11523V7.11523H138.329V8.11523H139.329ZM143.302 8.11523H144.302V7.11523H143.302V8.11523ZM143.882 17.6338L143.164 18.3303L143.169 18.3356L143.175 18.3409L143.882 17.6338ZM147.705 9.11523H151.678V7.11523H147.705V9.11523ZM150.678 8.11523V15.7969H152.678V8.11523H150.678ZM150.678 15.7969C150.678 16.4516 150.575 17.059 150.375 17.6257L152.26 18.2922C152.54 17.4996 152.678 16.6656 152.678 15.7969H150.678ZM150.373 17.6305C150.189 18.1603 149.898 18.623 149.494 19.0273L150.908 20.4415C151.524 19.8262 151.977 19.1054 152.262 18.2875L150.373 17.6305ZM149.494 19.0273C149.072 19.4491 148.661 19.7135 148.265 19.8595L148.956 21.7362C149.673 21.472 150.322 21.0274 150.908 20.4415L149.494 19.0273ZM148.262 19.8604C147.629 20.0954 146.825 20.2285 145.824 20.2285V22.2285C146.992 22.2285 148.045 22.0745 148.958 21.7353L148.262 19.8604ZM145.824 20.2285C145.243 20.2285 144.597 20.1877 143.885 20.1036L143.65 22.0898C144.426 22.1814 145.151 22.2285 145.824 22.2285V20.2285ZM143.886 20.1037C143.23 20.0256 142.736 19.878 142.373 19.6901L141.453 21.4662C142.086 21.7939 142.828 21.9919 143.649 22.0897L143.886 20.1037ZM142.381 19.6943C142.005 19.4955 141.643 19.2061 141.298 18.8073L139.786 20.1165C140.273 20.6787 140.825 21.1334 141.445 21.4619L142.381 19.6943ZM141.303 18.8127C140.966 18.4185 140.762 18.044 140.656 17.6902L138.74 18.2629C138.939 18.9287 139.298 19.5444 139.781 20.1112L141.303 18.8127ZM140.656 17.6892C140.429 16.9315 140.329 16.3049 140.329 15.7969H138.329C138.329 16.5545 138.476 17.381 138.74 18.2639L140.656 17.6892ZM140.329 15.7969V8.11523H138.329V15.7969H140.329ZM139.329 9.11523H143.302V7.11523H139.329V9.11523ZM142.302 8.11523V15.9814H144.302V8.11523H142.302ZM142.302 15.9814C142.302 16.8721 142.552 17.699 143.164 18.3303L144.599 16.9373C144.439 16.7717 144.302 16.497 144.302 15.9814H142.302ZM143.175 18.3409C143.798 18.9646 144.62 19.2227 145.508 19.2227V17.2227C145.013 17.2227 144.75 17.0881 144.589 16.9267L143.175 18.3409ZM145.508 19.2227C146.388 19.2227 147.204 18.9688 147.823 18.3497L146.409 16.9355C146.255 17.0898 145.999 17.2227 145.508 17.2227V19.2227ZM147.823 18.3497C148.453 17.7198 148.705 16.8817 148.705 15.9814H146.705C146.705 16.5108 146.564 16.7802 146.409 16.9355L147.823 18.3497ZM148.705 15.9814V8.11523H146.705V15.9814H148.705ZM154.341 8.11523V7.11523H153.341V8.11523H154.341ZM158.059 8.11523L158.885 7.55256L158.588 7.11523H158.059V8.11523ZM162.91 15.2432L162.083 15.8058L163.91 18.4896V15.2432H162.91ZM162.91 8.11523V7.11523H161.91V8.11523H162.91ZM166.663 8.11523H167.663V7.11523H166.663V8.11523ZM166.663 21V22H167.663V21H166.663ZM162.91 21L162.084 21.5634L162.382 22H162.91V21ZM158.085 13.9248L158.911 13.3614L157.085 10.6837V13.9248H158.085ZM158.085 21V22H159.085V21H158.085ZM154.341 21H153.341V22H154.341V21ZM154.341 9.11523H158.059V7.11523H154.341V9.11523ZM157.232 8.67791L162.083 15.8058L163.737 14.6805L158.885 7.55256L157.232 8.67791ZM163.91 15.2432V8.11523H161.91V15.2432H163.91ZM162.91 9.11523H166.663V7.11523H162.91V9.11523ZM165.663 8.11523V21H167.663V8.11523H165.663ZM166.663 20H162.91V22H166.663V20ZM163.736 20.4366L158.911 13.3614L157.259 14.4882L162.084 21.5634L163.736 20.4366ZM157.085 13.9248V21H159.085V13.9248H157.085ZM158.085 20H154.341V22H158.085V20ZM155.341 21V8.11523H153.341V21H155.341ZM169.361 8.11523V7.11523H168.361V8.11523H169.361ZM178.098 8.58984L177.693 9.50428L177.696 9.50549L178.098 8.58984ZM180.743 17.7217L179.82 17.3381L179.818 17.3417L180.743 17.7217ZM179.442 19.6289L180.118 20.3664L180.122 20.3625L179.442 19.6289ZM177.649 20.6484L177.392 19.6821L177.39 19.6826L177.649 20.6484ZM169.361 21H168.361V22H169.361V21ZM173.343 11.0332V10.0332H172.343V11.0332H173.343ZM173.343 18.0732H172.343V19.0732H173.343V18.0732ZM176.094 17.8008L176.553 18.6893L176.564 18.6831L176.094 17.8008ZM176.92 16.834L177.837 17.2336L177.838 17.2293L176.92 16.834ZM169.361 9.11523H175.276V7.11523H169.361V9.11523ZM175.276 9.11523C176.365 9.11523 177.152 9.26501 177.693 9.50427L178.502 7.67542C177.613 7.28186 176.519 7.11523 175.276 7.11523V9.11523ZM177.696 9.50549C178.274 9.75918 178.735 10.1147 179.098 10.5731L180.666 9.33125C180.091 8.60599 179.363 8.05332 178.5 7.6742L177.696 9.50549ZM179.098 10.5731C179.476 11.05 179.757 11.6133 179.936 12.277L181.867 11.7581C181.624 10.8516 181.225 10.0379 180.666 9.33125L179.098 10.5731ZM179.936 12.277C180.122 12.971 180.218 13.7153 180.218 14.5137H182.218C182.218 13.5542 182.103 12.6344 181.867 11.7581L179.936 12.277ZM180.218 14.5137C180.218 15.8354 180.063 16.7528 179.82 17.3381L181.667 18.1053C182.056 17.1671 182.218 15.9459 182.218 14.5137H180.218ZM179.818 17.3417C179.558 17.9737 179.205 18.4858 178.763 18.8953L180.122 20.3625C180.793 19.7408 181.307 18.9813 181.668 18.1017L179.818 17.3417ZM178.767 18.8914C178.312 19.3079 177.854 19.5592 177.392 19.6821L177.907 21.6148C178.722 21.3979 179.459 20.9695 180.118 20.3664L178.767 18.8914ZM177.39 19.6826C176.58 19.9002 175.878 20 175.276 20V22C176.093 22 176.973 21.8654 177.909 21.6142L177.39 19.6826ZM175.276 20H169.361V22H175.276V20ZM170.361 21V8.11523H168.361V21H170.361ZM172.343 11.0332V18.0732H174.343V11.0332H172.343ZM173.343 19.0732H174.318V17.0732H173.343V19.0732ZM174.318 19.0732C175.171 19.0732 175.973 18.9888 176.553 18.6892L175.635 16.9124C175.511 16.9761 175.13 17.0732 174.318 17.0732V19.0732ZM176.564 18.6831C177.16 18.3652 177.57 17.8442 177.837 17.2336L176.003 16.4344C175.871 16.7379 175.73 16.8613 175.623 16.9184L176.564 18.6831ZM177.838 17.2293C178.123 16.5684 178.219 15.6474 178.219 14.5928H176.219C176.219 15.6007 176.115 16.1738 176.001 16.4387L177.838 17.2293ZM178.219 14.5928C178.219 13.1964 178.007 11.9268 177.3 11.1269L175.801 12.4513C175.985 12.6591 176.219 13.2587 176.219 14.5928H178.219ZM177.3 11.1269C176.583 10.3155 175.501 10.0332 174.336 10.0332V12.0332C175.233 12.0332 175.628 12.2548 175.801 12.4513L177.3 11.1269ZM174.336 10.0332H173.343V12.0332H174.336V10.0332ZM67.875 29.5469V28.5469H66.875V29.5469H67.875ZM76.625 29.5469H77.625V28.5469H76.625V29.5469ZM76.625 32.0078V33.0078H77.625V32.0078H76.625ZM71.4297 32.0078V31.0078H70.4297V32.0078H71.4297ZM71.4297 34.0078H70.4297V35.0078H71.4297V34.0078ZM75.8672 34.0078H76.8672V33.0078H75.8672V34.0078ZM75.8672 36.3203V37.3203H76.8672V36.3203H75.8672ZM71.4297 36.3203V35.3203H70.4297V36.3203H71.4297ZM71.4297 41V42H72.4297V41H71.4297ZM67.875 41H66.875V42H67.875V41ZM67.875 30.5469H76.625V28.5469H67.875V30.5469ZM75.625 29.5469V32.0078H77.625V29.5469H75.625ZM76.625 31.0078H71.4297V33.0078H76.625V31.0078ZM70.4297 32.0078V34.0078H72.4297V32.0078H70.4297ZM71.4297 35.0078H75.8672V33.0078H71.4297V35.0078ZM74.8672 34.0078V36.3203H76.8672V34.0078H74.8672ZM75.8672 35.3203H71.4297V37.3203H75.8672V35.3203ZM70.4297 36.3203V41H72.4297V36.3203H70.4297ZM71.4297 40H67.875V42H71.4297V40ZM68.875 41V29.5469H66.875V41H68.875ZM78.6719 29.5469V28.5469H77.6719V29.5469H78.6719ZM82.2188 29.5469H83.2188V28.5469H82.2188V29.5469ZM82.2188 41V42H83.2188V41H82.2188ZM78.6719 41H77.6719V42H78.6719V41ZM78.6719 30.5469H82.2188V28.5469H78.6719V30.5469ZM81.2188 29.5469V41H83.2188V29.5469H81.2188ZM82.2188 40H78.6719V42H82.2188V40ZM79.6719 41V29.5469H77.6719V41H79.6719ZM84.7891 29.5469V28.5469H83.7891V29.5469H84.7891ZM88.0938 29.5469L88.9204 28.9842L88.6228 28.5469H88.0938V29.5469ZM92.4062 35.8828L91.5796 36.4455L93.4062 39.1292V35.8828H92.4062ZM92.4062 29.5469V28.5469H91.4062V29.5469H92.4062ZM95.7422 29.5469H96.7422V28.5469H95.7422V29.5469ZM95.7422 41V42H96.7422V41H95.7422ZM92.4062 41L91.5801 41.5634L91.8778 42H92.4062V41ZM88.1172 34.7109L88.9433 34.1475L87.1172 31.4698V34.7109H88.1172ZM88.1172 41V42H89.1172V41H88.1172ZM84.7891 41H83.7891V42H84.7891V41ZM84.7891 30.5469H88.0938V28.5469H84.7891V30.5469ZM87.2671 30.1095L91.5796 36.4455L93.2329 35.3201L88.9204 28.9842L87.2671 30.1095ZM93.4062 35.8828V29.5469H91.4062V35.8828H93.4062ZM92.4062 30.5469H95.7422V28.5469H92.4062V30.5469ZM94.7422 29.5469V41H96.7422V29.5469H94.7422ZM95.7422 40H92.4062V42H95.7422V40ZM93.2324 40.4366L88.9433 34.1475L87.291 35.2744L91.5801 41.5634L93.2324 40.4366ZM87.1172 34.7109V41H89.1172V34.7109H87.1172ZM88.1172 40H84.7891V42H88.1172V40ZM85.7891 41V29.5469H83.7891V41H85.7891ZM105.141 39.1094L106.099 38.8242L105.886 38.1094H105.141V39.1094ZM101.109 39.1094V38.1094H100.361L100.15 38.8279L101.109 39.1094ZM100.555 41V42H101.303L101.514 41.2815L100.555 41ZM96.9375 41L96.0014 40.6482L95.4933 42H96.9375V41ZM101.242 29.5469V28.5469H100.55L100.306 29.1951L101.242 29.5469ZM105.102 29.5469L106.038 29.1951L105.794 28.5469H105.102V29.5469ZM109.406 41V42H110.85L110.342 40.6482L109.406 41ZM105.703 41L104.745 41.2852L104.957 42H105.703V41ZM104.398 36.6328V37.6328H105.752L105.354 36.339L104.398 36.6328ZM103.133 32.5156L104.089 32.2218L103.13 29.1027L102.176 32.2235L103.133 32.5156ZM101.875 36.6328L100.919 36.3406L100.524 37.6328H101.875V36.6328ZM105.141 38.1094H101.109V40.1094H105.141V38.1094ZM100.15 38.8279L99.5951 40.7185L101.514 41.2815L102.069 39.3909L100.15 38.8279ZM100.555 40H96.9375V42H100.555V40ZM97.8736 41.3518L102.178 29.8987L100.306 29.1951L96.0014 40.6482L97.8736 41.3518ZM101.242 30.5469H105.102V28.5469H101.242V30.5469ZM104.165 29.8987L108.47 41.3518L110.342 40.6482L106.038 29.1951L104.165 29.8987ZM109.406 40H105.703V42H109.406V40ZM106.662 40.7148L106.099 38.8242L104.182 39.3945L104.745 41.2852L106.662 40.7148ZM105.354 36.339L104.089 32.2218L102.177 32.8095L103.443 36.9266L105.354 36.339ZM102.176 32.2235L100.919 36.3406L102.831 36.925L104.089 32.8078L102.176 32.2235ZM101.875 37.6328H104.398V35.6328H101.875V37.6328ZM110.57 29.5469V28.5469H109.57V29.5469H110.57ZM113.875 29.5469L114.702 28.9842L114.404 28.5469H113.875V29.5469ZM118.188 35.8828L117.361 36.4455L119.188 39.1292V35.8828H118.188ZM118.188 29.5469V28.5469H117.188V29.5469H118.188ZM121.523 29.5469H122.523V28.5469H121.523V29.5469ZM121.523 41V42H122.523V41H121.523ZM118.188 41L117.361 41.5634L117.659 42H118.188V41ZM113.898 34.7109L114.725 34.1475L112.898 31.4698V34.7109H113.898ZM113.898 41V42H114.898V41H113.898ZM110.57 41H109.57V42H110.57V41ZM110.57 30.5469H113.875V28.5469H110.57V30.5469ZM113.048 30.1095L117.361 36.4455L119.014 35.3201L114.702 28.9842L113.048 30.1095ZM119.188 35.8828V29.5469H117.188V35.8828H119.188ZM118.188 30.5469H121.523V28.5469H118.188V30.5469ZM120.523 29.5469V41H122.523V29.5469H120.523ZM121.523 40H118.188V42H121.523V40ZM119.014 40.4366L114.725 34.1475L113.072 35.2744L117.361 41.5634L119.014 40.4366ZM112.898 34.7109V41H114.898V34.7109H112.898ZM113.898 40H110.57V42H113.898V40ZM111.57 41V29.5469H109.57V41H111.57ZM131.5 36.3203L131.789 35.3631L130.751 35.0493L130.523 36.1093L131.5 36.3203ZM134.602 37.2578L135.574 37.4907L135.794 36.5735L134.891 36.3006L134.602 37.2578ZM131.945 40.7578L131.539 39.8443L131.536 39.8455L131.945 40.7578ZM126.359 40.6641L125.939 41.5713L125.946 41.5746L126.359 40.6641ZM124.969 30.8828L124.258 30.1793L124.258 30.1794L124.969 30.8828ZM132.648 30.2266L132.07 31.0424L132.073 31.0441L132.648 30.2266ZM134.492 32.9141L134.709 33.8902L135.79 33.6498L135.441 32.5991L134.492 32.9141ZM131.367 33.6094L130.413 33.9085L130.688 34.785L131.584 34.5855L131.367 33.6094ZM131.023 32.8438L130.216 33.4338L130.22 33.4396L131.023 32.8438ZM127.492 32.9688L128.321 33.5276L128.326 33.5203L127.492 32.9688ZM127.586 37.8438L126.81 38.4747L126.814 38.4789L127.586 37.8438ZM130.742 37.9766L130.005 37.3004L130 37.3059L130.742 37.9766ZM131.211 37.2775L134.312 38.215L134.891 36.3006L131.789 35.3631L131.211 37.2775ZM133.629 37.0249C133.447 37.787 133.17 38.3779 132.824 38.8285L134.41 40.0465C134.96 39.3305 135.34 38.4682 135.574 37.4907L133.629 37.0249ZM132.824 38.8285C132.477 39.2808 132.052 39.6157 131.539 39.8443L132.352 41.6713C133.172 41.3062 133.862 40.7609 134.41 40.0465L132.824 38.8285ZM131.536 39.8455C131.045 40.0658 130.353 40.2031 129.414 40.2031V42.2031C130.527 42.2031 131.523 42.0436 132.355 41.6701L131.536 39.8455ZM129.414 40.2031C128.255 40.2031 127.391 40.0342 126.773 39.7535L125.946 41.5746C126.911 42.0127 128.084 42.2031 129.414 42.2031V40.2031ZM126.78 39.7568C126.207 39.4911 125.662 39.0053 125.167 38.2178L123.474 39.2822C124.125 40.3176 124.939 41.1078 125.939 41.5713L126.78 39.7568ZM125.167 38.2178C124.722 37.5093 124.461 36.5426 124.461 35.25H122.461C122.461 36.8011 122.773 38.1678 123.474 39.2822L125.167 38.2178ZM124.461 35.25C124.461 33.5287 124.914 32.3597 125.679 31.5863L124.258 30.1794C123.013 31.4371 122.461 33.1797 122.461 35.25H124.461ZM125.679 31.5863C126.453 30.8051 127.594 30.3516 129.25 30.3516V28.3516C127.219 28.3516 125.506 28.9189 124.258 30.1793L125.679 31.5863ZM129.25 30.3516C130.571 30.3516 131.475 30.6204 132.07 31.0424L133.227 29.4107C132.176 28.6661 130.814 28.3516 129.25 28.3516V30.3516ZM132.073 31.0441C132.685 31.4756 133.192 32.1711 133.543 33.2291L135.441 32.5991C134.99 31.2404 134.268 30.1442 133.224 29.409L132.073 31.0441ZM134.275 31.9379L131.15 32.6332L131.584 34.5855L134.709 33.8902L134.275 31.9379ZM132.321 33.3103C132.201 32.9271 132.047 32.5446 131.827 32.2479L130.22 33.4396C130.24 33.4658 130.314 33.5938 130.413 33.9085L132.321 33.3103ZM131.831 32.2537C131.544 31.8618 131.183 31.5478 130.751 31.3276L129.843 33.1099C129.984 33.1814 130.107 33.284 130.216 33.4338L131.831 32.2537ZM130.751 31.3276C130.31 31.1032 129.831 31 129.336 31V33C129.549 33 129.711 33.0427 129.843 33.1099L130.751 31.3276ZM129.336 31C128.213 31 127.278 31.4795 126.658 32.4172L128.326 33.5203C128.56 33.1664 128.855 33 129.336 33V31ZM126.663 32.4099C126.172 33.1388 126.008 34.1365 126.008 35.2266H128.008C128.008 34.2645 128.167 33.757 128.321 33.5276L126.663 32.4099ZM126.008 35.2266C126.008 36.5217 126.189 37.7104 126.81 38.4747L128.362 37.2128C128.212 37.0292 128.008 36.4731 128.008 35.2266H126.008ZM126.814 38.4789C127.419 39.2149 128.264 39.5469 129.211 39.5469V37.5469C128.762 37.5469 128.524 37.4101 128.358 37.2086L126.814 38.4789ZM129.211 39.5469C130.075 39.5469 130.895 39.2989 131.484 38.6472L130 37.3059C129.902 37.4147 129.701 37.5469 129.211 37.5469V39.5469ZM131.479 38.6527C131.989 38.0967 132.299 37.3577 132.477 36.5313L130.523 36.1093C130.388 36.7308 130.193 37.096 130.005 37.3004L131.479 38.6527ZM136.32 29.5469V28.5469H135.32V29.5469H136.32ZM145.805 29.5469H146.805V28.5469H145.805V29.5469ZM145.805 31.9922V32.9922H146.805V31.9922H145.805ZM139.867 31.9922V30.9922H138.867V31.9922H139.867ZM139.867 33.8125H138.867V34.8125H139.867V33.8125ZM145.375 33.8125H146.375V32.8125H145.375V33.8125ZM145.375 36.1484V37.1484H146.375V36.1484H145.375ZM139.867 36.1484V35.1484H138.867V36.1484H139.867ZM139.867 38.4062H138.867V39.4062H139.867V38.4062ZM145.977 38.4062H146.977V37.4062H145.977V38.4062ZM145.977 41V42H146.977V41H145.977ZM136.32 41H135.32V42H136.32V41ZM136.32 30.5469H145.805V28.5469H136.32V30.5469ZM144.805 29.5469V31.9922H146.805V29.5469H144.805ZM145.805 30.9922H139.867V32.9922H145.805V30.9922ZM138.867 31.9922V33.8125H140.867V31.9922H138.867ZM139.867 34.8125H145.375V32.8125H139.867V34.8125ZM144.375 33.8125V36.1484H146.375V33.8125H144.375ZM145.375 35.1484H139.867V37.1484H145.375V35.1484ZM138.867 36.1484V38.4062H140.867V36.1484H138.867ZM139.867 39.4062H145.977V37.4062H139.867V39.4062ZM144.977 38.4062V41H146.977V38.4062H144.977ZM145.977 40H136.32V42H145.977V40ZM137.32 41V29.5469H135.32V41H137.32Z" fill="#FC9E12"/>
<g clip-path="url(#clip0_711:4489)">
<path fill-rule="evenodd" clip-rule="evenodd" d="M6.28612 44.2729C6.28612 44.2729 5.57883 43.6252 4.67119 43.382C3.93201 43.1844 2.45986 43.1529 2.19764 42.0515C2.10427 41.6578 2.37543 41.0034 2.89092 41.0116C3.61338 41.0229 3.5912 41.8321 3.5912 41.8321C3.5912 41.8321 3.27996 41.1987 2.89092 41.5154C2.73063 41.6469 2.78121 42.011 3.02397 42.1616C3.34688 42.3623 4.80269 42.4429 4.80269 42.4429L5.72939 43.382L6.28612 44.2729Z" fill="#FC9E12"/>
<path fill-rule="evenodd" clip-rule="evenodd" d="M58.1396 44.2729C58.1396 44.2729 58.8469 43.6252 59.7546 43.382C60.4938 43.1844 61.9659 43.1529 62.2281 42.0515C62.3215 41.6578 62.0503 41.0034 61.5348 41.0116C60.8124 41.0229 60.8346 41.8321 60.8346 41.8321C60.8346 41.8321 61.1458 41.1987 61.5348 41.5154C61.6951 41.6469 61.6446 42.011 61.4018 42.1616C61.0789 42.3623 59.6231 42.4429 59.6231 42.4429L58.6964 43.382L58.1396 44.2729Z" fill="#FC9E12"/>
<path fill-rule="evenodd" clip-rule="evenodd" d="M13.7126 14.3978C15.9189 12.5043 18.5461 9.78021 17.6548 7.56498C18.8924 9.4429 17.7439 11.4943 16.4589 13.191H16.1508L13.7126 14.397V14.3978Z" fill="#FC9E12"/>
<path fill-rule="evenodd" clip-rule="evenodd" d="M50.713 14.3978C48.5063 12.5043 45.8795 9.78021 46.7708 7.56498C45.5333 9.4429 46.6817 11.4943 47.9667 13.191H48.2749L50.713 14.397V14.3978Z" fill="#FC9E12"/>
<path fill-rule="evenodd" clip-rule="evenodd" d="M19.397 14.0885C19.397 14.0885 19.5849 13.1159 19.4444 12.4646C19.3005 11.7951 18.385 10.3385 19.397 9.11882C19.2374 10.0969 19.3794 10.9045 19.795 11.5177C19.795 11.5177 19.3133 8.84688 20.8294 7.12147C22.4584 5.26534 24.434 3.79319 24.7129 1.41457C24.9592 2.39146 24.8685 3.57921 23.8294 5.36337C24.9576 5.24666 25.4653 5.92982 25.1385 6.69235C24.895 5.7781 23.9803 5.93371 23.4656 6.20332C21.8157 7.06583 21.8421 8.53759 21.8421 8.53759L21.4426 9.77048L20.2482 12.2899L19.397 14.09V14.0885Z" fill="#FC9E12"/>
<path fill-rule="evenodd" clip-rule="evenodd" d="M45.0289 14.0885C45.0289 14.0885 44.841 13.1159 44.9814 12.4646C45.1253 11.7951 46.0408 10.3385 45.0289 9.11883C45.1884 10.0969 45.0464 10.9045 44.6309 11.5177C44.6309 11.5177 45.1125 8.84689 43.5964 7.12147C41.9675 5.26495 39.9938 3.7928 39.7129 1.41418C39.4667 2.39107 39.5573 3.57883 40.5965 5.36299C39.4682 5.24627 38.9625 5.92944 39.2873 6.69196C39.5309 5.77771 40.4455 5.93333 40.9602 6.20293C42.6102 7.06545 42.5837 8.5372 42.5837 8.5372L42.9833 9.77009L44.1776 12.2899L45.0289 14.09V14.0885Z" fill="#FC9E12"/>
<path fill-rule="evenodd" clip-rule="evenodd" d="M26.4515 5.88158C26.4515 5.88158 26.9067 4.71639 26.0769 4.38104C25.505 4.15033 25.4641 4.65804 25.6369 4.79226C25.3657 4.71756 25.2646 4.43122 25.347 4.1978C25.5602 3.59166 26.5114 3.78152 26.8165 4.00833C26.6107 2.13586 27.0102 0.813104 27.9653 0C26.9106 2.3012 28.9469 4.78914 28.8309 5.94344L28.631 6.0551L28.3314 5.75631L27.1829 4.79226L26.8165 5.27584L26.4515 5.88158Z" fill="#FC9E12"/>
<path fill-rule="evenodd" clip-rule="evenodd" d="M37.9743 5.88158C37.9743 5.88158 37.5192 4.71639 38.349 4.38104C38.9209 4.15033 38.9617 4.65804 38.789 4.79226C39.0601 4.71756 39.1613 4.43122 39.0788 4.1978C38.8656 3.59166 37.9144 3.78152 37.6094 4.00833C37.814 2.13391 37.4149 0.811548 36.4606 0.0011673C37.5157 2.3012 35.481 4.78914 35.595 5.94344L35.7949 6.0551L36.0945 5.75631L37.2429 4.79226L37.6094 5.27584L37.9743 5.88158Z" fill="#FC9E12"/>
<path fill-rule="evenodd" clip-rule="evenodd" d="M32.213 48C33.277 47.5872 34.2815 47.1313 35.2475 46.6496L34.1516 47.4985C35.0744 47.5732 37.3188 47.4351 39.3951 46.6512C40.6183 46.1894 41.3154 45.5852 42.1184 44.9491C43.3385 43.9812 44.4068 43.1039 45.5311 44.1232C46.2217 43.7022 46.3368 42.9926 45.8638 41.9873C46.2361 42.0478 46.6158 42.0478 46.9881 41.9873C47.2429 43.4548 48.3338 43.9142 50.046 43.624L49.6274 44.1232C52.2558 44.4037 54.1866 43.6952 55.5273 42.204L56.352 41.9873C56.1964 43.3742 55.7743 44.4678 55.2417 45.3642C58.2587 44.59 58.9831 44.0543 60.6288 41.1392C61.2209 40.0888 62.5946 39.2718 63.5692 38.0599C64.4364 36.9822 64.8857 35.6533 63.7412 33.9772C63.8528 34.8561 63.4622 35.4988 62.874 36.0205C62.874 36.0205 63.4665 34.5663 63.5692 33.9772C63.6268 33.6481 63.2891 32.884 63.2891 32.46C63.2891 32.1048 63.5155 31.4189 63.5155 31.4189C63.1521 31.4819 62.9063 31.7437 62.6958 32.0647C62.6666 31.7601 62.8713 31.52 62.9747 31.3255C63.1362 31.0197 63.0584 29.3437 62.9537 28.3108C62.8324 27.116 62.5993 25.8898 62.3211 24.6503L61.7026 25.4105C60.7187 20.6042 58.3241 17.0301 56.6368 15.4614C56.7466 16.6459 56.7466 17.8379 56.6368 19.0224C55.2892 17.4841 53.8653 15.9878 52.4063 14.5094L52.6787 16.2675C51.1894 14.7409 49.8616 13.6127 48.0424 12.2666C47.9378 13.4656 47.8771 14.313 47.9047 15.4614C47.0717 14.4176 46.3326 13.2847 45.9661 11.9211C45.521 12.5887 45.2658 13.3353 45.0289 14.0893C45.0289 14.0893 44.5095 11.4391 43.356 9.57634C42.6685 8.4664 41.6605 7.44593 40.7607 7.51635C39.8087 7.58988 39.7375 8.39948 39.7375 8.39948C38.3715 6.96624 37.6113 5.61509 37.7444 4.43122C36.6628 4.45145 35.9937 5.01713 35.5965 5.94422C34.4708 4.9436 33.3426 3.91678 32.2118 2.86376C31.0823 3.91729 29.9544 4.9445 28.8283 5.94539C28.4326 5.01829 27.7631 4.45262 26.6815 4.43122C26.8146 5.61392 26.0544 6.96507 24.6884 8.39948C24.6884 8.39948 24.6172 7.58949 23.6645 7.51479C22.7646 7.44438 21.7581 8.46484 21.0695 9.57673C19.9164 11.4399 19.3966 14.0897 19.3966 14.0897C19.1597 13.3357 18.9041 12.5891 18.4594 11.9215C18.093 13.2859 17.3538 14.4188 16.5208 15.4618C16.5484 14.3134 16.4874 13.466 16.3831 12.267C14.5643 13.6127 13.2365 14.7409 11.7461 16.2687L12.0184 14.5106C10.5595 15.989 9.13558 17.4841 7.78754 19.0235C7.67793 17.8391 7.67793 16.647 7.78754 15.4626C6.10181 17.0301 3.70723 20.6042 2.72334 25.4105L2.10592 24.6479C1.82853 25.8874 1.59511 27.1125 1.47334 28.3085C1.36868 29.3414 1.29087 31.0174 1.45272 31.3232C1.55581 31.5177 1.76045 31.757 1.73127 32.0624C1.5208 31.7414 1.27492 31.4788 0.911167 31.4166C0.911167 31.4166 1.13798 32.1024 1.13798 32.4576C1.13798 32.8833 0.800288 33.6473 0.857867 33.9749C0.960964 34.5639 1.55309 36.0182 1.55309 36.0182C0.964855 35.4965 0.574254 34.8538 0.68591 33.9749C-0.458661 35.6509 -0.00931459 36.9799 0.857867 38.0576C1.83242 39.2686 3.20614 40.088 3.79827 41.1368C5.44393 44.052 6.16833 44.5877 9.18538 45.3619C8.65277 44.4671 8.2326 43.3719 8.07504 41.985L8.89982 42.2017C10.2405 43.6936 12.1713 44.4013 14.7997 44.1208L14.3811 43.6217C16.0929 43.9119 17.1841 43.4524 17.439 41.985C17.8113 42.0455 18.191 42.0455 18.5633 41.985C18.0902 42.9903 18.2054 43.6999 18.8959 44.1208C20.0203 43.1015 21.0886 43.9788 22.3086 44.9468C23.1105 45.5829 23.8076 46.187 25.032 46.6488C27.1083 47.4328 29.3527 47.5709 30.2755 47.4962L29.1784 46.6496C30.1463 47.1313 31.1509 47.5872 32.2149 48H32.213Z" fill="#FC9E12"/>
<path fill-rule="evenodd" clip-rule="evenodd" d="M15.7981 28.8551L18.8015 23.4567V18.5761H16.2968L13.4778 17.0005L8.9182 20.5891L7.20757 22.3071L6.85238 23.5049L4.20142 28.8551L3.56222 31.4707L2.76001 34.8612L3.56222 36.7259H4.57374L4.80794 38.142L5.34794 39.0403L6.04627 39.457L7.20757 40.1028L7.91291 39.457L8.9182 38.8388L8.44513 37.29L9.92077 36.7259L10.8541 36.4127L12.5538 34.0823L14.5769 32.4919L15.7981 28.8551Z" fill="#C1312C"/>
<path fill-rule="evenodd" clip-rule="evenodd" d="M48.6279 28.8551L45.6245 23.4567V18.5761H48.1292L50.9482 17.0005L55.5078 20.5891L57.2185 22.3071L57.5736 23.5049L60.2246 28.8551L60.8638 31.4707L61.666 34.8612L60.8638 36.7259H59.8523L59.6181 38.142L59.0781 39.0403L58.3798 39.457L57.2185 40.1028L56.5131 39.457L55.5078 38.8388L55.9809 37.29L54.5049 36.7259L53.5719 36.4127L51.8722 34.0823L49.8492 32.4919L48.6279 28.8551Z" fill="#C1312C"/>
<path fill-rule="evenodd" clip-rule="evenodd" d="M32.2131 46.6477L36.803 44.4523L38.8797 43.1572L40.241 41.2773L40.7055 40.1067L38.3137 40.6708L37.096 39.2165L38.8797 34.8339L40.7055 34.1971L42.3084 31.1411L44.5364 28.6318L44.9422 26.2384H43.7934V24.9063L42.839 24.4032L43.7934 21.5418L42.839 21.9791L43.7934 18.496V14.8421L42.839 12.3036L41.7563 13.5026L40.0395 16.9822L37.096 11.6826L34.6718 10.6026L32.2131 8.89357L29.7543 10.6026L27.3301 11.6826L24.3866 16.9822L22.6698 13.5026L21.5871 12.3036L20.6327 14.8421V18.496L21.5871 21.9791L20.6327 21.5418L21.5871 24.4032L20.6327 24.9063V26.2384H19.4839L19.8897 28.6318L22.1177 31.1411L23.7206 34.1971L25.5464 34.8339L27.3301 39.2165L26.1124 40.6708L23.7206 40.1067L24.1851 41.2773L25.5464 43.1572L27.6231 44.4523L32.2131 46.6477Z" fill="#871C19"/>
<path fill-rule="evenodd" clip-rule="evenodd" d="M32.2128 46.58L34.4304 45.7762L37.8723 43.7866L39.8529 41.815L40.3489 41.0081L40.21 40.5066C40.21 40.5066 38.7122 42.2861 38.2259 42.6191C36.9421 43.4999 32.2144 45.4234 32.2144 45.4234C32.2144 45.4234 27.4886 43.4999 26.2029 42.6191C25.7165 42.2861 24.2187 40.5066 24.2187 40.5066L24.0798 41.0081L24.5759 41.815L26.5565 43.7866L29.9953 45.7762L32.2128 46.58Z" fill="#C1312C"/>
<path fill-rule="evenodd" clip-rule="evenodd" d="M32.2129 38.0797L33.9341 37.3153V34.0313L34.8444 33.4061L35.6556 32.4919L35.4587 30.3681L36.7729 29.6196L37.7891 30.0802L38.326 32.9389L38 36.2823L36.7729 37.3153L35.6556 37.9023L34.8444 38.8913L33.3489 39.9269L32.2129 40.1028L31.0769 39.9269L29.5814 38.8913L28.7703 37.9023L27.6529 37.3153L26.4259 36.2823L26.0999 32.9389L26.6367 30.0802L27.6529 29.6196L28.9671 30.3681L28.7703 32.4919L29.5814 33.4061L30.4918 34.0313V37.3153L32.2129 38.0797Z" fill="#F59B05"/>
<path fill-rule="evenodd" clip-rule="evenodd" d="M11.3808 37.1997L10.1973 36.4127L8.44507 37.29L8.8629 39.0403L10.2786 41.5625L12.1122 42.8086L12.5063 41.2652L11.3808 38.142V37.1997Z" fill="#F59B05"/>
<path fill-rule="evenodd" clip-rule="evenodd" d="M6.61985 39.776L5.78068 39.2986L4.80768 38.142L4.62444 37.0332H3.87476V38.5843L5.07535 41.4259L6.61985 43.1435L6.9093 41.829L6.61985 39.776Z" fill="#F59B05"/>
<path fill-rule="evenodd" clip-rule="evenodd" d="M53.0452 37.1997L54.2287 36.4127L55.9809 37.29L55.5631 39.0403L54.1474 41.5625L52.3138 42.8086L51.9197 41.2652L53.0452 38.142V37.1997Z" fill="#F59B05"/>
<path fill-rule="evenodd" clip-rule="evenodd" d="M57.806 39.776L58.6452 39.2986L59.6182 38.142L59.8015 37.0332H60.5512V38.5843L59.3506 41.4259L57.806 43.1435L57.5166 41.829L57.806 39.776Z" fill="#F59B05"/>
<path fill-rule="evenodd" clip-rule="evenodd" d="M11.6262 36.4127L12.3432 34.371L13.4221 32.4919C12.7607 32.2141 11.9176 32.1573 10.9419 32.1806C10.9419 32.1806 12.4137 31.3209 12.6619 30.9396C13.0688 30.3113 13.3443 29.4542 13.6096 28.6411C14.1655 26.9293 14.2764 25.7478 14.4005 25.4634C14.539 25.1452 16.5967 23.033 17.3413 18.9418L19.141 20.7482L17.2452 26.5484L18.1879 29.434L19.141 32.4919L18.1879 34.8616L16.196 34.9888H14.8576L13.0147 37.4674L11.6262 36.4127Z" fill="#871C19"/>
<path fill-rule="evenodd" clip-rule="evenodd" d="M6.61993 23.4567L6.31998 20.0374L4.93264 22.8405L3.53052 28.3054L3.91567 28.5516L4.30472 28.3054L5.28978 26.1053L6.61993 23.4567Z" fill="#871C19"/>
<path fill-rule="evenodd" clip-rule="evenodd" d="M8.67574 22.0861C8.30498 23.0132 8.00231 23.9434 7.86108 24.8806C8.11552 24.5978 8.37813 24.3659 8.67574 23.9523L9.15505 22.3071L8.67574 22.0861Z" fill="#871C19"/>
<path fill-rule="evenodd" clip-rule="evenodd" d="M4.11299 29.8977C4.11299 29.8977 4.0488 30.2868 4.16901 30.4774C4.30323 30.691 4.66971 31.2166 4.95294 31.0913C6.37684 30.4599 8.44889 28.4396 8.44889 28.4396C8.06491 29.1492 7.5362 29.8662 6.87404 30.5898C8.08735 29.6079 9.15505 28.4586 10.0451 27.1764C10.8127 26.0754 11.5414 25.0533 11.9437 24.0391C12.9817 21.4103 13.4703 18.1606 13.4703 18.1606L13.8982 21.3749L12.8669 24.6013L12.1121 26.3734L10.0451 29.2056L7.86066 31.2287L6.02709 31.9449L4.84128 32.1246L3.87489 31.2298C3.77335 30.7672 3.79708 30.2743 4.11299 29.9001V29.8977Z" fill="#871C19"/>
<path fill-rule="evenodd" clip-rule="evenodd" d="M8.17001 31.4699C6.91923 33.5629 5.13546 35.1269 3.45712 34.4986L3.09375 35.6373L3.87495 37.0332L4.88647 37.1958C5.86375 37.1145 6.63095 37.7331 6.99081 38.4128C7.12892 38.6738 6.29831 38.903 6.29831 38.903C6.91767 39.2687 7.54326 39.3153 8.17157 39.2986L8.6427 37.9335L7.86072 37.0332H9.4274L11.7905 35.1292L12.1406 33.9438C11.3007 32.6487 10.0168 32.4164 8.84111 33.3956C8.84111 33.3956 9.79816 33.9275 9.03097 34.6157C8.51859 35.0751 7.3892 34.8608 7.40398 34.1776C7.41254 33.7909 7.90974 33.5839 8.1704 33.2634C8.34819 33.0463 8.74696 32.5576 9.03097 32.3627C9.42468 32.0904 10.1678 31.9328 10.6471 31.6305C11.0174 31.3971 11.5582 30.6338 11.5582 30.6338L10.7801 30.7287L9.15429 31.2275L8.17001 31.4699Z" fill="#871C19"/>
<path fill-rule="evenodd" clip-rule="evenodd" d="M32.2129 42.2674L34.485 41.8006L35.6552 40.3121V39.1169L35.3642 38.5847C35.2774 38.9769 35.1133 39.4184 34.9479 39.6818C34.8654 39.8129 34.5297 39.9756 34.3328 40.1378C34.1286 40.3059 33.8555 40.607 33.6108 40.7315C33.2276 40.926 32.5506 40.9396 32.2149 40.9396C31.8791 40.9396 31.2034 40.926 30.819 40.7315C30.5743 40.607 30.3012 40.3059 30.0969 40.1378C29.9001 39.9756 29.5643 39.8129 29.4818 39.6818C29.3165 39.4184 29.1523 38.9769 29.0656 38.5847L28.7722 39.1169V40.3129L29.9429 41.8013L32.2149 42.2682L32.2129 42.2674Z" fill="#C1312C"/>
<path fill-rule="evenodd" clip-rule="evenodd" d="M36.2762 12.6957C37.1395 14.1741 37.5783 15.738 37.6888 16.9877L37.1107 17.865C37.2212 17.0635 37.0329 16.2893 36.6933 15.7135C36.6291 15.605 36.3925 15.7042 36.333 15.5933C36.8843 17.4716 36.9613 19.4838 35.7039 20.9738L33.4863 22.919L34.0824 22.8724C34.0824 22.8724 34.0174 23.4439 34.0824 23.5489C34.1415 23.6446 34.3298 23.617 34.4197 23.5489C34.7523 23.2964 35.1826 22.9755 36.0801 22.0344C36.8676 21.2088 37.7585 20.1 38.3288 18.8469C38.6525 18.1361 38.5257 16.9663 38.3288 16.1944C38.7414 17.0984 39.0898 18.0304 39.3715 18.9835L39.4629 16.9877L37.1099 13.14L36.3318 12.1083L36.275 12.6957H36.2762Z" fill="#C1312C"/>
<path fill-rule="evenodd" clip-rule="evenodd" d="M39.6564 20.2327L39.3355 21.35L39.1938 22.3736C39.1938 22.3736 41.1838 20.221 41.4873 19.5826C42.1171 18.2571 42.6844 13.3015 42.6844 13.3015L41.3075 16.6083L39.6564 20.2315V20.2327Z" fill="#C1312C"/>
<path fill-rule="evenodd" clip-rule="evenodd" d="M39.8067 23.2221C40.3514 22.7128 40.7918 22.1763 41.2042 21.6329L40.9602 23.389L43.2945 22.2444C42.5028 22.9354 41.5975 23.5431 40.6299 24.0811C40.1168 25.5206 39.3309 26.5624 38.4797 27.6525L38.4595 25.8093L39.4636 24.0811L39.8067 23.2221Z" fill="#C1312C"/>
<path fill-rule="evenodd" clip-rule="evenodd" d="M43.2428 25.6536C42.3001 26.2507 41.2998 26.7515 40.2568 27.1483C40.505 26.862 40.8136 26.5259 41.0194 26.1792L42.809 25.1059L43.2431 25.6536H43.2428Z" fill="#C1312C"/>
<path fill-rule="evenodd" clip-rule="evenodd" d="M32.213 21.1108C30.102 19.0912 30.2709 17.3125 30.9937 15.603C30.3771 16.0847 29.8873 16.7169 29.6636 17.665C29.4659 15.8225 30.9999 14.397 32.213 12.1086C33.426 14.397 34.96 15.8225 34.7624 17.665C34.5387 16.7173 34.0489 16.0851 33.4322 15.603C34.1551 17.3125 34.3239 19.0912 32.213 21.1108Z" fill="#C1312C"/>
<path fill-rule="evenodd" clip-rule="evenodd" d="M52.7997 36.4127L52.0827 34.371L51.0058 32.4919C51.6672 32.2141 52.5103 32.1573 53.4864 32.1806C53.4864 32.1806 52.0142 31.3209 51.766 30.9396C51.3571 30.3117 51.0801 29.4546 50.8164 28.6415C50.2604 26.9297 50.1495 25.7482 50.0254 25.4638C49.8869 25.1455 47.8293 23.0334 47.0846 18.9422L45.2849 20.7482L47.1807 26.5484L46.2381 29.434L45.2849 32.4919L46.2396 34.8616L48.2315 34.9888H49.5699L51.4128 37.4674L52.8013 36.4127H52.7997Z" fill="#871C19"/>
<path fill-rule="evenodd" clip-rule="evenodd" d="M57.8059 23.4567L58.1059 20.0374L59.4932 22.8405L60.8953 28.3054L60.5102 28.5516L60.1211 28.3054L59.1361 26.1053L57.8059 23.4567Z" fill="#871C19"/>
<path fill-rule="evenodd" clip-rule="evenodd" d="M55.7503 22.0861C56.1211 23.0132 56.4237 23.9434 56.565 24.8806C56.3105 24.5978 56.0479 24.3659 55.7503 23.9523L55.271 22.3071L55.7503 22.0861Z" fill="#871C19"/>
<path fill-rule="evenodd" clip-rule="evenodd" d="M60.3129 29.8977C60.3129 29.8977 60.377 30.2868 60.2568 30.4774C60.123 30.691 59.7561 31.2166 59.4729 31.0913C58.049 30.4599 55.9769 28.4396 55.9769 28.4396C56.3609 29.1492 56.8896 29.8662 57.5518 30.5898C56.3385 29.6079 55.2708 28.4586 54.3807 27.1764C53.6131 26.0754 52.8844 25.0533 52.4825 24.0372C51.4442 21.4103 50.9555 18.1606 50.9555 18.1606L50.5276 21.3749L51.5589 24.6013L52.3137 26.3734L54.3807 29.2056L56.5652 31.2287L58.3987 31.9449L59.5846 32.1246L60.5509 31.2298C60.6525 30.7672 60.6288 30.2743 60.3129 29.9001V29.8977Z" fill="#871C19"/>
<path fill-rule="evenodd" clip-rule="evenodd" d="M56.2558 31.4699C57.5065 33.5629 59.2903 35.1269 60.9686 34.4986L61.332 35.6373L60.5508 37.0332L59.5393 37.1958C58.562 37.1145 57.7948 37.7331 57.435 38.4128C57.2968 38.6738 58.1275 38.903 58.1275 38.903C57.5081 39.2687 56.8825 39.3153 56.2542 39.2986L55.7831 37.9335L56.567 37.0332H55.0003L52.6372 35.1292L52.2871 33.9438C53.1271 32.6487 54.4109 32.4164 55.5866 33.3956C55.5866 33.3956 54.6296 33.9275 55.3967 34.6157C55.9091 35.0751 57.0385 34.8608 57.0237 34.1776C57.0152 33.7909 56.518 33.5839 56.2573 33.2634C56.0795 33.0463 55.6808 32.5576 55.3967 32.3627C55.003 32.0904 54.26 31.9328 53.7807 31.6305C53.4103 31.3971 52.8695 30.6338 52.8695 30.6338L53.6476 30.7287L55.2734 31.2275L56.2558 31.4699Z" fill="#871C19"/>
<path fill-rule="evenodd" clip-rule="evenodd" d="M28.3648 28.0498C28.5204 28.2268 29.4697 29.1893 30.2804 29.6192C30.3322 29.6468 29.6759 29.6581 29.4572 29.5312C29.1062 29.3326 28.7684 29.1117 28.4457 28.8699C28.1469 28.6327 27.8811 28.3566 27.6555 28.049C27.4408 27.7471 27.8333 27.0067 27.8333 27.0067C27.9788 27.3693 28.1224 27.7331 28.3636 28.049L28.3648 28.0498Z" fill="#C1312C"/>
<path fill-rule="evenodd" clip-rule="evenodd" d="M29.3835 26.8091C29.8071 27.2658 30.232 27.5969 30.7062 27.8346C29.7881 27.6619 28.7805 27.1129 28.5194 26.6589C28.3638 26.3847 28.7528 25.9197 28.7528 25.9197L29.3839 26.8075L29.3835 26.8091Z" fill="#C1312C"/>
<path fill-rule="evenodd" clip-rule="evenodd" d="M32.2129 27.6409C32.3829 27.6409 33.091 27.3927 33.8345 26.843C34.3013 26.4983 34.7207 26.1244 34.9098 25.9536C35.1043 25.7766 35.0565 25.0763 35.0565 25.0763L34.406 25.4471C33.617 26.4648 32.5565 26.9822 32.2129 26.9822C31.8694 26.9822 30.8089 26.4648 30.0199 25.4471L29.3694 25.0763C29.3694 25.0763 29.3196 25.7766 29.5161 25.9536C29.7052 26.1244 30.1249 26.4983 30.591 26.843C31.3349 27.3927 32.0429 27.6409 32.2129 27.6409Z" fill="#C1312C"/>
<path fill-rule="evenodd" clip-rule="evenodd" d="M32.213 26.529C32.4324 26.529 33.037 26.1964 33.3023 26.0162C33.7474 25.7163 33.9917 25.3832 34.3784 24.8966L33.7898 24.5997L32.8744 24.7394C32.8744 24.7394 33.6738 25.0444 33.5828 25.2607C33.4708 25.526 32.5005 25.9489 32.2126 25.9489C31.9247 25.9489 30.9544 25.526 30.8424 25.2607C30.7517 25.044 31.5516 24.7394 31.5516 24.7394L30.635 24.6017L30.0464 24.8985C30.4331 25.3852 30.6774 25.7182 31.1225 26.0182C31.3894 26.1983 31.9939 26.5309 32.2118 26.5309L32.213 26.529Z" fill="#C1312C"/>
<path fill-rule="evenodd" clip-rule="evenodd" d="M36.0609 28.0498C35.9053 28.2268 34.956 29.1893 34.1452 29.6192C34.0935 29.6468 34.7498 29.6581 34.9685 29.5312C35.3194 29.3326 35.6573 29.1117 35.98 28.8699C36.2788 28.6327 36.5446 28.3566 36.7702 28.049C36.9845 27.7471 36.5924 27.0067 36.5924 27.0067C36.4469 27.3693 36.3033 27.7331 36.0621 28.049L36.0609 28.0498Z" fill="#C1312C"/>
<path fill-rule="evenodd" clip-rule="evenodd" d="M35.0425 26.8091C34.6188 27.2658 34.194 27.5969 33.7197 27.8346C34.6379 27.6619 35.6455 27.1129 35.9062 26.6589C36.0641 26.3847 35.6727 25.9197 35.6727 25.9197L35.0425 26.8091Z" fill="#C1312C"/>
<path fill-rule="evenodd" clip-rule="evenodd" d="M34.8667 30.5607L35.4265 31.9437L35.1729 32.6837L34.1703 32.353L32.9308 31.7449H31.4952L30.2557 32.353L29.2532 32.6837L28.9995 31.9437L29.5593 30.5607L30.3616 30.4587L32.213 30.5607L34.0645 30.4587L34.8667 30.5607Z" fill="#FC9E12"/>
<path fill-rule="evenodd" clip-rule="evenodd" d="M9.17602 39.1504C9.17602 39.1504 8.88618 37.8965 9.42657 37.7424C10.1907 37.5242 10.2634 38.9757 10.7174 40.0541C11.0554 40.8485 11.4338 41.625 11.8511 42.3806C10.7435 41.7609 9.86424 40.961 9.17602 39.1516V39.1504Z" fill="#FCC66F"/>
<path fill-rule="evenodd" clip-rule="evenodd" d="M28.5659 30.4583C28.2119 30.3545 27.7707 30.279 27.4766 30.5657C28.2002 30.5436 28.2189 31.1419 28.0543 31.4718C26.8094 33.9703 26.9109 36.4461 26.9109 36.4461L26.3382 35.3693L26.1013 32.1172L26.7911 30.0113L27.6544 29.2056L28.5659 30.4583Z" fill="#FCC66F"/>
<path fill-rule="evenodd" clip-rule="evenodd" d="M28.9287 36.6932C29.1679 37.4588 29.7558 37.9587 29.9402 38.3019C30.0736 38.5489 29.9756 38.9496 29.5562 38.552C29.4134 38.4167 28.9664 38.1424 28.9664 38.1424L28.7695 37.1698L28.9279 36.6943L28.9287 36.6932Z" fill="#FCC66F"/>
<path fill-rule="evenodd" clip-rule="evenodd" d="M32.2129 39.939L33.3489 39.7515L33.9325 39.1407L34.0628 38.5847L33.9683 37.8564C33.6489 38.7975 33.2567 39.1403 32.2113 39.1403C31.166 39.1403 30.7738 38.7971 30.4544 37.8564L30.3599 38.5847L30.4902 39.1407L31.0738 39.7515L32.2098 39.939H32.2129Z" fill="#FCC66F"/>
<path fill-rule="evenodd" clip-rule="evenodd" d="M55.2498 39.1504C55.2498 39.1504 55.5396 37.8965 54.9992 37.7424C54.2352 37.5242 54.1624 38.9757 53.7084 40.0541C53.3704 40.8485 52.992 41.625 52.5747 42.3806C53.6823 41.7609 54.5616 40.961 55.2498 39.1516V39.1504Z" fill="#FCC66F"/>
<path fill-rule="evenodd" clip-rule="evenodd" d="M35.8596 30.4583C36.2137 30.3545 36.6548 30.279 36.949 30.5657C36.2253 30.5436 36.2067 31.1419 36.3712 31.4718C37.6162 33.9703 37.5147 36.4461 37.5147 36.4461L38.0873 35.3693L38.3243 32.1172L37.636 30.0113L36.7723 29.2056L35.8596 30.4583Z" fill="#FCC66F"/>
<path fill-rule="evenodd" clip-rule="evenodd" d="M35.4972 36.6932C35.2579 37.4588 34.67 37.9587 34.4856 38.3019C34.3522 38.5489 34.4502 38.9496 34.8696 38.552C35.0124 38.4167 35.4594 38.1424 35.4594 38.1424L35.6559 37.1698L35.4979 36.6943L35.4972 36.6932Z" fill="#FCC66F"/>
<path fill-rule="evenodd" clip-rule="evenodd" d="M35.1726 31.7935L34.4552 30.9976L34.2354 31.1038L34.5373 32.0453L35.1726 32.4919V31.7935Z" fill="#FCC66F"/>
<path fill-rule="evenodd" clip-rule="evenodd" d="M33.7839 31.1843L33.9889 31.1073L34.1702 31.6122L33.7839 31.9437L33.2376 31.4835H31.1882L30.6419 31.9437L30.2556 31.6122L30.4369 31.1073L30.6419 31.1843L30.8777 30.9976H33.5481L33.7839 31.1843Z" fill="#FCC66F"/>
<path fill-rule="evenodd" clip-rule="evenodd" d="M29.2532 31.7935L29.9706 30.9976L30.1904 31.1038L29.8885 32.0453L29.2532 32.4919V31.7935Z" fill="#FCC66F"/>
<path fill-rule="evenodd" clip-rule="evenodd" d="M29.6577 24.739L26.2446 21.7072L25.9812 21.9705L26.0999 22.786L27.4973 24.739L28.6485 25.2062L29.6577 24.739Z" fill="#FDCE12"/>
<path fill-rule="evenodd" clip-rule="evenodd" d="M12.1122 27.6405L11.2236 30.5256L9.69235 31.2271H8.44507L10.165 29.4328L12.1122 27.6405Z" fill="#FDCE12"/>
<path fill-rule="evenodd" clip-rule="evenodd" d="M34.7681 24.739L38.1812 21.7072L38.4445 21.9705L38.3259 22.786L36.9284 24.739L35.7772 25.2062L34.7681 24.739Z" fill="#FDCE12"/>
<path fill-rule="evenodd" clip-rule="evenodd" d="M52.3137 27.6405L53.2023 30.5256L54.7336 31.2271H55.9808L54.2609 29.4328L52.3137 27.6405Z" fill="#FDCE12"/>
<path fill-rule="evenodd" clip-rule="evenodd" d="M28.1498 12.6957C27.2865 14.1741 26.8477 15.738 26.7372 16.9877L27.3153 17.865C27.2048 17.0635 27.3931 16.2893 27.7327 15.7135C27.7965 15.605 28.0335 15.7042 28.093 15.5933C27.5417 17.4716 27.4651 19.4838 28.7221 20.9738L30.9396 22.919L30.3425 22.872C30.3425 22.872 30.4074 23.4435 30.3425 23.5485C30.2829 23.6442 30.0946 23.6166 30.0052 23.5485C29.6725 23.296 29.2422 22.9751 28.3447 22.034C27.5573 21.2084 26.6664 20.0996 26.096 18.8465C25.7723 18.1357 25.9015 16.9659 26.096 16.194C25.6836 17.0981 25.3356 18.0303 25.0546 18.9835L24.9631 16.9877L27.3161 13.14L28.0942 12.1083L28.151 12.6957H28.1498Z" fill="#C1312C"/>
<path fill-rule="evenodd" clip-rule="evenodd" d="M24.7694 20.2327L25.0904 21.35L25.232 22.3736C25.232 22.3736 23.242 20.221 22.9385 19.5826C22.3087 18.2571 21.7415 13.3015 21.7415 13.3015L23.1183 16.6083L24.7694 20.2315V20.2327Z" fill="#C1312C"/>
<path fill-rule="evenodd" clip-rule="evenodd" d="M24.6191 23.2221C24.0745 22.7128 23.6341 22.1763 23.2217 21.6329L23.4656 23.389L21.1313 22.2444C21.923 22.9354 22.8284 23.5431 23.7959 24.0811C24.309 25.5206 25.0945 26.5624 25.9461 27.6525L25.9664 25.8093L24.9622 24.0811L24.6191 23.2221Z" fill="#C1312C"/>
<path fill-rule="evenodd" clip-rule="evenodd" d="M21.1831 25.6536C22.1257 26.2507 23.1261 26.7515 24.169 27.1483C23.9208 26.862 23.6123 26.5259 23.4065 26.1792L21.6169 25.1059L21.1831 25.6536Z" fill="#C1312C"/>
<path fill-rule="evenodd" clip-rule="evenodd" d="M32.2131 36.9593C32.0762 36.9593 31.4879 36.8507 31.386 36.2979C31.3144 35.9089 31.5696 35.5817 31.6949 34.9565C31.7525 35.3821 31.656 35.7136 31.6949 36.0182C31.7311 36.3142 31.9147 36.5893 32.2131 36.5893C32.5115 36.5893 32.6952 36.3142 32.7313 36.0182C32.7703 35.7136 32.6738 35.3821 32.7313 34.9565C32.8566 35.5817 33.1118 35.9096 33.0403 36.2979C32.9383 36.85 32.3501 36.9593 32.2131 36.9593Z" fill="#2C0C0B"/>
<path fill-rule="evenodd" clip-rule="evenodd" d="M32.213 47.027C34.9091 46.061 38.2082 44.2294 38.9594 43.5337C39.6679 42.877 40.6553 41.4683 41.6668 39.4842C40.6922 39.6511 39.8087 39.6573 39.0267 39.4842C40.9677 37.9183 42.1278 35.3175 42.783 32.0472C42.9744 34.6098 42.5783 36.6414 41.6209 38.1248C42.2823 38.0603 42.8795 37.8969 43.4249 37.7463C42.3519 42.5187 39.9966 44.8242 35.9229 46.8371C42.7923 45.5922 41.7224 42.3339 45.432 42.998C45.4907 42.3518 44.8721 41.792 44.1633 41.6531C45.0402 40.7739 46.1778 41.7083 47.3052 41.2143C48.265 40.7937 48.5502 39.9549 48.4529 38.8948C47.8538 39.4562 47.2006 39.5561 46.4454 39.2235C47.0271 38.9901 47.2753 38.5108 47.1613 37.8004C45.8125 38.4046 44.564 35.9501 44.827 33.8072C45.7899 36.7352 48.7564 37.0589 49.2481 39.2776C49.8266 37.7856 48.9727 36.9134 48.5 35.7143C49.8679 37.2355 51.0132 38.466 50.2025 39.9269C50.7685 39.7612 51.3439 39.3741 51.8528 38.8948C51.512 40.1242 50.9689 41.1427 50.4604 41.6531C49.6652 42.451 48.3397 42.2577 48.4514 41.7542C48.5529 41.3041 49.3699 41.2143 49.3699 41.2143C49.0357 41.0061 47.7978 40.9618 47.7246 41.883C47.6783 42.4666 48.1775 42.9249 48.8669 43.0256C49.6084 43.1338 50.546 42.9261 51.1622 42.4289C51.0313 42.8053 50.8796 43.1741 50.7078 43.5337C52.6301 43.6057 54.1353 42.8747 55.2986 41.4061C55.9109 41.3117 56.5166 41.1781 57.1119 41.0061C57.0189 42.3079 56.7559 43.4462 56.3307 44.4297C57.4827 43.9971 58.2199 43.4785 58.7751 42.8568C59.3508 42.2114 59.7045 41.2617 60.1935 40.5793C61.3949 38.9064 63.9525 37.5195 63.77 35.7809C63.4977 36.5535 62.2566 37.3117 61.2338 38.126C61.6302 37.4756 61.9848 36.8007 62.2955 36.1053C62.613 35.3887 62.8737 34.5826 62.9884 33.9057C63.023 33.7002 62.8826 33.347 62.82 33.1089C62.7546 32.8611 62.6838 32.5483 62.6838 32.5483C62.301 32.849 62.5916 33.81 62.4624 33.9605C62.4624 33.9605 62.2321 33.4334 61.9862 32.9568C61.8014 32.5981 61.5972 32.2444 61.5801 32.0484C61.5645 31.8811 62.3726 31.3531 62.4115 31.1925C62.5056 30.8081 62.3986 29.6071 62.3243 28.8138C62.2465 27.9607 62.1166 27.102 61.9504 26.2224C61.8136 26.5954 61.653 26.9593 61.4696 27.3117C60.7627 23.6216 59.3333 20.314 57.3753 17.2701C57.3465 18.4318 57.2775 19.6023 57.1683 20.7816C55.9821 19.32 54.6784 17.8895 53.3658 16.4807C53.5354 17.0402 53.6781 17.6108 53.7937 18.1925C52.2191 16.6519 50.4871 15.0791 48.5976 13.4742C48.5289 14.738 48.5289 16.0047 48.5976 17.2685C48.1051 16.52 46.8835 15.7462 45.7934 13.4189C45.5276 14.1267 45.4047 14.8802 45.432 15.6357C44.3644 14.5542 44.0878 12.6611 43.2973 10.8925C42.62 9.37754 41.7353 8.25398 41.0093 8.18706C40.495 8.1396 40.1869 8.61774 40.183 9.08615C40.1799 9.46663 40.3565 9.78643 40.6673 9.9331C40.6008 9.82416 40.5004 9.58724 40.5156 9.35964C40.5285 9.17174 40.6261 8.97994 40.8358 8.96593C41.5194 8.92002 41.6042 10.6143 40.8358 11.5854C40.5499 9.91676 37.206 7.52296 37.2204 5.0926C36.4116 5.37738 36.0677 6.19243 35.7984 7.11952C34.5403 6.03681 33.3366 4.97005 32.213 3.92547C31.0894 4.9685 29.8857 6.03526 28.6276 7.11758C28.3583 6.19049 28.0144 5.37544 27.2056 5.09066C27.22 7.52141 23.8762 9.91481 23.5902 11.583C22.8218 10.6104 22.9063 8.91769 23.5902 8.9636C23.7999 8.9776 23.8976 9.1694 23.9104 9.35731C23.9256 9.5849 23.8252 9.82183 23.7587 9.93076C24.0699 9.78254 24.2461 9.46391 24.243 9.08381C24.2391 8.61696 23.9318 8.13727 23.4167 8.18473C22.6907 8.25165 21.806 9.37521 21.1287 10.8901C20.3382 12.6587 20.0616 14.5518 18.994 15.6334C19.0203 14.8786 18.8968 14.1261 18.6307 13.4193C17.5413 15.7466 16.319 16.5204 15.8264 17.2689C15.8952 16.0051 15.8952 14.7384 15.8264 13.4746C13.9331 15.0806 12.201 16.6533 10.6303 18.1929C10.7473 17.6106 10.89 17.04 11.0583 16.4811C9.7437 17.8898 8.44196 19.3211 7.25576 20.782C7.14838 19.6029 7.07939 18.4324 7.04879 17.2705C5.09228 20.3144 3.66293 23.622 2.95681 27.3121C2.77337 26.9597 2.61275 26.5958 2.47595 26.2228C2.30983 27.1013 2.18144 27.961 2.10208 28.8142C2.02777 29.6075 1.92078 30.8085 2.01493 31.1928C2.05384 31.352 2.86188 31.8799 2.84632 32.0487C2.82804 32.2433 2.62495 32.5985 2.44016 32.9572C2.19428 33.4337 1.96397 33.9609 1.96397 33.9609C1.8348 33.8103 2.12542 32.8494 1.7426 32.5487C1.7426 32.5487 1.67179 32.8599 1.60643 33.1093C1.5438 33.3474 1.40335 33.7006 1.43798 33.906C1.55236 34.583 1.81341 35.3891 2.13087 36.1057C2.44088 36.8004 2.79472 37.4747 3.19024 38.1245C2.16744 37.3102 0.925216 36.5519 0.654052 35.7793C0.47159 37.5179 3.02723 38.9053 4.23054 40.5778C4.71957 41.2586 5.07322 42.2098 5.649 42.8552C6.20417 43.4777 6.94102 43.9955 8.09337 44.4282C7.66815 43.4462 7.40515 42.3079 7.31217 41.0046C7.90827 41.1773 8.51488 41.3114 9.12823 41.4061C10.2919 42.8747 11.7971 43.6057 13.719 43.5337C13.5476 43.1742 13.3966 42.8053 13.2665 42.4289C13.8812 42.9261 14.8188 43.1338 15.5619 43.0256C16.2513 42.9249 16.7504 42.467 16.7041 41.883C16.6282 40.9625 15.3903 41.0061 15.0561 41.2143C15.0561 41.2143 15.8731 41.3041 15.9731 41.7542C16.0844 42.2577 14.7593 42.451 13.9641 41.6531C13.4556 41.1427 12.9136 40.1242 12.5717 38.8948C13.0805 39.3741 13.6556 39.7612 14.2216 39.9269C13.4112 38.466 14.5566 37.2355 15.9245 35.7143C15.4518 36.9134 14.5978 37.7856 15.1763 39.2776C15.67 37.06 18.6346 36.7352 19.5974 33.8072C19.862 35.9501 18.6135 38.4046 17.2632 37.8004C17.1492 38.5108 17.3974 38.9909 17.979 39.2235C17.2239 39.5546 16.5707 39.4569 15.9715 38.8948C15.8735 39.9549 16.1594 40.7937 17.1192 41.2143C18.2475 41.7083 19.3842 40.7739 20.2611 41.6531C19.5523 41.7904 18.9337 42.3534 18.9925 42.998C22.702 42.3339 21.6321 45.5906 28.5015 46.8371C24.4278 44.8242 22.0725 42.5187 21.0015 37.7459C21.5462 37.8965 22.1449 38.0599 22.8055 38.1245C21.8481 36.641 21.452 34.6094 21.6434 32.0468C22.2997 35.3171 23.4595 37.9179 25.4012 39.4842C24.6192 39.6573 23.7357 39.6511 22.7612 39.4842C23.7696 41.4683 24.7581 42.8774 25.4666 43.5341C26.2178 44.2297 29.5169 46.0629 32.213 47.0274V47.027ZM32.213 44.4826C36.7146 43.1758 38.8914 41.8371 40.1631 40.5642C40.1631 40.5642 39.0236 42.404 38.2938 42.9502C36.5987 44.2196 33.6462 45.5712 32.213 46.1182C30.7798 45.5712 27.8273 44.2196 26.1322 42.9502C25.4028 42.4055 24.2629 40.5642 24.2629 40.5642C25.5347 41.8391 27.7114 43.1758 32.213 44.4826ZM4.38149 37.2188C4.7398 38.7621 5.2016 39.4639 6.24891 39.7215C6.19833 40.4681 6.25125 41.4115 6.35395 42.1884C5.24284 40.5626 4.36671 39.0372 4.38188 37.2188H4.38149ZM60.0445 37.2188C59.6862 38.7621 59.2244 39.4639 58.1771 39.7215C58.2277 40.4681 58.1748 41.4115 58.0721 42.1884C59.1832 40.5626 60.0593 39.0372 60.0441 37.2188H60.0445ZM54.0972 36.8387C54.4329 37.1946 54.9142 37.4413 55.6102 37.5218C55.4211 39.1095 53.8027 41.4053 52.6795 42.1643C52.6795 42.1643 53.479 39.2574 53.7572 37.3401C53.7856 37.1437 54.0972 36.8383 54.0972 36.8383V36.8387ZM10.3296 36.8387C9.99386 37.1946 9.51261 37.4413 8.81661 37.5218C9.00568 39.1095 10.6241 41.4053 11.7473 42.1643C11.7473 42.1643 10.9478 39.2574 10.6696 37.3401C10.6412 37.1437 10.3296 36.8383 10.3296 36.8383V36.8387ZM32.213 41.4932C31.9734 41.4932 31.4112 41.4492 31.2637 41.4376C31.147 41.4282 31.1661 41.7282 31.1544 41.7208C30.6238 41.3706 30.4067 40.7871 29.8636 40.2035C29.6531 39.9783 29.413 39.9545 29.3189 39.8191C29.1189 39.5258 29.1146 38.7753 29.1146 38.7753C29.5356 39.5923 30.2779 40.4801 32.2114 40.4801C34.145 40.4801 34.8873 39.5919 35.3083 38.7753C35.3083 38.7753 35.304 39.5258 35.104 39.8191C35.0114 39.9545 34.7714 39.9783 34.5593 40.2035C34.0147 40.7871 33.7991 41.3706 33.2685 41.7208C33.2568 41.7282 33.277 41.4282 33.1592 41.4376C33.0121 41.4492 32.4495 41.4932 32.2099 41.4932H32.213ZM32.213 39.6483C31.2987 39.6483 30.4732 39.1768 30.5401 38.0813C30.9338 38.6112 31.3205 38.7932 32.213 38.7932C33.1055 38.7932 33.4934 38.6112 33.8859 38.0813C33.9516 39.1768 33.1261 39.6483 32.213 39.6483ZM58.8544 36.5434C59.0163 36.5064 59.4738 37.0079 59.4917 37.1511C59.5419 37.5557 59.2022 38.5516 58.9688 38.8041C58.6222 39.1776 58.2156 39.3418 57.7344 39.541C57.8808 39.3389 58.0108 39.1256 58.1234 38.9029C58.1234 38.9029 56.9893 38.9418 56.6917 38.8796C56.4583 38.8302 55.9475 38.6022 55.9432 38.3983C55.9304 37.828 56.6147 37.4203 57.4644 37.0783C57.8468 36.9227 58.2969 36.6706 58.8533 36.5434H58.8544ZM5.57158 36.5434C5.40974 36.5064 4.95222 37.0079 4.93433 37.1511C4.88414 37.5557 5.22378 38.5516 5.4572 38.8041C5.80384 39.1776 6.2104 39.3418 6.69126 39.541C6.54501 39.3388 6.41492 39.1255 6.30221 38.9029C6.30221 38.9029 7.43628 38.9418 7.7339 38.8796C7.96732 38.8302 8.47814 38.6022 8.48242 38.3983C8.49526 37.828 7.81093 37.4203 6.96125 37.0783C6.57882 36.9227 6.1287 36.6706 5.57236 36.5434H5.57158ZM30.046 38.8648C30.2293 38.8695 30.3024 38.317 30.1958 38.1552C29.9822 37.8303 29.3212 37.2367 28.9898 36.8223C28.982 37.5845 29.5854 38.8528 30.0456 38.8648H30.046ZM34.38 38.8648C34.1967 38.8695 34.1236 38.317 34.2302 38.1552C34.4438 37.8303 35.1048 37.2367 35.4362 36.8223C35.444 37.5845 34.8406 38.8528 34.3804 38.8648H34.38ZM32.213 37.3386C31.6613 37.3386 31.1501 36.9495 31.0393 36.4103C30.9311 35.882 31.2902 35.0257 31.2404 34.2531C31.2174 33.894 30.7673 33.5411 30.7735 33.2637C30.7798 32.9863 31.0926 32.6066 31.3373 32.56C31.5318 32.521 31.7913 32.8012 32.2118 32.8012C32.6324 32.8012 32.8923 32.5222 33.0864 32.56C33.3311 32.6066 33.6427 32.9879 33.6501 33.2637C33.6575 33.5396 33.2074 33.894 33.1833 34.2531C33.1335 35.0257 33.4945 35.882 33.3844 36.4103C33.2735 36.9507 32.7619 37.3386 32.2107 37.3386H32.213ZM16.5594 27.0577C17.1667 24.4624 17.4519 21.8134 17.3161 19.0951C17.3161 19.0951 16.2906 21.4512 15.379 22.8272C14.3169 24.4281 13.3766 25.3319 13.2058 25.6525C12.9724 26.0936 12.5888 27.4841 12.3842 28.4606C12.2091 29.2951 11.8519 30.3346 11.5341 30.6707C11.3991 30.8131 10.507 31.1921 9.60559 31.4741C9.03019 31.6546 8.135 31.6504 7.96732 31.7433C7.24292 32.146 6.52241 32.4607 5.88865 32.5234C5.46843 32.5678 5.04356 32.52 4.64371 32.3833L3.43923 34.4927C4.3208 34.9483 5.30664 34.7195 7.39737 33.5894C7.3005 34.1025 7.04723 34.5818 6.64768 34.8771C6.64768 34.8771 6.37535 34.5705 6.28276 34.6199C6.19017 34.6694 6.196 35.0689 6.196 35.0689C6.02982 35.3442 5.81953 35.5904 5.57353 35.7976C5.57353 35.7976 7.8226 37.0616 9.03603 36.7966C9.58069 36.6772 10.7222 35.7544 10.8354 35.2016C10.9995 34.397 10.7381 33.6127 10.7381 33.6127C11.2236 33.3945 11.6236 33.5761 12.0317 33.7827C11.9025 33.2027 11.5742 32.7864 11.0591 32.5234C11.8115 32.3362 12.5841 32.344 13.4287 32.4923C14.415 30.4922 14.9884 28.2517 15.5755 26.0022C15.7264 25.4249 15.8918 24.8934 16.0272 24.3032C16.3236 25.3401 16.4855 26.201 16.5606 27.0577H16.5594ZM47.8666 27.0577C47.2593 24.4624 46.9742 21.8134 47.1099 19.0951C47.1099 19.0951 48.1355 21.4512 49.047 22.8272C50.1075 24.4277 51.0494 25.3319 51.2202 25.6525C51.4536 26.0936 51.8372 27.4841 52.0419 28.4606C52.2169 29.2951 52.5741 30.3346 52.8919 30.6707C53.0269 30.8131 53.919 31.1921 54.8204 31.4741C55.3962 31.6546 56.291 31.6504 56.4587 31.7433C57.1831 32.146 57.9036 32.4607 58.5374 32.5234C58.9576 32.5678 59.3825 32.52 59.7823 32.3833L60.9852 34.4927C60.1037 34.9483 59.1178 34.7195 57.0271 33.5894C57.1236 34.1025 57.3772 34.5818 57.7768 34.8771C57.7768 34.8771 58.0491 34.5705 58.1417 34.6199C58.2343 34.6694 58.2285 35.0689 58.2285 35.0689C58.3946 35.3442 58.6049 35.5904 58.8509 35.7976C58.8509 35.7976 56.6019 37.0616 55.3884 36.7966C54.8438 36.6772 53.7023 35.7544 53.5891 35.2016C53.4249 34.397 53.6864 33.6127 53.6864 33.6127C53.2008 33.3945 52.8005 33.5761 52.3928 33.7827C52.5219 33.2027 52.8503 32.7864 53.3654 32.5234C52.613 32.3362 51.8403 32.344 50.9957 32.4923C50.0095 30.4922 49.436 28.2517 48.849 26.0022C48.698 25.4249 48.5327 24.8934 48.3973 24.3032C48.1008 25.3401 47.939 26.201 47.8639 27.0577H47.8666ZM5.02069 35.8991C4.48796 35.7884 3.98394 35.5685 3.54038 35.2533C3.54038 35.2533 3.58473 35.7085 3.63686 35.8544C3.73334 36.1244 3.98428 36.501 4.21771 36.5453C4.60675 36.6196 5.02108 35.8991 5.02108 35.8991H5.02069ZM59.4049 35.8991C59.9379 35.7885 60.4422 35.5686 60.886 35.2533C60.886 35.2533 60.8417 35.7085 60.7895 35.8544C60.6931 36.1244 60.4421 36.501 60.2087 36.5453C59.8196 36.6196 59.4049 35.8991 59.4049 35.8991ZM29.9542 36.0158C29.8978 35.8513 29.5924 35.4972 29.5002 35.5396C29.408 35.582 29.3936 36.0656 29.45 36.2298C29.5006 36.3765 29.748 36.5799 29.8702 36.5352C29.9923 36.4905 30.0102 36.1781 29.9542 36.0158ZM34.4702 36.0158C34.5267 35.8513 34.8321 35.4972 34.9243 35.5396C35.0165 35.582 35.0309 36.0656 34.9744 36.2298C34.9239 36.3765 34.6764 36.5799 34.5543 36.5352C34.4321 36.4905 34.415 36.1773 34.4695 36.0166L34.4702 36.0158ZM35.6066 31.052C35.5545 30.5657 36.8718 29.8631 37.0718 30.3093C38.1689 32.7572 37.5052 36.3376 37.5052 36.3376C37.5052 36.3376 37.1473 34.9674 36.6462 33.6508C36.2276 32.551 35.6568 31.5208 35.6066 31.052ZM28.8178 31.052C28.8699 30.5657 27.5526 29.8631 27.3527 30.3093C26.2563 32.758 26.922 36.3384 26.922 36.3384C26.922 36.3384 27.2799 34.9681 27.781 33.6516C28.1996 32.5518 28.77 31.5216 28.8205 31.0528L28.8178 31.052ZM17.6826 34.2939C18.5443 32.8093 18.582 31.2205 17.4522 29.7545C17.1686 31.0189 16.6788 31.6091 16.1159 32.1001C15.6265 32.528 14.8737 32.7062 14.4613 33.1268C14.0563 33.5396 14.0135 34.3212 13.6738 34.6729C13.356 35.002 12.8798 35.2564 12.4223 35.2358C12.5448 35.5614 12.7681 35.7112 13.037 35.7805C12.6386 36.0139 12.367 36.0676 12.1118 36.0501C12.6203 36.3671 13.3074 36.2835 13.8213 35.6723C13.5607 35.6534 13.3056 35.5875 13.0685 35.4778C13.3976 35.3755 13.8244 35.1113 14.0372 34.8514C14.4336 34.3694 14.3947 33.9208 14.7616 33.5403C15.1526 33.1338 15.686 33.1404 16.3641 32.6125C16.7177 32.3374 17.0616 32.0071 17.3137 31.4652C17.8526 32.3771 17.8845 33.2937 17.6826 34.2939ZM46.7442 34.2939C45.8825 32.8093 45.8448 31.2205 46.9745 29.7545C47.2578 31.0189 47.748 31.6091 48.3109 32.1001C48.8003 32.528 49.5531 32.7062 49.9655 33.1268C50.3705 33.5396 50.4133 34.3212 50.7529 34.6729C51.0708 35.002 51.547 35.2564 52.0045 35.2358C51.882 35.5614 51.6586 35.7112 51.3898 35.7805C51.7882 36.0139 52.0598 36.0676 52.315 36.0501C51.8065 36.3671 51.1194 36.2835 50.6055 35.6723C50.8661 35.6534 51.1211 35.5875 51.3583 35.4778C51.0292 35.3755 50.6024 35.1113 50.3896 34.8514C49.9924 34.3694 50.0313 33.9208 49.6644 33.5403C49.2734 33.1338 48.74 33.1404 48.0619 32.6125C47.7083 32.3374 47.3644 32.0071 47.1123 31.4652C46.5734 32.3771 46.5415 33.2937 46.7435 34.2939H46.7442ZM29.9919 35.4478C30.0639 35.4039 30.1063 35.1522 30.0437 35.0249C29.9811 34.8977 29.683 34.6289 29.6111 34.6748C29.5391 34.7207 29.5477 35.1603 29.6111 35.2895C29.6745 35.4187 29.9196 35.4933 29.9919 35.4498V35.4478ZM34.4356 35.4478C34.3636 35.4039 34.3212 35.1522 34.3839 35.0249C34.4465 34.8977 34.7445 34.6289 34.8165 34.6748C34.8885 34.7207 34.8803 35.1603 34.8165 35.2895C34.7527 35.4187 34.508 35.4933 34.4356 35.4498V35.4478ZM34.4356 34.4927C34.3819 34.4589 34.3543 34.2803 34.3994 34.1943C34.4446 34.1083 34.6531 33.943 34.7072 33.9769C34.7612 34.0107 34.7523 34.2823 34.7072 34.3682C34.662 34.4542 34.4897 34.5266 34.4348 34.4927H34.4356ZM29.9919 34.4927C30.0456 34.4589 30.0733 34.2803 30.0281 34.1943C29.983 34.1083 29.7745 33.943 29.7204 33.9769C29.6663 34.0107 29.6753 34.2823 29.7204 34.3682C29.7655 34.4542 29.9379 34.5266 29.9927 34.4927H29.9919ZM24.7465 33.5318C24.3737 32.4359 24.0916 31.3113 23.903 30.1693C22.5378 29.3274 21.31 28.3054 20.2736 27.0662C20.7572 28.3404 21.5613 29.4538 22.7114 30.358C23.1529 31.6418 23.8489 32.7101 24.7465 33.5318ZM39.6796 33.5318C40.0523 32.4359 40.3344 31.3113 40.523 30.1693C41.8882 29.3274 43.116 28.3054 44.1524 27.0662C43.6688 28.3404 42.8647 29.4538 41.7147 30.358C41.2731 31.6418 40.5771 32.7101 39.6796 33.5318ZM32.213 31.2991L30.8922 31.3131L30.5401 31.6278L30.2289 31.3131L29.5037 32.1515C29.5037 32.1515 29.373 31.5477 29.4457 31.3142C29.5185 31.0808 29.9386 30.7532 29.9386 30.7532L30.4475 30.9431C30.4475 30.9431 30.7689 30.7532 30.9599 30.7532H33.4661C33.6571 30.7532 33.9785 30.9431 33.9785 30.9431L34.4874 30.7532C34.4874 30.7532 34.9071 31.0808 34.9803 31.3142C35.0534 31.5477 34.925 32.1526 34.925 32.1526L34.1999 31.3142L33.8886 31.629L33.5358 31.3142L32.213 31.3002V31.2991ZM5.20977 31.8589C4.98218 31.8865 4.65577 31.4932 4.44296 31.2321C4.1823 30.9123 4.00568 30.6276 4.02318 30.4867C4.15079 29.4596 4.85379 27.919 5.7416 26.3986C6.72432 24.7137 7.88874 23.0813 8.61469 22.2911C8.60964 22.8124 8.59913 23.3536 8.67733 23.8916C10.2086 22.0503 11.7955 20.2654 13.3801 18.7808C13.3801 18.7808 13.207 23.3828 12.213 25.4311C11.4893 26.918 10.6704 28.0439 9.27802 29.6281C8.01829 31.0617 6.95191 31.6469 5.20977 31.8581V31.8589ZM59.2162 31.8589C59.4438 31.8865 59.7702 31.4932 59.9831 31.2321C60.2437 30.9123 60.4203 30.6276 60.4028 30.4867C60.2752 29.4596 59.5722 27.919 58.6844 26.3986C57.7017 24.7137 56.5373 23.0813 55.8113 22.2911C55.8164 22.8124 55.8269 23.3536 55.7487 23.8916C54.2174 22.0511 52.6305 20.2677 51.0459 18.7815C51.0459 18.7815 51.219 23.3835 52.213 25.4319C52.9355 26.9192 53.7544 28.0447 55.1468 29.6289C56.4066 31.0625 57.4729 31.6476 59.2151 31.8589H59.2162ZM55.4736 31.061C54.361 30.3292 53.4004 29.2037 52.5916 28.0855C52.5916 28.0855 53.0689 29.7899 53.5432 30.2945C54.01 30.7917 55.4736 31.061 55.4736 31.061ZM8.95238 31.061C10.0651 30.3292 11.0256 29.2037 11.834 28.0855C11.834 28.0855 11.3571 29.7899 10.8828 30.2945C10.416 30.7917 8.95238 31.061 8.95238 31.061ZM32.213 28.3664C31.7372 28.3664 30.3355 28.1206 29.501 27.5596C29.501 27.5596 29.2605 28.1937 29.4597 28.4983C29.7457 28.936 30.3242 29.1426 30.4347 29.1449C30.4347 29.1449 30.5673 28.9504 30.6545 28.9784C30.863 29.0492 30.9455 29.4453 31.1062 29.6106C31.284 29.7935 31.752 30.0996 31.752 30.0996C30.8183 30.0553 30.4401 30.2039 29.9091 30.1564C29.175 30.0915 27.513 28.4925 27.2935 28.1307C27.048 27.7261 27.7215 27.2892 27.7215 27.2892C27.937 27.6813 28.1864 28.0424 28.5046 28.1937C28.5046 28.1937 27.7942 27.1565 28.0806 26.3582C28.1459 26.1765 28.6855 26.0322 28.6855 26.0322C28.74 26.237 28.8425 26.4258 28.9846 26.583C29.1267 26.7402 29.3043 26.8612 29.5025 26.9359C29.5025 26.9359 29.1407 26.1652 29.1174 25.8007C29.1104 25.6925 29.3827 25.4505 29.3827 25.4505L30.7872 26.2426C30.5148 25.8956 30.3176 25.5264 30.2503 25.1685C30.2503 25.1685 30.7121 24.9238 30.9245 24.8635C31.0941 24.8152 31.3314 24.8635 31.5011 24.9144C31.7072 24.9728 32.0115 25.2762 32.213 25.2762C32.4145 25.2762 32.7188 24.974 32.9265 24.9137C33.0961 24.8643 33.3335 24.8145 33.5031 24.8627C33.7155 24.923 34.1773 25.1677 34.1773 25.1677C34.11 25.5256 33.912 25.8948 33.6404 26.2419L35.0449 25.4498C35.0449 25.4498 35.3172 25.6925 35.3102 25.7999C35.2868 26.1644 34.925 26.9351 34.925 26.9351C35.1234 26.8605 35.301 26.7395 35.4431 26.5823C35.5852 26.4251 35.6877 26.2362 35.742 26.0314C35.742 26.0314 36.282 26.1757 36.3474 26.3574C36.6337 27.1557 35.9233 28.1929 35.9233 28.1929C36.2416 28.0416 36.4909 27.6805 36.7065 27.2884C36.7065 27.2884 37.3784 27.7253 37.1344 28.1299C36.915 28.4917 35.253 30.0907 34.5189 30.1557C33.9878 30.2031 33.6101 30.0545 32.676 30.0989C32.676 30.0989 33.1428 29.7927 33.3218 29.6098C33.4825 29.4445 33.5645 29.0484 33.7735 28.9776C33.8606 28.9484 33.9933 29.1441 33.9933 29.1441C34.1038 29.1418 34.6823 28.9352 34.9682 28.4975C35.1674 28.1929 34.927 27.5588 34.927 27.5588C34.0925 28.1198 32.6908 28.3657 32.215 28.3657L32.213 28.3664ZM39.9239 26.4154C39.6126 27.2966 39.0003 28.1571 38.2459 29.0076C40.1367 28.1309 41.7707 27.0338 43.1479 25.7163C42.5908 25.9497 41.88 26.1104 41.0081 26.1925C41.9485 25.1222 42.5748 23.7559 43.1479 22.3464C42.4659 22.7867 41.7302 23.1377 40.9587 23.3905C40.9587 23.3905 42.1648 20.7948 42.4962 19.3029C42.9355 17.3269 42.6604 13.3602 42.6604 13.3602C41.9247 16.4403 40.7436 18.9395 39.096 21.2278C39.096 21.2278 38.5583 23.1486 37.7686 24.3141C37.5476 24.6402 36.9516 25.1739 36.9516 25.1739C37.2897 25.0872 38.5758 24.6398 38.8139 24.4425C39.0621 24.2375 39.8216 23.1976 39.8216 23.1976C39.6407 25.0004 39.2283 26.2668 38.7104 27.3499C39.1437 27.0773 39.5505 26.7647 39.9254 26.4162L39.9239 26.4154ZM24.5021 26.4154C24.8134 27.2966 25.4257 28.1571 26.1801 29.0076C24.2893 28.1309 22.6553 27.0338 21.2781 25.7163C21.8352 25.9497 22.546 26.1104 23.4179 26.1925C22.4775 25.1222 21.8512 23.7559 21.2781 22.3464C21.9601 22.7867 22.6958 23.1377 23.4673 23.3905C23.4673 23.3905 22.2612 20.7948 21.9298 19.3029C21.4905 17.3269 21.7656 13.3602 21.7656 13.3602C22.5013 16.4403 23.6824 18.9395 25.33 21.2278C25.33 21.2278 25.8677 23.1486 26.6574 24.3141C26.8784 24.6402 27.4744 25.1739 27.4744 25.1739C27.1364 25.0872 25.8502 24.6398 25.6121 24.4425C25.3639 24.2375 24.6045 23.1976 24.6045 23.1976C24.7854 25.0004 25.1977 26.2668 25.7156 27.3499C25.2823 27.0773 24.8755 26.7647 24.5006 26.4162L24.5021 26.4154ZM60.2398 28.0735C59.6385 26.4932 58.9087 24.9648 58.0577 23.5038L58.3459 21.0438C59.098 23.2369 59.8753 25.5354 60.2398 28.0735ZM4.18619 28.0735C4.78751 26.4932 5.51734 24.9648 6.36835 23.5038L6.08006 21.0434C5.32999 23.2369 4.5519 25.5354 4.18619 28.0735ZM29.3636 24.7783C28.0798 24.1379 27.1204 23.1525 26.2559 22.2211C26.2559 22.2211 27.3313 24.0745 27.5098 24.2472C27.639 24.3725 28.5159 24.7191 28.8182 24.8137C28.9789 24.8639 29.3629 24.7783 29.3629 24.7783H29.3636ZM35.0624 24.7783C36.3462 24.1379 37.3056 23.1525 38.1701 22.2211C38.1701 22.2211 37.0947 24.0745 36.9162 24.2472C36.787 24.3725 35.9101 24.7191 35.6078 24.8137C35.4471 24.8639 35.0632 24.7783 35.0632 24.7783H35.0624ZM32.213 24.171C31.9617 24.085 31.7271 23.9169 31.4995 23.717C31.4536 24.0714 31.7784 24.3698 32.213 24.6507C32.6476 24.3686 32.9724 24.0702 32.9265 23.717C32.6989 23.9169 32.4643 24.085 32.213 24.171ZM32.213 9.57518C32.213 9.57518 30.7735 12.3288 29.883 13.3077C28.4568 14.8751 27.7686 16.031 27.2834 17.5144C27.1461 16.1049 27.5141 14.4853 28.0782 12.807C26.1003 15.0794 25.0826 17.0596 25.1604 18.6773C25.1604 18.6773 26.4637 20.9337 27.2846 21.8441C27.946 22.5782 29.4212 23.8523 29.967 24.1644C30.181 24.2869 30.6117 23.9558 30.5697 23.7162C30.4845 23.2275 30.0394 22.5043 29.5757 21.9417C29.1384 21.4115 28.6836 21.0415 28.507 20.5836C28.1957 19.7752 28.0919 18.8846 28.3832 18.0567C28.6101 18.8247 28.8279 19.6495 29.2839 20.2307C29.8367 20.9353 31.3824 22.2125 31.7738 22.7412L31.6364 23.068C31.8053 23.304 31.9985 23.5215 32.213 23.717C32.4284 23.5219 32.6226 23.3047 32.7923 23.0688L32.655 22.742C33.044 22.2133 34.5905 20.9361 35.1448 20.2315C35.5977 19.6503 35.8171 18.8259 36.0439 18.0575C36.3353 18.8854 36.2326 19.7759 35.9202 20.5844C35.7436 21.0423 35.2888 21.4123 34.8515 21.9425C34.3878 22.5051 33.9427 23.2283 33.8571 23.717C33.8155 23.9566 34.2462 24.2877 34.4601 24.1651C35.0048 23.8539 36.4808 22.579 37.1445 21.8449C37.9654 20.9333 39.2687 18.678 39.2687 18.678C39.3465 17.0604 38.3276 15.0802 36.3509 12.8077C36.915 14.4853 37.2846 16.1049 37.1457 17.5152C36.6606 16.0322 35.9723 14.8759 34.5461 13.3085C33.6525 12.3288 32.213 9.57518 32.213 9.57518Z" fill="#2C0C0B"/>
<path fill-rule="evenodd" clip-rule="evenodd" d="M36.4111 24.0002C36.4111 24.0002 36.6325 23.7714 36.9091 23.4882C37.0966 23.296 37.2386 22.8008 37.376 22.6568C37.6907 22.3312 38.0568 22.2351 38.3147 21.96C38.5377 21.7219 38.6567 21.3738 38.8477 21.1454C39.0387 20.917 39.4103 20.8878 39.6379 20.6855C40.1183 20.2556 41.7341 18.5637 41.7341 18.5637C41.7341 18.5637 40.0756 20.426 39.6379 20.8789C39.4823 21.0388 39.2169 21.089 39.108 21.2823C38.9769 21.5158 38.9878 21.8659 38.794 22.1503C38.5832 22.458 38.0938 22.6008 37.7576 22.9214C37.2853 23.3727 36.9363 24.1406 36.9363 24.1406L36.6022 24.2243L36.4111 24.0002Z" fill="#FDCE12"/>
<path fill-rule="evenodd" clip-rule="evenodd" d="M28.0148 24.0002C28.0148 24.0002 27.7934 23.7714 27.5168 23.4882C27.3293 23.296 27.1873 22.8008 27.05 22.6568C26.7352 22.3312 26.3691 22.2351 26.1112 21.96C25.8883 21.7219 25.7692 21.3738 25.5782 21.1454C25.3872 20.917 25.0157 20.8878 24.7881 20.6855C24.3076 20.2556 22.6919 18.5637 22.6919 18.5637C22.6919 18.5637 24.3504 20.426 24.7881 20.8789C24.9437 21.0388 25.209 21.089 25.3179 21.2823C25.4491 21.5158 25.4378 21.8659 25.6319 22.1503C25.8428 22.458 26.3322 22.6008 26.6683 22.9214C27.1406 23.3727 27.4896 24.1406 27.4896 24.1406L27.8238 24.2243L28.0148 23.9994V24.0002Z" fill="#FDCE12"/>
<path fill-rule="evenodd" clip-rule="evenodd" d="M42.5789 17.7755C42.6042 17.7961 42.5284 17.961 42.4941 18.0031C42.4681 18.035 42.3984 18.0482 42.3731 18.0276C42.3478 18.007 42.3109 17.9183 42.3432 17.879C42.3755 17.8397 42.554 17.7549 42.5789 17.7755Z" fill="#FDCE12"/>
<path fill-rule="evenodd" clip-rule="evenodd" d="M21.8469 17.7755C21.8216 17.7961 21.8974 17.961 21.9317 18.0031C21.9577 18.035 22.0274 18.0482 22.0527 18.0276C22.078 18.007 22.1145 17.9183 22.0826 17.879C22.0507 17.8397 21.8718 17.7549 21.8469 17.7755Z" fill="#FDCE12"/>
<path fill-rule="evenodd" clip-rule="evenodd" d="M49.1096 23.3182C49.131 23.2937 49.2932 23.375 49.3341 23.4104C49.3648 23.4376 49.3761 23.5077 49.3543 23.5322C49.3325 23.5567 49.243 23.5905 49.2049 23.5575C49.1668 23.5244 49.0882 23.3427 49.1096 23.3182Z" fill="#FDCE12"/>
<path fill-rule="evenodd" clip-rule="evenodd" d="M15.3163 23.3182C15.2949 23.2937 15.1327 23.375 15.0918 23.4104C15.0611 23.4376 15.0498 23.5077 15.0716 23.5322C15.0934 23.5567 15.1829 23.5905 15.221 23.5575C15.2591 23.5244 15.3377 23.3427 15.3163 23.3182Z" fill="#FDCE12"/>
<path fill-rule="evenodd" clip-rule="evenodd" d="M53.5735 29.4515C53.3123 29.167 53.0993 28.8417 52.9428 28.4886C52.758 28.0537 52.746 27.4818 52.5927 27.246C52.3141 26.8223 51.6706 26.5228 51.4582 26.2345C51.3127 26.0357 51.2466 25.6003 51.1054 25.3984C50.8719 25.0638 50.0549 24.2262 50.0549 24.2262C50.0549 24.2262 50.714 25.1525 50.9248 25.5101C51.0618 25.7435 51.1497 26.2061 51.3178 26.4162C51.5286 26.6799 51.9364 26.9955 52.139 27.3545C52.3515 27.7304 52.3985 28.1653 52.5935 28.5691C52.7814 28.9582 53.2937 29.8258 53.2937 29.8258L53.5758 29.4538L53.5735 29.4515Z" fill="#FDCE12"/>
<path fill-rule="evenodd" clip-rule="evenodd" d="M10.8542 29.4515C11.1155 29.1671 11.3284 28.8418 11.4845 28.4886C11.6697 28.0537 11.6817 27.4818 11.837 27.246C12.1151 26.8223 12.7586 26.5228 12.971 26.2345C13.1165 26.0357 13.1827 25.6003 13.3239 25.3984C13.5573 25.0638 14.3743 24.2262 14.3743 24.2262C14.3743 24.2262 13.7129 25.1525 13.5044 25.5101C13.3675 25.7435 13.2796 26.2061 13.1115 26.4162C12.9006 26.6799 12.4929 26.9955 12.2902 27.3545C12.0778 27.7304 12.0307 28.1653 11.8362 28.5691C11.6479 28.9582 11.1359 29.8258 11.1359 29.8258L10.8542 29.4515Z" fill="#FDCE12"/>
</g>
<defs>
<clipPath id="clip0_711:4489">
<rect width="64.4259" height="48" fill="white"/>
</clipPath>
</defs>
</svg>
