<svg width="24" height="24" viewBox="0 0 24 24" fill="none" xmlns="http://www.w3.org/2000/svg">
<path d="M13.5375 12C13.5412 13.3396 13.1474 14.6501 12.4059 15.7656C11.6644 16.8812 10.6085 17.7517 9.37203 18.2669C8.13554 18.7821 6.77398 18.9188 5.45974 18.6597C4.1455 18.4007 2.93767 17.7575 1.98917 16.8116C1.04066 15.8658 0.394138 14.6597 0.131441 13.3462C-0.131256 12.0327 0.0016886 10.6708 0.513444 9.43284C1.0252 8.19492 1.89275 7.13667 3.00627 6.39208C4.11979 5.64749 5.4292 5.25003 6.76873 5.25003C7.65673 5.24756 8.53648 5.42033 9.3576 5.75845C10.1787 6.09656 10.925 6.59337 11.5538 7.22041C12.1826 7.84746 12.6815 8.5924 13.0219 9.41257C13.3623 10.2327 13.5375 11.112 13.5375 12Z" fill="url(#paint0_radial_1733_825)"/>
<path d="M20.9624 12.0001C20.9624 15.5101 19.4474 18.3544 17.5874 18.3544C15.7274 18.3544 14.1937 15.5082 14.1937 12.0001C14.1937 8.49193 15.7087 5.64568 17.5687 5.64568C19.4287 5.64568 20.9437 8.49193 20.9437 12.0001" fill="url(#paint1_radial_1733_825)"/>
<path d="M23.9998 12C23.9998 15.1444 23.4673 17.6925 22.8092 17.6925C22.1511 17.6925 21.6186 15.1425 21.6186 12C21.6186 8.85753 22.153 6.30753 22.8092 6.30753C23.4655 6.30753 23.9998 8.85565 23.9998 12Z" fill="url(#paint2_radial_1733_825)"/>
<defs>
<radialGradient id="paint0_radial_1733_825" cx="0" cy="0" r="1" gradientUnits="userSpaceOnUse" gradientTransform="translate(8.18713 14.7893) rotate(75.2862) scale(8.955 10.7152)">
<stop stop-color="#FFD613"/>
<stop offset="1" stop-color="#FF9100"/>
</radialGradient>
<radialGradient id="paint1_radial_1733_825" cx="0" cy="0" r="1" gradientUnits="userSpaceOnUse" gradientTransform="translate(8.18713 14.7893) rotate(75.2862) scale(8.955 10.7152)">
<stop stop-color="#FFD613"/>
<stop offset="1" stop-color="#FF9100"/>
</radialGradient>
<radialGradient id="paint2_radial_1733_825" cx="0" cy="0" r="1" gradientUnits="userSpaceOnUse" gradientTransform="translate(8.18713 14.7893) rotate(75.2862) scale(8.955 10.7152)">
<stop stop-color="#FFD613"/>
<stop offset="1" stop-color="#FF9100"/>
</radialGradient>
</defs>
</svg>
