<svg width="24" height="24" viewBox="0 0 24 24" fill="none" xmlns="http://www.w3.org/2000/svg">
<g clip-path="url(#clip0_1733_823)">
<path d="M23.548 1.42308C23.1392 1.07808 22.4961 1.02933 21.8305 1.2937C21.1311 1.57495 2.03799 9.7312 1.25987 10.065C1.12674 10.125 -0.116385 10.5731 0.0111153 11.5968C0.123615 12.5175 1.12674 12.9 1.23737 12.9375L6.09174 14.5931C6.41424 15.6618 7.60112 19.6012 7.86362 20.4431C8.02861 20.9681 8.29486 21.6581 8.76174 21.7987C8.94333 21.8628 9.13834 21.8792 9.32809 21.8464C9.51785 21.8136 9.696 21.7326 9.84549 21.6112L12.8136 18.87L17.6042 22.5918L17.7186 22.6593C18.0124 22.7965 18.3319 22.87 18.6561 22.875C18.8831 22.8755 19.108 22.8316 19.318 22.7456C19.7849 22.5403 20.1553 22.1638 20.353 21.6937L23.9267 3.16495C24.1461 2.17495 23.8424 1.67058 23.548 1.42308ZM10.3742 15.2606L8.73549 19.6106L7.09861 14.1731L19.6611 4.92933L10.3742 15.2606Z" fill="url(#paint0_radial_1733_823)"/>
</g>
<defs>
<radialGradient id="paint0_radial_1733_823" cx="0" cy="0" r="1" gradientUnits="userSpaceOnUse" gradientTransform="translate(8.18904 16.4512) rotate(80.7172) scale(14.1003 10.9333)">
<stop stop-color="#FFD613"/>
<stop offset="1" stop-color="#FF9100"/>
</radialGradient>
<clipPath id="clip0_1733_823">
<rect width="24" height="24" fill="white"/>
</clipPath>
</defs>
</svg>
