<svg width="24" height="24" viewBox="0 0 24 24" fill="none" xmlns="http://www.w3.org/2000/svg">
<g clip-path="url(#clip0_1733_820)">
<path d="M21.5438 7.10435C21.5569 7.31623 21.5569 7.5281 21.5569 7.74185C21.5625 14.25 16.605 21.75 7.54688 21.75C4.87128 21.7523 2.25149 20.9849 0 19.5394C0.38893 19.5856 0.780205 19.6094 1.17188 19.6106C3.38992 19.6121 5.54406 18.8679 7.28813 17.4975C6.26056 17.4785 5.26462 17.1388 4.43961 16.5259C3.6146 15.9131 3.00179 15.0577 2.68687 14.0794C3.42485 14.2213 4.18553 14.1924 4.91062 13.995C3.79634 13.77 2.79418 13.1664 2.07413 12.2868C1.35407 11.4071 0.960441 10.3055 0.96 9.16873V9.10685C1.64268 9.48693 2.40652 9.69783 3.1875 9.72185C2.14639 9.02423 1.41008 7.95626 1.1283 6.73512C0.846528 5.51398 1.04045 4.23136 1.67062 3.1481C2.9061 4.66846 4.44747 5.91201 6.19469 6.79806C7.94191 7.68411 9.85593 8.19284 11.8125 8.29123C11.5685 7.23595 11.6788 6.12968 12.1265 5.1434C12.5742 4.15711 13.3342 3.34573 14.2892 2.83464C15.2441 2.32355 16.3408 2.14122 17.4098 2.31582C18.4787 2.49041 19.4604 3.01223 20.2031 3.8006C21.3055 3.58362 22.3626 3.17967 23.3288 2.60623C22.9614 3.74605 22.1925 4.71357 21.165 5.32873C22.1435 5.2145 23.0993 4.95345 24 4.55435C23.3386 5.54299 22.5069 6.40638 21.5438 7.10435Z" fill="url(#paint0_radial_1733_820)"/>
</g>
<defs>
<radialGradient id="paint0_radial_1733_820" cx="0" cy="0" r="1" gradientUnits="userSpaceOnUse" gradientTransform="translate(8.18719 15.9912) rotate(79.6672) scale(12.6809 10.8989)">
<stop stop-color="#FFD613"/>
<stop offset="1" stop-color="#FF9100"/>
</radialGradient>
<clipPath id="clip0_1733_820">
<rect width="24" height="24" fill="white"/>
</clipPath>
</defs>
</svg>
