<svg width="32" height="35" viewBox="0 0 32 35" fill="none" xmlns="http://www.w3.org/2000/svg">
<g filter="url(#filter0_d_1722_335)">
<path d="M19.8246 27.7333L7.97903 20.8814C7.56308 20.6407 7.30678 20.196 7.30678 19.7146V5.99506C7.30678 5.78735 7.08234 5.65793 6.90278 5.76161L4.47879 7.16484C3.56364 7.69482 3 8.6732 3 9.7317V21.2696C3 22.3281 3.56364 23.3065 4.47879 23.8365L14.4383 29.6021C15.3552 30.1328 16.4855 30.1328 17.402 29.6021L19.8246 28.1996C20.0038 28.0962 20.0038 27.8371 19.8246 27.7333Z" fill="url(#paint0_linear_1722_335)"/>
<path d="M10.1306 19.6309L15.2443 22.5914C15.661 22.8329 16.1747 22.8329 16.5917 22.5914L21.7061 19.6306C22.122 19.3899 22.3783 18.945 22.3783 18.4636V12.5393C22.3783 12.0583 22.122 11.6136 21.7061 11.3725L16.5917 8.41158C16.175 8.17016 15.6614 8.17016 15.2443 8.41158L13.9755 9.14597C13.8857 9.19788 13.7735 9.13296 13.7735 9.0293L13.7818 2.25709C13.7822 2.04937 13.5574 1.9196 13.3778 2.02327L10.1393 3.89812C9.72372 4.13881 9.46742 4.58324 9.46706 5.06391L9.45801 18.463C9.45801 18.9447 9.71432 19.3899 10.1306 19.6309ZM13.0918 14.3323C13.0918 14.0438 13.2457 13.7766 13.4951 13.6323L15.514 12.4636C15.7641 12.3189 16.0722 12.3189 16.3224 12.4636L18.3413 13.6323C18.591 13.777 18.7445 14.0438 18.7445 14.3323V16.6714C18.7445 16.96 18.5907 17.2272 18.3413 17.3715L16.3224 18.5402C16.0722 18.6848 15.7641 18.6848 15.514 18.5402L13.4951 17.3715C13.2453 17.2268 13.0918 16.96 13.0918 16.6714V14.3323Z" fill="url(#paint1_linear_1722_335)"/>
<path d="M27.3597 7.16082L17.4002 1.39527C16.9832 1.15349 16.5217 1.0219 16.0565 1.00015C15.9801 0.996527 15.916 1.05851 15.916 1.135V5.36391C15.916 5.46034 15.9674 5.54915 16.0507 5.59736L23.8599 10.1159C24.2758 10.3566 24.5321 10.8014 24.5321 11.2828V19.7105C24.5321 20.1915 24.2758 20.6363 23.8599 20.8774L18.4761 23.9942C18.2969 24.0978 18.2969 24.3574 18.4761 24.4611L22.1085 26.561C22.275 26.6575 22.4806 26.6575 22.6472 26.561L27.3597 23.8329C28.2749 23.3029 28.8385 22.3245 28.8385 21.266V9.72769C28.8385 8.66883 28.2749 7.69043 27.3597 7.16082Z" fill="url(#paint2_linear_1722_335)"/>
</g>
<defs>
<filter id="filter0_d_1722_335" x="0" y="0" width="31.8389" height="35" filterUnits="userSpaceOnUse" color-interpolation-filters="sRGB">
<feFlood flood-opacity="0" result="BackgroundImageFix"/>
<feColorMatrix in="SourceAlpha" type="matrix" values="0 0 0 0 0 0 0 0 0 0 0 0 0 0 0 0 0 0 127 0" result="hardAlpha"/>
<feOffset dy="2"/>
<feGaussianBlur stdDeviation="1.5"/>
<feColorMatrix type="matrix" values="0 0 0 0 0 0 0 0 0 0 0 0 0 0 0 0 0 0 0.3 0"/>
<feBlend mode="normal" in2="BackgroundImageFix" result="effect1_dropShadow_1722_335"/>
<feBlend mode="normal" in="SourceGraphic" in2="effect1_dropShadow_1722_335" result="shape"/>
</filter>
<linearGradient id="paint0_linear_1722_335" x1="11.4795" y1="5.7251" x2="11.4795" y2="30.0001" gradientUnits="userSpaceOnUse">
<stop stop-color="#6D67EE"/>
<stop offset="1" stop-color="#4B33D3"/>
</linearGradient>
<linearGradient id="paint1_linear_1722_335" x1="15.9182" y1="1.98682" x2="15.9182" y2="22.7725" gradientUnits="userSpaceOnUse">
<stop stop-color="#6D67EE"/>
<stop offset="1" stop-color="#4B33D3"/>
</linearGradient>
<linearGradient id="paint2_linear_1722_335" x1="22.3773" y1="1" x2="22.3773" y2="26.6334" gradientUnits="userSpaceOnUse">
<stop stop-color="#6D67EE"/>
<stop offset="1" stop-color="#4B33D3"/>
</linearGradient>
</defs>
</svg>
