<svg width="32" height="32" viewBox="0 0 32 32" fill="none" xmlns="http://www.w3.org/2000/svg">
<g filter="url(#filter0_d_2014_740)">
<path d="M16 1C23.7219 1 30 7.27813 30 15C30 22.7219 23.7219 29 16 29C8.27813 29 2 22.7219 2 15C2 7.27813 8.27813 1 16 1Z" fill="url(#paint0_linear_2014_740)"/>
<path d="M16 7.125C20.3531 7.125 23.875 10.6469 23.875 15C23.875 19.3531 20.3531 22.875 16 22.875C11.6469 22.875 8.125 19.3531 8.125 15C8.125 10.6469 11.6469 7.125 16 7.125Z" fill="white"/>
<path d="M14.25 12.375H17.75C18.2313 12.375 18.625 12.7687 18.625 13.25V16.75C18.625 17.2313 18.2313 17.625 17.75 17.625H14.25C13.7687 17.625 13.375 17.2313 13.375 16.75V13.25C13.375 12.7687 13.7687 12.375 14.25 12.375Z" fill="url(#paint1_linear_2014_740)"/>
</g>
<defs>
<filter id="filter0_d_2014_740" x="0" y="0" width="32" height="32" filterUnits="userSpaceOnUse" color-interpolation-filters="sRGB">
<feFlood flood-opacity="0" result="BackgroundImageFix"/>
<feColorMatrix in="SourceAlpha" type="matrix" values="0 0 0 0 0 0 0 0 0 0 0 0 0 0 0 0 0 0 127 0" result="hardAlpha"/>
<feOffset dy="1"/>
<feGaussianBlur stdDeviation="1"/>
<feColorMatrix type="matrix" values="0 0 0 0 0 0 0 0 0 0 0 0 0 0 0 0 0 0 0.3 0"/>
<feBlend mode="normal" in2="BackgroundImageFix" result="effect1_dropShadow_2014_740"/>
<feBlend mode="normal" in="SourceGraphic" in2="effect1_dropShadow_2014_740" result="shape"/>
</filter>
<linearGradient id="paint0_linear_2014_740" x1="16" y1="1" x2="16" y2="29" gradientUnits="userSpaceOnUse">
<stop stop-color="#2D66F5"/>
<stop offset="1" stop-color="#144ADF"/>
</linearGradient>
<linearGradient id="paint1_linear_2014_740" x1="16" y1="12.375" x2="16" y2="17.625" gradientUnits="userSpaceOnUse">
<stop stop-color="#2D66F5"/>
<stop offset="1" stop-color="#144ADF"/>
</linearGradient>
</defs>
</svg>
