<svg width="31" height="25" viewBox="0 0 31 25" fill="none" xmlns="http://www.w3.org/2000/svg">
<g filter="url(#filter0_d_2014_737)">
<path fill-rule="evenodd" clip-rule="evenodd" d="M22.416 1C25.5568 1 28.0937 3.49431 28.0937 6.58409C28.0937 7.53351 27.8516 8.42464 27.4286 9.25642C26.7042 8.72237 25.9195 8.24662 25.0735 7.94993C25.3146 7.53352 25.4362 7.0588 25.4362 6.58409C25.4362 4.97986 24.107 3.67337 22.4763 3.67337C20.8446 3.67337 19.5164 4.97986 19.5164 6.58409C19.5164 7.0588 19.6369 7.53352 19.8791 7.94993C19.0331 8.24662 18.1871 8.66303 17.523 9.25642C17.0397 8.42464 16.8578 7.53351 16.8578 6.58305C16.7383 3.49431 19.2753 1 22.416 1ZM8.58293 21.8498C5.4432 21.8498 2.90627 19.3555 2.90627 16.2667H5.62404C5.62404 17.8699 6.95331 19.1775 8.58397 19.1775C10.2146 19.1775 11.5439 17.8699 11.5439 16.2667H14.2617C14.2617 19.3555 11.7237 21.8498 8.58293 21.8498ZM8.58293 14.0087C4.95993 14.0087 2 11.098 2 7.53351C2 3.97006 4.95993 1 8.58397 1C12.208 1 15.2282 3.91072 15.2282 7.53351C15.1679 11.098 12.207 14.0087 8.58293 14.0087ZM22.416 21.8498C18.792 21.8498 15.7718 18.9391 15.7718 15.3746C15.7718 11.7518 18.7317 8.84105 22.416 8.84105C26.0401 8.84105 29 11.7518 29 15.3756C29 18.9391 26.0401 21.8498 22.416 21.8498ZM8.58376 3.65943C8.33624 3.65943 8.09412 3.6826 7.85946 3.72689C6.06205 4.06617 4.70249 5.64466 4.70249 7.5407C4.70249 9.2502 5.8077 10.7016 7.34256 11.2193C7.73228 11.3507 8.1497 11.422 8.58376 11.422C10.7273 11.422 12.465 9.68427 12.465 7.5407C12.465 5.39713 10.7273 3.65943 8.58376 3.65943ZM22.4152 19.1845C24.5587 19.1845 26.2964 17.4468 26.2964 15.3032C26.2964 13.1597 24.5587 11.422 22.4152 11.422C20.2716 11.422 18.5339 13.1597 18.5339 15.3032C18.5339 17.4468 20.2716 19.1845 22.4152 19.1845Z" fill="#D9B432"/>
</g>
<defs>
<filter id="filter0_d_2014_737" x="0" y="0" width="31" height="24.8499" filterUnits="userSpaceOnUse" color-interpolation-filters="sRGB">
<feFlood flood-opacity="0" result="BackgroundImageFix"/>
<feColorMatrix in="SourceAlpha" type="matrix" values="0 0 0 0 0 0 0 0 0 0 0 0 0 0 0 0 0 0 127 0" result="hardAlpha"/>
<feOffset dy="1"/>
<feGaussianBlur stdDeviation="1"/>
<feColorMatrix type="matrix" values="0 0 0 0 0 0 0 0 0 0 0 0 0 0 0 0 0 0 0.25 0"/>
<feBlend mode="normal" in2="BackgroundImageFix" result="effect1_dropShadow_2014_737"/>
<feBlend mode="normal" in="SourceGraphic" in2="effect1_dropShadow_2014_737" result="shape"/>
</filter>
</defs>
</svg>
