<svg width="39" height="21" viewBox="0 0 39 21" fill="none" xmlns="http://www.w3.org/2000/svg">
<g filter="url(#filter0_d_1722_371)">
<path fill-rule="evenodd" clip-rule="evenodd" d="M27.1205 7.54084C26.7682 7.18714 26.5703 6.70821 26.5703 6.20893C26.5703 5.70965 26.7682 5.23072 27.1205 4.87702C27.2941 4.70271 27.5004 4.56439 27.7275 4.47001C27.9547 4.37563 28.1983 4.32704 28.4442 4.32704C28.6902 4.32704 28.9338 4.37563 29.1609 4.47001C29.3881 4.56439 29.5944 4.70271 29.7679 4.87702C30.119 5.23142 30.316 5.71009 30.316 6.20893C30.316 6.70777 30.119 7.18644 29.7679 7.54084C29.5948 7.71581 29.3886 7.85471 29.1614 7.94951C28.9342 8.0443 28.6904 8.09311 28.4442 8.09311C28.1981 8.09311 27.9543 8.0443 27.7271 7.94951C27.4999 7.85471 27.2937 7.71581 27.1205 7.54084ZM20.8302 13.853C20.566 13.588 20.4176 13.229 20.4176 12.8548C20.4176 12.4806 20.566 12.1216 20.8302 11.8565C20.9602 11.7254 21.1148 11.6213 21.2852 11.5503C21.4556 11.4792 21.6384 11.4426 21.823 11.4426C22.0076 11.4426 22.1904 11.4792 22.3608 11.5503C22.5312 11.6213 22.6858 11.7254 22.8158 11.8565C23.08 12.1216 23.2283 12.4806 23.2283 12.8548C23.2283 13.229 23.08 13.588 22.8158 13.853C22.6858 13.9842 22.5312 14.0883 22.3608 14.1593C22.1904 14.2304 22.0076 14.267 21.823 14.267C21.6384 14.267 21.4556 14.2304 21.2852 14.1593C21.1148 14.0883 20.9602 13.9842 20.8302 13.853ZM30.7607 10.5246C30.4978 10.2589 30.3504 9.90019 30.3504 9.52639C30.3504 9.15259 30.4978 8.79388 30.7607 8.52814C30.8907 8.397 31.0453 8.2929 31.2157 8.22185C31.3861 8.15081 31.5689 8.11423 31.7535 8.11423C31.9381 8.11423 32.1209 8.15081 32.2913 8.22185C32.4617 8.2929 32.6163 8.397 32.7463 8.52814C33.0105 8.79318 33.1589 9.15216 33.1589 9.52639C33.1589 9.90063 33.0105 10.2596 32.7463 10.5246C32.6171 10.6565 32.463 10.7615 32.293 10.8334C32.123 10.9054 31.9404 10.943 31.7558 10.944C31.5712 10.9451 31.3882 10.9095 31.2174 10.8394C31.0466 10.7693 30.8914 10.666 30.7607 10.5356V10.5246ZM27.4515 13.853C27.1873 13.588 27.0389 13.229 27.0389 12.8548C27.0389 12.4806 27.1873 12.1216 27.4515 11.8565C27.5814 11.7254 27.736 11.6213 27.9064 11.5503C28.0768 11.4792 28.2596 11.4426 28.4442 11.4426C28.6289 11.4426 28.8116 11.4792 28.982 11.5503C29.1524 11.6213 29.3071 11.7254 29.437 11.8565C29.7012 12.1216 29.8496 12.4806 29.8496 12.8548C29.8496 13.229 29.7012 13.588 29.437 13.853C29.3071 13.9842 29.1524 14.0883 28.982 14.1593C28.8116 14.2304 28.6289 14.267 28.4442 14.267C28.2596 14.267 28.0768 14.2304 27.9064 14.1593C27.736 14.0883 27.5814 13.9842 27.4515 13.853ZM34.4036 13.5194C34.2276 13.343 34.1288 13.104 34.1288 12.8548C34.1288 12.6056 34.2276 12.3666 34.4036 12.1902C34.4916 12.104 34.5958 12.0361 34.7102 11.9904C34.8246 11.9448 34.9469 11.9223 35.0701 11.9244C35.1932 11.9264 35.3147 11.9529 35.4276 12.0023C35.5404 12.0517 35.6423 12.123 35.7273 12.2121C35.9021 12.3892 36 12.6279 36 12.8767C36 13.1254 35.9021 13.3642 35.7273 13.5413C35.6401 13.6282 35.5365 13.697 35.4225 13.7435C35.3085 13.7901 35.1864 13.8135 35.0632 13.8125C34.9401 13.8115 34.8183 13.786 34.7051 13.7376C34.5919 13.6891 34.4894 13.6187 34.4036 13.5303V13.5194ZM31.0917 16.8615C30.9155 16.6846 30.8165 16.4451 30.8165 16.1955C30.8165 15.9459 30.9155 15.7064 31.0917 15.5296C31.1785 15.4426 31.2817 15.3735 31.3953 15.3265C31.5088 15.2794 31.6306 15.2551 31.7535 15.2551C31.8764 15.2551 31.9982 15.2794 32.1117 15.3265C32.2253 15.3735 32.3285 15.4426 32.4154 15.5296C32.5915 15.7064 32.6905 15.9459 32.6905 16.1955C32.6905 16.4451 32.5915 16.6846 32.4154 16.8615C32.3289 16.9491 32.2258 17.0187 32.1122 17.0662C31.9986 17.1137 31.8766 17.1382 31.7535 17.1382C31.6304 17.1382 31.5084 17.1137 31.3948 17.0662C31.2812 17.0187 31.1782 16.9491 31.0917 16.8615ZM23.8085 10.8692C23.4575 10.5148 23.2605 10.0362 23.2605 9.53733C23.2605 9.03849 23.4575 8.55982 23.8085 8.20542C23.9823 8.03103 24.1889 7.89265 24.4162 7.79823C24.6436 7.70382 24.8874 7.65521 25.1336 7.65521C25.3798 7.65521 25.6236 7.70382 25.851 7.79823C26.0784 7.89265 26.2849 8.03103 26.4587 8.20542C26.8098 8.55982 27.0067 9.03849 27.0067 9.53733C27.0067 10.0362 26.8098 10.5148 26.4587 10.8692C26.2851 11.044 26.0786 11.1826 25.8512 11.2773C25.6238 11.3719 25.3799 11.4206 25.1336 11.4206C24.8873 11.4206 24.6434 11.3719 24.416 11.2773C24.1886 11.1826 23.9822 11.044 23.8085 10.8692ZM23.8085 4.21243C23.4577 3.8585 23.2608 3.38029 23.2608 2.88189C23.2608 2.3835 23.4577 1.90529 23.8085 1.55135C23.9822 1.37663 24.1886 1.23796 24.416 1.14334C24.6434 1.04871 24.8873 1 25.1336 1C25.3799 1 25.6238 1.04871 25.8512 1.14334C26.0786 1.23796 26.2851 1.37663 26.4587 1.55135C26.8096 1.90529 27.0065 2.3835 27.0065 2.88189C27.0065 3.38029 26.8096 3.8585 26.4587 4.21243C26.2851 4.38716 26.0786 4.52583 25.8512 4.62045C25.6238 4.71507 25.3799 4.76379 25.1336 4.76379C24.8873 4.76379 24.6434 4.71507 24.416 4.62045C24.1886 4.52583 23.9822 4.38716 23.8085 4.21243ZM20.4993 7.54084C20.1469 7.18714 19.949 6.70821 19.949 6.20893C19.949 5.70965 20.1469 5.23072 20.4993 4.87702C20.6728 4.70271 20.8791 4.56439 21.1063 4.47001C21.3334 4.37563 21.577 4.32704 21.823 4.32704C22.069 4.32704 22.3125 4.37563 22.5397 4.47001C22.7669 4.56439 22.9731 4.70271 23.1467 4.87702C23.4991 5.23072 23.6969 5.70965 23.6969 6.20893C23.6969 6.70821 23.4991 7.18714 23.1467 7.54084C22.9735 7.71581 22.7673 7.85471 22.5401 7.94951C22.3129 8.0443 22.0692 8.09311 21.823 8.09311C21.5768 8.09311 21.3331 8.0443 21.1058 7.94951C20.8786 7.85471 20.6725 7.71581 20.4993 7.54084ZM13.848 7.54084C13.4956 7.18714 13.2977 6.70821 13.2977 6.20893C13.2977 5.70965 13.4956 5.23072 13.848 4.87702C14.0215 4.70271 14.2278 4.56439 14.455 4.47001C14.6821 4.37563 14.9257 4.32704 15.1717 4.32704C15.4176 4.32704 15.6612 4.37563 15.8884 4.47001C16.1155 4.56439 16.3218 4.70271 16.4954 4.87702C16.8477 5.23072 17.0456 5.70965 17.0456 6.20893C17.0456 6.70821 16.8477 7.18714 16.4954 7.54084C16.3222 7.71581 16.116 7.85471 15.8888 7.94951C15.6616 8.0443 15.4178 8.09311 15.1717 8.09311C14.9255 8.09311 14.6817 8.0443 14.4545 7.94951C14.2273 7.85471 14.0211 7.71581 13.848 7.54084ZM7.55763 13.853C7.29342 13.588 7.14506 13.229 7.14506 12.8548C7.14506 12.4806 7.29342 12.1216 7.55763 11.8565C7.68756 11.7254 7.8422 11.6213 8.0126 11.5503C8.183 11.4792 8.36579 11.4426 8.5504 11.4426C8.73502 11.4426 8.91781 11.4792 9.08821 11.5503C9.25861 11.6213 9.41324 11.7254 9.54318 11.8565C9.80739 12.1216 9.95575 12.4806 9.95575 12.8548C9.95575 13.229 9.80739 13.588 9.54318 13.853C9.41324 13.9842 9.25861 14.0883 9.08821 14.1593C8.91781 14.2304 8.73502 14.267 8.5504 14.267C8.36579 14.267 8.183 14.2304 8.0126 14.1593C7.8422 14.0883 7.68756 13.9842 7.55763 13.853ZM17.4881 10.5356C17.2253 10.2698 17.0778 9.91113 17.0778 9.53733C17.0778 9.16353 17.2253 8.80482 17.4881 8.53908C17.6183 8.40785 17.7732 8.3037 17.9438 8.23262C18.1144 8.16153 18.2974 8.12494 18.4823 8.12494C18.6671 8.12494 18.8501 8.16153 19.0208 8.23262C19.1914 8.3037 19.3463 8.40785 19.4764 8.53908C19.7393 8.80482 19.8868 9.16353 19.8868 9.53733C19.8868 9.91113 19.7393 10.2698 19.4764 10.5356C19.3463 10.6668 19.1914 10.771 19.0208 10.842C18.8501 10.9131 18.6671 10.9497 18.4823 10.9497C18.2974 10.9497 18.1144 10.9131 17.9438 10.842C17.7732 10.771 17.6183 10.6668 17.4881 10.5356ZM14.1789 13.853C13.9147 13.588 13.7663 13.229 13.7663 12.8548C13.7663 12.4806 13.9147 12.1216 14.1789 11.8565C14.3088 11.7254 14.4635 11.6213 14.6339 11.5503C14.8043 11.4792 14.987 11.4426 15.1717 11.4426C15.3563 11.4426 15.5391 11.4792 15.7095 11.5503C15.8799 11.6213 16.0345 11.7254 16.1644 11.8565C16.4286 12.1216 16.577 12.4806 16.577 12.8548C16.577 13.229 16.4286 13.588 16.1644 13.853C16.0345 13.9842 15.8799 14.0883 15.7095 14.1593C15.5391 14.2304 15.3563 14.267 15.1717 14.267C14.987 14.267 14.8043 14.2304 14.6339 14.1593C14.4635 14.0883 14.3088 13.9842 14.1789 13.853ZM1.2673 13.5303C1.09588 13.3537 1 13.1173 1 12.8712C1 12.6251 1.09588 12.3887 1.2673 12.2121C1.3538 12.1244 1.45685 12.0548 1.57047 12.0073C1.68408 11.9598 1.80601 11.9354 1.92915 11.9354C2.0523 11.9354 2.17422 11.9598 2.28784 12.0073C2.40145 12.0548 2.5045 12.1244 2.591 12.2121C2.76703 12.3885 2.86589 12.6275 2.86589 12.8767C2.86589 13.1259 2.76703 13.3649 2.591 13.5413C2.50378 13.6282 2.40016 13.697 2.28615 13.7435C2.17214 13.7901 2.05001 13.8135 1.92687 13.8125C1.80372 13.8115 1.682 13.786 1.56877 13.7376C1.45555 13.6891 1.35307 13.6187 1.2673 13.5303ZM4.57929 16.8615C4.4031 16.6846 4.30417 16.4451 4.30417 16.1955C4.30417 15.9459 4.4031 15.7064 4.57929 15.5296C4.66617 15.4426 4.76934 15.3735 4.8829 15.3265C4.99647 15.2794 5.1182 15.2551 5.24115 15.2551C5.36409 15.2551 5.48582 15.2794 5.59939 15.3265C5.71296 15.3735 5.81613 15.4426 5.903 15.5296C6.08102 15.7046 6.18242 15.943 6.18498 16.1927C6.18754 16.4423 6.09106 16.6828 5.91667 16.8615C5.82995 16.9512 5.72606 17.0226 5.61118 17.0713C5.4963 17.1201 5.37278 17.1452 5.24798 17.1452C5.12319 17.1452 4.99967 17.1201 4.88479 17.0713C4.76991 17.0226 4.66601 16.9512 4.57929 16.8615ZM17.8191 16.8615C17.6442 16.6839 17.5462 16.4447 17.5462 16.1955C17.5462 15.9463 17.6442 15.7071 17.8191 15.5296C17.9059 15.4426 18.0091 15.3735 18.1227 15.3265C18.2362 15.2794 18.358 15.2551 18.4809 15.2551C18.6039 15.2551 18.7256 15.2794 18.8392 15.3265C18.9527 15.3735 19.0559 15.4426 19.1428 15.5296C19.319 15.7064 19.4179 15.9459 19.4179 16.1955C19.4179 16.4451 19.319 16.6846 19.1428 16.8615C19.0563 16.9491 18.9532 17.0187 18.8396 17.0662C18.726 17.1137 18.6041 17.1382 18.4809 17.1382C18.3578 17.1382 18.2358 17.1137 18.1222 17.0662C18.0086 17.0187 17.9056 16.9491 17.8191 16.8615ZM4.24837 10.5356C3.98416 10.2705 3.8358 9.91157 3.8358 9.53733C3.8358 9.1631 3.98416 8.80412 4.24837 8.53908C4.37831 8.40794 4.53294 8.30384 4.70334 8.23279C4.87374 8.16175 5.05653 8.12517 5.24115 8.12517C5.42576 8.12517 5.60855 8.16175 5.77895 8.23279C5.94935 8.30384 6.10398 8.40794 6.23392 8.53908C6.49681 8.80482 6.64425 9.16353 6.64425 9.53733C6.64425 9.91113 6.49681 10.2698 6.23392 10.5356C6.10398 10.6667 5.94935 10.7708 5.77895 10.8419C5.60855 10.9129 5.42576 10.9495 5.24115 10.9495C5.05653 10.9495 4.87374 10.9129 4.70334 10.8419C4.53294 10.7708 4.37831 10.6667 4.24837 10.5356ZM10.5387 10.8692C10.1876 10.5148 9.99068 10.0362 9.99068 9.53733C9.99068 9.03849 10.1876 8.55982 10.5387 8.20542C10.7125 8.03103 10.919 7.89265 11.1464 7.79823C11.3738 7.70382 11.6176 7.65521 11.8638 7.65521C12.11 7.65521 12.3538 7.70382 12.5811 7.79823C12.8085 7.89265 13.015 8.03103 13.1888 8.20542C13.5399 8.55982 13.7368 9.03849 13.7368 9.53733C13.7368 10.0362 13.5399 10.5148 13.1888 10.8692C13.0152 11.0444 12.8086 11.1834 12.5809 11.2783C12.3532 11.3731 12.109 11.422 11.8624 11.422C11.6158 11.422 11.3716 11.3731 11.1439 11.2783C10.9162 11.1834 10.7096 11.0444 10.536 10.8692H10.5387ZM10.5387 4.21243C10.1878 3.8585 9.99092 3.38029 9.99092 2.88189C9.99092 2.3835 10.1878 1.90529 10.5387 1.55135C10.7123 1.37663 10.9188 1.23796 11.1462 1.14334C11.3736 1.04871 11.6175 1 11.8638 1C12.1101 1 12.354 1.04871 12.5814 1.14334C12.8088 1.23796 13.0152 1.37663 13.1888 1.55135C13.5397 1.90529 13.7366 2.3835 13.7366 2.88189C13.7366 3.38029 13.5397 3.8585 13.1888 4.21243C13.0152 4.38757 12.8086 4.52659 12.5809 4.62145C12.3532 4.71632 12.109 4.76516 11.8624 4.76516C11.6158 4.76516 11.3716 4.71632 11.1439 4.62145C10.9162 4.52659 10.7096 4.38757 10.536 4.21243H10.5387ZM7.2267 7.54084C6.87564 7.18644 6.67869 6.70777 6.67869 6.20893C6.67869 5.71009 6.87564 5.23142 7.2267 4.87702C7.40026 4.70271 7.60654 4.56439 7.8337 4.47001C8.06086 4.37563 8.30442 4.32704 8.5504 4.32704C8.79639 4.32704 9.03995 4.37563 9.26711 4.47001C9.49427 4.56439 9.70055 4.70271 9.87411 4.87702C10.2265 5.23072 10.4244 5.70965 10.4244 6.20893C10.4244 6.70821 10.2265 7.18714 9.87411 7.54084C9.70092 7.71581 9.49476 7.85471 9.26755 7.94951C9.04034 8.0443 8.79659 8.09311 8.5504 8.09311C8.30421 8.09311 8.06047 8.0443 7.83326 7.94951C7.60605 7.85471 7.39989 7.71581 7.2267 7.54084Z" fill="#1D222A"/>
</g>
<defs>
<filter id="filter0_d_1722_371" x="0" y="0" width="39" height="20.145" filterUnits="userSpaceOnUse" color-interpolation-filters="sRGB">
<feFlood flood-opacity="0" result="BackgroundImageFix"/>
<feColorMatrix in="SourceAlpha" type="matrix" values="0 0 0 0 0 0 0 0 0 0 0 0 0 0 0 0 0 0 127 0" result="hardAlpha"/>
<feOffset dx="1" dy="1"/>
<feGaussianBlur stdDeviation="1"/>
<feColorMatrix type="matrix" values="0 0 0 0 0 0 0 0 0 0 0 0 0 0 0 0 0 0 0.3 0"/>
<feBlend mode="normal" in2="BackgroundImageFix" result="effect1_dropShadow_1722_371"/>
<feBlend mode="normal" in="SourceGraphic" in2="effect1_dropShadow_1722_371" result="shape"/>
</filter>
</defs>
</svg>
