<svg width="33" height="31" viewBox="0 0 33 31" fill="none" xmlns="http://www.w3.org/2000/svg">
<g filter="url(#filter0_d_1722_340)">
<path d="M28.6715 1L18.1035 8.78359L20.0652 4.20625L28.6715 1Z" fill="#E17726"/>
<path d="M4.3291 1L14.7916 8.84688L12.9143 4.18516L4.3291 1Z" fill="#E27625"/>
<path d="M24.8738 19.0352L22.0684 23.3172L28.0801 24.9625L29.7887 19.1406L24.8738 19.0352Z" fill="#E27625"/>
<path d="M3.21094 19.1195L4.91953 24.9414L10.9312 23.2961L8.12578 19.0352L3.21094 19.1195Z" fill="#E27625"/>
<path d="M10.6152 11.8213L8.92773 14.3314L14.8973 14.6057L14.6863 8.23535L10.6152 11.8213Z" fill="#E27625"/>
<path d="M22.4066 11.8212L18.2512 8.15088L18.1035 14.6056L24.073 14.3313L22.4066 11.8212Z" fill="#E27625"/>
<path d="M10.9316 23.3171L14.5176 21.5874L11.4379 19.1616L10.9316 23.3171Z" fill="#E27625"/>
<path d="M18.4824 21.5663L22.0684 23.296L21.5621 19.1616L18.4824 21.5663Z" fill="#E27625"/>
<path d="M22.0684 23.3171L18.4824 21.5874L18.7566 23.9077L18.7355 24.878L22.0684 23.3171Z" fill="#D5BFB2"/>
<path d="M10.9316 23.3171L14.2645 24.878L14.2434 23.9077L14.5176 21.5874L10.9316 23.3171Z" fill="#D5BFB2"/>
<path d="M14.3273 17.6428L11.332 16.7779L13.4414 15.8076L14.3273 17.6428Z" fill="#233447"/>
<path d="M18.6729 17.6428L19.5588 15.8076L21.6893 16.7779L18.6729 17.6428Z" fill="#233447"/>
<path d="M10.9309 23.3172L11.4582 19.0352L8.14648 19.1195L10.9309 23.3172Z" fill="#CC6228"/>
<path d="M21.541 19.0352L22.0684 23.3172L24.8738 19.1406L21.541 19.0352Z" fill="#CC6228"/>
<path d="M24.073 14.3311L18.1035 14.6053L18.652 17.6428L19.5379 15.8076L21.6684 16.7779L24.073 14.3311Z" fill="#CC6228"/>
<path d="M11.3535 16.7569L13.4629 15.7866L14.3488 17.6218L14.8973 14.5843L8.92773 14.3101L11.3535 16.7569Z" fill="#CC6228"/>
<path d="M8.92773 14.3311L11.4379 19.1826L11.3535 16.7779L8.92773 14.3311Z" fill="#E27525"/>
<path d="M21.668 16.7569L21.5625 19.1616L24.0727 14.3101L21.668 16.7569Z" fill="#E27525"/>
<path d="M14.8971 14.6055L14.3486 17.643L15.0447 21.2289L15.1924 16.5039L14.8971 14.6055Z" fill="#E27525"/>
<path d="M18.1033 14.6055L17.8291 16.4828L17.9557 21.2289L18.6518 17.643L18.1033 14.6055Z" fill="#E27525"/>
<path d="M18.6727 17.6428L17.9766 21.2287L18.4828 21.5873L21.5625 19.1615L21.668 16.7568L18.6727 17.6428Z" fill="#F5841F"/>
<path d="M11.3535 16.7568L11.4379 19.1615L14.5176 21.5662L15.0238 21.2076L14.3277 17.6217L11.3535 16.7568Z" fill="#F5841F"/>
<path d="M18.7363 24.8783L18.7574 23.908L18.5043 23.676H14.4965L14.2434 23.908L14.2645 24.8783L10.9316 23.3174L12.0918 24.2666L14.4543 25.8908H18.5043L20.8668 24.2666L22.027 23.3174L18.7363 24.8783Z" fill="#C0AC9D"/>
<path d="M18.483 21.5666L17.9768 21.208H15.0236L14.5174 21.5666L14.2432 23.8869L14.4963 23.6549H18.5041L18.7572 23.8869L18.483 21.5666Z" fill="#161616"/>
<path d="M29.1137 9.28984L29.9996 4.98672L28.6707 1L18.4824 8.50937L22.4059 11.8211L27.9324 13.4242L29.1559 12.0109L28.6285 11.6313L29.4934 10.8719L28.8395 10.3656L29.6832 9.73281L29.1137 9.28984Z" fill="#763E1A"/>
<path d="M3 4.98672L3.90703 9.28984L3.3375 9.71172L4.18125 10.3445L3.52734 10.8508L4.39219 11.6102L3.84375 12.0109L5.06719 13.4242L10.6148 11.8211L14.5383 8.53047L4.32891 1L3 4.98672Z" fill="#763E1A"/>
<path d="M27.9328 13.4244L22.4062 11.8213L24.0727 14.3314L21.5625 19.1619L24.8742 19.1197H29.7891L27.9328 13.4244Z" fill="#F5841F"/>
<path d="M10.6148 11.8213L5.06719 13.4244L3.21094 19.1197H8.12578L11.4375 19.1619L8.92734 14.3104L10.6148 11.8213Z" fill="#F5841F"/>
<path d="M18.1035 14.6053L18.4621 8.53027L20.0652 4.20605H12.9355L14.5387 8.53027L14.8973 14.6053L15.0238 16.5037V21.2287H17.977V16.5037L18.1035 14.6053Z" fill="#F5841F"/>
</g>
<defs>
<filter id="filter0_d_1722_340" x="0" y="0" width="33" height="30.8906" filterUnits="userSpaceOnUse" color-interpolation-filters="sRGB">
<feFlood flood-opacity="0" result="BackgroundImageFix"/>
<feColorMatrix in="SourceAlpha" type="matrix" values="0 0 0 0 0 0 0 0 0 0 0 0 0 0 0 0 0 0 127 0" result="hardAlpha"/>
<feOffset dy="2"/>
<feGaussianBlur stdDeviation="1.5"/>
<feColorMatrix type="matrix" values="0 0 0 0 0 0 0 0 0 0 0 0 0 0 0 0 0 0 0.3 0"/>
<feBlend mode="normal" in2="BackgroundImageFix" result="effect1_dropShadow_1722_340"/>
<feBlend mode="normal" in="SourceGraphic" in2="effect1_dropShadow_1722_340" result="shape"/>
</filter>
</defs>
</svg>
