<svg width="33" height="32" viewBox="0 0 33 32" fill="none" xmlns="http://www.w3.org/2000/svg">
<g filter="url(#filter0_d_1722_374)">
<path d="M13.8041 8.47109V2.83455H3.35272C3.30576 2.83181 3.25875 2.83904 3.21478 2.85577C3.17081 2.87249 3.13088 2.89834 3.09762 2.9316C3.06435 2.96487 3.03851 3.00479 3.02178 3.04876C3.00505 3.09273 2.99782 3.13974 3.00057 3.1867V11.1521C2.99782 11.199 3.00505 11.246 3.02178 11.29C3.03851 11.334 3.06435 11.3739 3.09762 11.4072C3.13088 11.4404 3.17081 11.4663 3.21478 11.483C3.25875 11.4997 3.30576 11.507 3.35272 11.5042H7.37732V26.0179C7.37516 26.0647 7.3829 26.1115 7.40002 26.1551C7.41715 26.1987 7.44328 26.2382 7.4767 26.2711C7.51013 26.3039 7.55011 26.3293 7.59402 26.3456C7.63794 26.362 7.68481 26.3689 7.73157 26.3659H14.2967C14.3438 26.3689 14.3911 26.3619 14.4353 26.3454C14.4795 26.3288 14.5197 26.303 14.5532 26.2697C14.5867 26.2364 14.6127 26.1963 14.6296 26.1522C14.6464 26.1081 14.6537 26.0609 14.6509 26.0137V8.47109H13.8041Z" fill="#29AEFF"/>
<path d="M21.0755 1.00286H11.6848C11.6378 1.00012 11.5908 1.00735 11.5468 1.02408C11.5028 1.04081 11.4629 1.06665 11.4296 1.09992C11.3964 1.13318 11.3705 1.17311 11.3538 1.21708C11.3371 1.26104 11.3299 1.30806 11.3326 1.35502V24.1821C11.3299 24.229 11.3371 24.276 11.3538 24.32C11.3705 24.364 11.3964 24.4039 11.4296 24.4372C11.4629 24.4704 11.5028 24.4963 11.5468 24.513C11.5908 24.5297 11.6378 24.5369 11.6848 24.5342H18.252C18.2989 24.5369 18.346 24.5297 18.3899 24.513C18.4339 24.4963 18.4738 24.4704 18.5071 24.4372C18.5403 24.4039 18.5662 24.364 18.5829 24.32C18.5996 24.276 18.6069 24.229 18.6041 24.1821V18.4009H21.1468C22.305 18.4211 23.4557 18.2099 24.5312 17.7795C25.6067 17.3491 26.5855 16.7084 27.4101 15.8947C28.2347 15.0811 28.8885 14.111 29.3332 13.0413C29.7779 11.9716 30.0045 10.8239 29.9998 9.66546C29.995 8.50704 29.759 7.36122 29.3056 6.29522C28.8521 5.22922 28.1904 4.26449 27.3591 3.45763C26.5279 2.65077 25.5439 2.01802 24.4649 1.59649C23.3859 1.17496 22.2335 0.973145 21.0755 1.00286Z" fill="#2761E7"/>
</g>
<defs>
<filter id="filter0_d_1722_374" x="0" y="0" width="33" height="31.3667" filterUnits="userSpaceOnUse" color-interpolation-filters="sRGB">
<feFlood flood-opacity="0" result="BackgroundImageFix"/>
<feColorMatrix in="SourceAlpha" type="matrix" values="0 0 0 0 0 0 0 0 0 0 0 0 0 0 0 0 0 0 127 0" result="hardAlpha"/>
<feOffset dy="2"/>
<feGaussianBlur stdDeviation="1.5"/>
<feColorMatrix type="matrix" values="0 0 0 0 0 0 0 0 0 0 0 0 0 0 0 0 0 0 0.3 0"/>
<feBlend mode="normal" in2="BackgroundImageFix" result="effect1_dropShadow_1722_374"/>
<feBlend mode="normal" in="SourceGraphic" in2="effect1_dropShadow_1722_374" result="shape"/>
</filter>
</defs>
</svg>
