<svg width="38" height="38" viewBox="0 0 38 38" fill="none" xmlns="http://www.w3.org/2000/svg">
<path d="M11.6201 15.968L19 8.58803L26.3834 15.9712L30.6774 11.6771L19 0L7.3264 11.6736L11.6202 15.9677L11.6201 15.968ZM0 19.0001L4.29415 14.7053L8.588 18.9992L4.29385 23.2933L0 19.0001ZM11.6201 22.0326L19 29.4121L26.3832 22.0291L30.6795 26.3209L30.6774 26.3232L19 38.0002L7.3264 26.3265L7.32032 26.3204L11.6206 22.0322L11.6201 22.0326ZM29.412 19.0019L33.7062 14.7077L38 19.0016L33.706 23.2958L29.412 19.0019Z" fill="#F3BA2F"/>
<path d="M23.3552 18.9979H23.3571L19.0001 14.6406L15.7797 17.8602L15.4097 18.2303L14.6467 18.9935L14.6406 18.9994L14.6467 19.0056L19.0001 23.3597L23.3574 19.0024L23.3595 19L23.3555 18.9979" fill="#F3BA2F"/>
</svg>
