<svg width="40" height="48" viewBox="0 0 40 48" fill="none" xmlns="http://www.w3.org/2000/svg">
<path d="M25.0067 14.3709C25.7407 11.1287 23.3606 9.15405 20.0315 7.72336L21.4882 3.3543L18.8302 2.46605L17.4315 6.71642C16.7121 6.49024 15.9927 6.26406 15.2733 6.03788L16.7001 1.7404L14.0403 0.876611L12.608 5.2475L7.2414 3.4918L6.29267 6.32417C6.29267 6.32417 8.28371 6.94096 8.23306 6.96177C9.31126 7.31328 9.45149 8.06197 9.38305 8.64738L5.39213 20.6265C5.22 20.9581 4.866 21.4237 4.09961 21.1693C4.12035 21.2201 2.15922 20.5317 2.15922 20.5317L0.583765 23.5386L5.94851 25.3187L4.48816 29.7367L7.14612 30.625L8.6028 26.2559C9.32038 26.5066 10.038 26.7572 10.733 26.9816L9.30252 31.328L11.9605 32.2163L13.4208 27.7983C17.9924 29.0268 21.4859 28.9197 23.2641 24.8454C24.6889 21.5566 23.6134 19.5321 21.268 18.0767C23.0547 17.817 24.4852 16.7432 25.0067 14.3709ZM18.1557 22.5923C17.0727 25.9067 11.5231 23.6452 9.7255 23.0675L11.6639 17.1844C13.4597 17.7866 19.2986 19.1348 18.1557 22.5923ZM19.665 13.9212C18.679 16.923 14.0593 15.0264 12.551 14.5197L14.3007 9.18833C15.8091 9.69512 20.6864 10.7744 19.665 13.9212Z" fill="#F6921A"/>
<path d="M38.0067 28.3709C38.7407 25.1287 36.3606 23.1541 33.0315 21.7234L34.4882 17.3543L31.8302 16.466L30.4315 20.7164C29.7121 20.4902 28.9927 20.2641 28.2733 20.0379L29.7001 15.7404L27.0403 14.8766L25.608 19.2475L20.2414 17.4918L19.2927 20.3242C19.2927 20.3242 21.2837 20.941 21.2331 20.9618C22.3113 21.3133 22.4515 22.062 22.383 22.6474L18.3921 34.6265C18.22 34.9581 17.866 35.4237 17.0996 35.1693C17.1203 35.2201 15.1592 34.5317 15.1592 34.5317L13.5838 37.5386L18.9485 39.3187L17.4882 43.7367L20.1461 44.625L21.6028 40.2559C22.3204 40.5066 23.038 40.7572 23.733 40.9816L22.3025 45.328L24.9605 46.2163L26.4208 41.7983C30.9924 43.0268 34.4859 42.9197 36.2641 38.8454C37.6889 35.5566 36.6134 33.5321 34.268 32.0767C36.0547 31.817 37.4852 30.7432 38.0067 28.3709ZM31.1557 36.5923C30.0727 39.9067 24.5231 37.6452 22.7255 37.0675L24.6639 31.1844C26.4597 31.7866 32.2986 33.1348 31.1557 36.5923ZM32.665 27.9212C31.679 30.923 27.0593 29.0264 25.551 28.5197L27.3007 23.1883C28.8091 23.6951 33.6864 24.7744 32.665 27.9212Z" fill="#F6921A"/>
</svg>
