<svg width="38" height="39" viewBox="0 0 38 39" fill="none" xmlns="http://www.w3.org/2000/svg">
<path fill-rule="evenodd" clip-rule="evenodd" d="M6.83281 5.99369C6.23344 2.87697 8.63091 0 11.7476 0C14.5047 0 16.7823 2.2776 16.7823 5.0347V11.2681C17.5016 11.2681 18.2208 11.1483 18.9401 11.1483C19.6593 11.1483 20.2587 11.1483 20.9779 11.2681V5.0347C20.9779 2.2776 23.2555 0 26.0126 0C29.1293 0 31.5268 2.87697 31.0473 5.99369L29.7287 13.306C34.4038 15.3438 38 18.9401 38 23.3754V26.1325C38 29.8486 35.6025 32.9653 32.1262 35.0032C28.6498 37.1609 24.0946 38.3596 18.9401 38.3596C13.7855 38.3596 9.23028 37.1609 5.75394 35.0032C2.39748 32.9653 0 29.8486 0 26.1325V23.3754C0 18.9401 3.47634 15.3438 8.15142 13.306L6.83281 5.99369ZM27.9306 14.265L29.489 5.63407C29.8486 3.47634 28.2902 1.43849 26.0126 1.43849C24.0946 1.43849 22.5363 2.99685 22.5363 4.91483V12.8265C22.0568 12.7066 21.4574 12.7066 20.9779 12.7066C20.2587 12.7066 19.6593 12.5868 18.9401 12.5868C18.2208 12.5868 17.5016 12.5868 16.7823 12.7066C16.3028 12.7066 15.7035 12.8265 15.224 12.8265V5.0347C15.224 3.11672 13.6656 1.55836 11.7476 1.55836C9.58991 1.55836 7.91167 3.59621 8.39117 5.75394L9.94953 14.3849C4.91483 16.3028 1.55836 19.6593 1.55836 23.4953V26.2524C1.55836 32.1262 9.35016 36.9211 18.9401 36.9211C28.53 36.9211 36.3218 32.1262 36.3218 26.2524V23.4953C36.4416 19.5394 33.0852 16.183 27.9306 14.265Z" fill="#633001"/>
<path d="M36.4421 26.1325C36.4421 32.0063 28.6503 36.8012 19.0604 36.8012C9.47051 36.8012 1.67871 32.0063 1.67871 26.1325V23.3754H36.562V26.1325H36.4421Z" fill="#FEDC90"/>
<path fill-rule="evenodd" clip-rule="evenodd" d="M8.39164 5.75406C7.91215 3.59633 9.59038 1.55847 11.7481 1.55847C13.6661 1.55847 15.2245 3.11683 15.2245 5.03481V12.9465C16.4232 12.8266 17.6219 12.7067 18.9405 12.7067C20.1393 12.7067 21.338 12.8266 22.5368 12.9465V5.03481C22.5368 3.11683 24.0951 1.55847 26.0131 1.55847C28.1708 1.55847 29.8491 3.59633 29.4894 5.75406L27.9311 14.385C32.9658 16.303 36.4421 19.6594 36.4421 23.4954C36.4421 29.3692 28.6503 34.1641 19.0604 34.1641C9.47051 34.1641 1.67871 29.3692 1.67871 23.4954C1.67871 19.6594 5.03518 16.303 10.0699 14.385L8.39164 5.75406Z" fill="#D1884F"/>
<path d="M14.1446 22.6561C14.1446 24.2145 13.3054 25.5331 12.2266 25.5331C11.1477 25.5331 10.3086 24.2145 10.3086 22.6561C10.3086 21.0978 11.1477 19.7792 12.2266 19.7792C13.3054 19.7792 14.1446 21.0978 14.1446 22.6561Z" fill="#633001"/>
<path d="M27.4512 22.6561C27.4512 24.2145 26.6121 25.5331 25.5332 25.5331C24.4543 25.5331 23.6152 24.2145 23.6152 22.6561C23.6152 21.0978 24.4543 19.7792 25.5332 19.7792C26.6121 19.7792 27.4512 21.0978 27.4512 22.6561Z" fill="#633001"/>
</svg>
