<svg width="35" height="30" viewBox="0 0 35 30" fill="none" xmlns="http://www.w3.org/2000/svg">
<path fill-rule="evenodd" clip-rule="evenodd" d="M4.18359 0H16.2422C23.5703 0 29.1484 3.9477 31.2266 9.68981H35V13.1682H32.0195C32.0742 13.7203 32.1016 14.2725 32.1016 14.8522V14.9074C32.1016 15.5424 32.0742 16.1773 31.9922 16.7846H35V20.263H31.1719C29.0391 25.9223 23.5156 29.8148 16.2695 29.8148H4.18359V20.263H0V16.7846H4.18359V13.1406H0V9.68981H4.18359V0ZM7.57422 20.263V26.7229H16.2695C21.6289 26.7229 25.6211 24.1279 27.4805 20.263H7.57422ZM28.4922 16.7846H7.57422V13.1406H28.5195C28.6016 13.7203 28.6289 14.3001 28.6289 14.9074V14.9902C28.6289 15.5976 28.5742 16.2049 28.4922 16.7846ZM16.2695 3.09191C21.6562 3.09191 25.6484 5.74211 27.5078 9.66221H7.57422V3.09191H16.2695Z" fill="#F9A606"/>
</svg>
