<svg width="52" height="24" viewBox="0 0 52 24" fill="none" xmlns="http://www.w3.org/2000/svg">
<path d="M12.1657 7.0782e-07L18.518 4.31339L14.4871 4.31572V19.7839L12.1844 23.2585C12.1844 23.2585 12.161 -0.00468521 12.1657 7.0782e-07Z" fill="url(#paint0_linear_1837_577)"/>
<path d="M15.0684 5.12867H24.0001L15.0801 19.3597C15.0801 19.3597 15.0684 5.11929 15.0684 5.12867Z" fill="url(#paint1_linear_1837_577)"/>
<path d="M11.8324 7.0782e-07L5.48242 4.31339L9.51328 4.31572V19.7839L11.816 23.2585C11.8136 23.2585 11.8371 -0.00468521 11.8324 7.0782e-07Z" fill="url(#paint2_linear_1837_577)"/>
<path d="M8.92937 5.12867H0L8.91762 19.3597C8.91762 19.3597 8.92937 5.11929 8.92937 5.12867Z" fill="url(#paint3_linear_1837_577)"/>
<path d="M39.9996 0L42.9733 3.03563L35.4864 10.5L32.5127 7.53562L39.9996 0Z" fill="#F0B90B"/>
<path d="M44.5127 4.5L47.4864 7.53562L35.4864 19.5L32.5127 16.5356L44.5127 4.5Z" fill="#F0B90B"/>
<path d="M30.9737 9L33.9456 12.0356L30.9737 15L28 12.0356L30.9737 9Z" fill="#F0B90B"/>
<path d="M49.0264 9L52.0001 12.0356L40.0001 24L37.0264 21.0356L49.0264 9Z" fill="#F0B90B"/>
<defs>
<linearGradient id="paint0_linear_1837_577" x1="15.3415" y1="23.2581" x2="15.3415" y2="-0.000407576" gradientUnits="userSpaceOnUse">
<stop stop-color="#E89D9F"/>
<stop offset="1" stop-color="#9FC7FE"/>
</linearGradient>
<linearGradient id="paint1_linear_1837_577" x1="19.5342" y1="19.3593" x2="19.5342" y2="5.12826" gradientUnits="userSpaceOnUse">
<stop stop-color="#E89D9F"/>
<stop offset="1" stop-color="#9FC7FE"/>
</linearGradient>
<linearGradient id="paint2_linear_1837_577" x1="8.6577" y1="23.2581" x2="8.6577" y2="-0.000407576" gradientUnits="userSpaceOnUse">
<stop stop-color="#E89D9F"/>
<stop offset="1" stop-color="#9FC7FE"/>
</linearGradient>
<linearGradient id="paint3_linear_1837_577" x1="4.46466" y1="19.3593" x2="4.46466" y2="5.12826" gradientUnits="userSpaceOnUse">
<stop stop-color="#E89D9F"/>
<stop offset="1" stop-color="#9FC7FE"/>
</linearGradient>
</defs>
</svg>
