<svg width="43" height="44" viewBox="0 0 43 44" fill="none" xmlns="http://www.w3.org/2000/svg">
<path d="M43.0004 32.7814C43.0004 32.4939 42.9824 32.1884 42.9644 31.9009C42.9465 31.6134 42.9105 31.3079 42.8566 31.0204C42.8027 30.733 42.7488 30.4455 42.6769 30.158C42.6051 29.8705 42.5332 29.583 42.4433 29.3134C42.3535 29.0259 42.2457 28.7564 42.1379 28.4869C42.0301 28.2174 41.9043 27.9478 41.7605 27.6783C41.6168 27.4088 41.473 27.1572 41.3293 26.9056C41.1676 26.6541 41.0059 26.4025 40.8441 26.1689C40.6645 25.9353 40.4848 25.7017 40.2871 25.4681C40.0895 25.2525 39.8918 25.0189 39.6762 24.8213C39.4606 24.6057 39.2449 24.408 39.0293 24.2103C38.7957 24.0127 38.5621 23.833 38.3285 23.6533C38.0949 23.4736 37.8434 23.3119 37.5918 23.1502C37.3402 22.9885 37.0887 22.8447 36.8191 22.7189C36.5496 22.5752 36.2801 22.4494 36.0106 22.3416C35.741 22.2338 35.4535 22.126 35.184 22.0361H34.9863C34.9504 22.0361 34.9145 22.0361 34.8606 22.0541C34.8246 22.0541 34.7887 22.0721 34.7527 22.09C34.7168 22.108 34.6809 22.126 34.6449 22.1439C34.609 22.1619 34.5731 22.1979 34.5551 22.2158C34.5191 22.2518 34.5012 22.2697 34.4832 22.3057C34.4652 22.3416 34.4473 22.3775 34.4293 22.4135C34.3934 22.4674 34.3754 22.5033 34.3754 22.5393C34.3754 22.5752 34.3574 22.6111 34.3574 22.665V22.8627C34.3574 22.9166 34.3574 22.9885 34.3754 23.0424C34.3934 23.0963 34.3934 23.1682 34.4113 23.2221C34.4293 23.276 34.4473 23.3299 34.4832 23.4017C34.5191 23.4557 34.5371 23.5096 34.5731 23.5635C34.609 23.6174 34.6449 23.6713 34.6809 23.7072C34.7168 23.7611 34.7707 23.7971 34.8246 23.833C34.8785 23.8689 34.9324 23.9049 34.9863 23.9408C35.0402 23.9767 35.0941 23.9947 35.1481 24.0307C35.3637 24.1205 35.5793 24.2103 35.7949 24.3182C36.0106 24.426 36.2082 24.5338 36.4238 24.6596C36.6395 24.7853 36.8191 24.9111 37.0168 25.0369C37.2145 25.1627 37.3941 25.3064 37.5918 25.4681C37.7715 25.6119 37.9512 25.7736 38.1309 25.9353C38.3106 26.097 38.4723 26.2588 38.634 26.4385C38.7957 26.6181 38.9395 26.7978 39.1012 26.9775C39.2449 27.1572 39.3887 27.3549 39.5145 27.5525C39.6402 27.7502 39.766 27.9478 39.8918 28.1455C40.0176 28.3431 40.1254 28.5588 40.2152 28.7744C40.3231 28.99 40.4129 29.2056 40.5027 29.4213C40.5926 29.6369 40.6645 29.8525 40.7363 30.0861C40.8082 30.3017 40.8621 30.5353 40.916 30.7689C40.9699 31.0025 41.0059 31.2361 41.0418 31.4517C41.0777 31.6853 41.0957 31.9189 41.1137 32.1525C41.1316 32.3861 41.1316 32.6196 41.1316 32.8532C41.1316 33.0868 41.1316 33.3204 41.1137 33.554C41.0957 33.7876 41.0777 34.0212 41.0418 34.2548C41.0059 34.4884 40.9699 34.722 40.916 34.9376C40.8621 35.1712 40.8082 35.3868 40.7363 35.6204C40.6645 35.836 40.5926 36.0696 40.5027 36.2853C40.4129 36.5009 40.3231 36.7165 40.2152 36.9321C40.1074 37.1478 39.9996 37.3454 39.8918 37.561C39.766 37.7587 39.6402 37.9563 39.5145 38.154C39.3887 38.3517 39.2449 38.5313 39.1012 38.729C38.9574 38.9087 38.7957 39.0884 38.634 39.2681C38.4723 39.4478 38.3106 39.6095 38.1309 39.7712C37.9512 39.9329 37.7715 40.0946 37.5918 40.2384C37.4121 40.3821 37.2145 40.5259 37.0168 40.6696C36.8191 40.7954 36.6215 40.9212 36.4238 41.047C36.2262 41.1728 36.0106 41.2806 35.7949 41.3884C35.5793 41.4962 35.3637 41.586 35.1481 41.6759C35.0941 41.6938 35.0402 41.7298 34.9863 41.7657C34.9324 41.8017 34.8785 41.8376 34.8426 41.8735C34.7887 41.9095 34.7527 41.9634 34.7168 41.9993C34.6809 42.0532 34.6449 42.0892 34.609 42.1431C34.5731 42.197 34.5371 42.2509 34.5191 42.3048C34.5012 42.3587 34.4652 42.4126 34.4473 42.4665C34.4293 42.5204 34.4113 42.5923 34.4113 42.6462C34.3934 42.7001 34.3934 42.772 34.3934 42.8259V43.0415C34.3934 43.0595 34.3934 43.0954 34.3934 43.1134C34.3934 43.1313 34.3934 43.1673 34.4113 43.1853C34.4113 43.2032 34.4293 43.2392 34.4293 43.2571C34.4293 43.2751 34.4473 43.2931 34.4652 43.329C34.4832 43.347 34.4832 43.3649 34.5012 43.3829C34.5191 43.4009 34.5371 43.4188 34.5371 43.4368C34.5371 43.4548 34.5731 43.4728 34.591 43.4907C34.609 43.5087 34.627 43.5267 34.6449 43.5267C34.6629 43.5446 34.6809 43.5446 34.6988 43.5626C34.7168 43.5806 34.7348 43.5806 34.7707 43.5985C34.7887 43.5985 34.8246 43.6165 34.8426 43.6165C34.8606 43.6165 34.8965 43.6345 34.9145 43.6345C34.9324 43.6345 34.9684 43.6345 34.9863 43.6345C35.0043 43.6345 35.0402 43.6345 35.0582 43.6345C35.0762 43.6345 35.1121 43.6345 35.1301 43.6165C35.1481 43.6165 35.184 43.5985 35.202 43.5985C35.4895 43.5087 35.759 43.4009 36.0465 43.2931C36.316 43.1853 36.5856 43.0595 36.8551 42.9157C37.1246 42.772 37.3762 42.6282 37.6277 42.4845C37.8793 42.3228 38.1309 42.161 38.3645 41.9813C38.5981 41.8017 38.8316 41.622 39.0652 41.4243C39.2988 41.2267 39.5145 41.029 39.7121 40.8134C39.9277 40.5978 40.1254 40.3821 40.3231 40.1665C40.5207 39.9329 40.7004 39.7173 40.8801 39.4657C41.0598 39.2321 41.2215 38.9806 41.3652 38.729C41.527 38.4774 41.6707 38.2259 41.7965 37.9563C41.9223 37.6868 42.048 37.4173 42.1738 37.1478C42.2816 36.8782 42.3894 36.5907 42.4793 36.3212C42.5691 36.0337 42.659 35.7642 42.7129 35.4767C42.7847 35.1892 42.8387 34.9017 42.8926 34.6142C42.9465 34.3267 42.9644 34.0392 43.0004 33.7337C42.9824 33.3743 43.0004 33.0689 43.0004 32.7814Z" fill="#2775C9"/>
<path d="M20 32.7812C20 33.0687 20.018 33.3741 20.0359 33.6616C20.0539 33.9491 20.0898 34.2546 20.1437 34.5421C20.1977 34.8296 20.2516 35.1171 20.3234 35.4046C20.3953 35.6921 20.4672 35.9796 20.557 36.2491C20.6469 36.5366 20.7547 36.8062 20.8625 37.0757C20.9703 37.3452 21.0961 37.6147 21.2398 37.8843C21.3656 38.1538 21.5273 38.4054 21.6711 38.6569C21.8328 38.9085 21.9945 39.1601 22.1562 39.3937C22.3359 39.6272 22.5156 39.8608 22.7133 40.0944C22.9109 40.328 23.1086 40.5437 23.3242 40.7413C23.5398 40.9569 23.7554 41.1546 23.9711 41.3522C24.2047 41.5499 24.4383 41.7296 24.6719 41.9093C24.9054 42.089 25.157 42.2507 25.4086 42.4124C25.6601 42.5741 25.9297 42.7179 26.1812 42.8437C26.4508 42.9874 26.7203 43.1132 26.9898 43.221C27.2593 43.3288 27.5468 43.4366 27.8343 43.5265H28.014C28.05 43.5265 28.0859 43.5265 28.1218 43.5085C28.1578 43.5085 28.1937 43.4905 28.2296 43.4726C28.2656 43.4546 28.3015 43.4366 28.3375 43.4187C28.3734 43.4007 28.3914 43.3647 28.4273 43.3468C28.4632 43.3288 28.4812 43.2929 28.4992 43.2569C28.5171 43.221 28.5351 43.1851 28.5531 43.1491C28.571 43.1132 28.571 43.0772 28.589 43.0413C28.589 43.0054 28.607 42.9694 28.607 42.9335V42.664C28.607 42.6101 28.607 42.5382 28.589 42.4843C28.589 42.4304 28.571 42.3585 28.5531 42.3046C28.5351 42.2507 28.5171 42.1968 28.4812 42.1429C28.4632 42.089 28.4273 42.0351 28.3914 41.9812C28.3554 41.9272 28.3195 41.8913 28.2835 41.8374C28.2476 41.8015 28.1937 41.7476 28.1578 41.7116C28.1039 41.6757 28.0679 41.6397 28.014 41.6038C27.9601 41.5679 27.9062 41.5499 27.8523 41.5319C27.6367 41.4421 27.4211 41.3522 27.2054 41.2444C26.9898 41.1366 26.7742 41.0288 26.5765 40.903C26.3789 40.7772 26.1633 40.6515 25.9836 40.5257C25.7859 40.3999 25.6062 40.2562 25.4086 40.1124C25.2289 39.9687 25.0492 39.8069 24.8695 39.6452C24.6898 39.4835 24.5281 39.3218 24.3664 39.1421C24.2047 38.9624 24.0429 38.7827 23.8992 38.603C23.7554 38.4233 23.6117 38.2257 23.4859 38.028C23.3601 37.8304 23.2344 37.6327 23.1086 37.4351C22.9828 37.2374 22.875 37.0218 22.7851 36.8062C22.6773 36.5905 22.5875 36.3749 22.4976 36.1593C22.4078 35.9437 22.3359 35.7101 22.264 35.4944C22.1922 35.2788 22.1383 35.0452 22.0844 34.8116C22.0305 34.578 21.9945 34.3444 21.9586 34.1288C21.9226 33.8952 21.9047 33.6616 21.8867 33.428C21.8687 33.1944 21.8687 32.9609 21.8687 32.7273C21.8687 32.4937 21.8687 32.2601 21.8867 32.0265C21.9047 31.7929 21.9226 31.5593 21.9586 31.3257C21.9945 31.0921 22.0305 30.8585 22.0844 30.6429C22.1383 30.4093 22.1922 30.1937 22.264 29.9601C22.3359 29.7445 22.4078 29.5109 22.4976 29.2953C22.5875 29.0797 22.6773 28.864 22.7851 28.6484C22.893 28.4328 23.0008 28.2351 23.1086 28.0195C23.2344 27.8218 23.3601 27.6242 23.4859 27.4265C23.6117 27.2289 23.7554 27.0492 23.8992 26.8515C24.0429 26.6719 24.2047 26.4922 24.3664 26.3125C24.5281 26.1328 24.6898 25.9711 24.8695 25.8094C25.0492 25.6476 25.2289 25.4859 25.4086 25.3422C25.5882 25.1984 25.7859 25.0547 25.9836 24.9289C26.1812 24.8031 26.3789 24.6773 26.5765 24.5515C26.7742 24.4258 26.9898 24.318 27.2054 24.2101C27.4211 24.1023 27.6367 24.0125 27.8523 23.9226C27.9062 23.9047 27.9601 23.8687 28.014 23.8508C28.0679 23.8148 28.1218 23.7789 28.1578 23.743C28.2117 23.707 28.2476 23.6711 28.2835 23.6172C28.3195 23.5812 28.3554 23.5273 28.3914 23.4734C28.4273 23.4195 28.4632 23.3656 28.4812 23.3117C28.4992 23.2578 28.5351 23.2039 28.5531 23.15C28.571 23.0961 28.589 23.0422 28.589 22.9703C28.589 22.9164 28.607 22.8445 28.607 22.7906V22.5391C28.607 22.5211 28.607 22.5031 28.607 22.4672C28.607 22.4492 28.607 22.4312 28.589 22.3953C28.589 22.3773 28.571 22.3594 28.571 22.3414C28.571 22.3234 28.5531 22.3055 28.5531 22.2875C28.5351 22.2695 28.5351 22.2516 28.5171 22.2336C28.4992 22.2156 28.4992 22.1977 28.4812 22.1797C28.4632 22.1797 28.4453 22.1617 28.4273 22.1437C28.4093 22.1258 28.3914 22.1078 28.3734 22.1078C28.3554 22.0898 28.3375 22.0898 28.3195 22.0719C28.3015 22.0539 28.2835 22.0539 28.2656 22.0359C28.2476 22.0359 28.2296 22.018 28.2117 22.018C28.1937 22.018 28.1757 22 28.1398 22C28.1218 22 28.1039 22 28.0679 22C28.05 22 28.032 22 27.9961 22C27.9781 22 27.9601 22 27.9242 22.018C27.9062 22.018 27.8882 22.0359 27.8523 22.0359C27.5648 22.1258 27.2953 22.2336 27.0078 22.3414C26.7383 22.4492 26.4687 22.575 26.1992 22.7187C25.9297 22.8625 25.6781 23.0062 25.4265 23.15C25.175 23.3117 24.9234 23.4734 24.6898 23.6531C24.4562 23.8328 24.2226 24.0125 23.989 24.2101C23.7554 24.4078 23.5398 24.6055 23.3242 24.8211C23.1086 25.0367 22.9109 25.2523 22.7133 25.4679C22.5156 25.7015 22.3359 25.9172 22.1562 26.1687C21.9765 26.4023 21.8148 26.6539 21.6531 26.9054C21.4914 27.157 21.3477 27.4086 21.2219 27.6781C21.0781 27.9476 20.9703 28.2172 20.8445 28.4867C20.7367 28.7562 20.6289 29.0437 20.5391 29.3133C20.4492 29.6007 20.3594 29.8703 20.2875 30.1578C20.2156 30.4453 20.1617 30.7328 20.1078 31.0203C20.0539 31.3078 20.018 31.6132 20 31.9007C20.018 32.1882 20 32.4937 20 32.7812Z" fill="#2775C9"/>
<path d="M30.5836 27.1572C30.4758 27.1572 30.368 27.1752 30.2781 27.1932C30.1703 27.2111 30.0805 27.2291 29.9727 27.2471C29.8648 27.265 29.775 27.301 29.6672 27.3369C29.5773 27.3728 29.4695 27.4088 29.3797 27.4447C29.2898 27.4807 29.2 27.5346 29.1102 27.5885C29.0203 27.6424 28.9305 27.6963 28.8406 27.7502C28.7508 27.8041 28.6789 27.876 28.5891 27.9299C28.5172 28.0018 28.4273 28.0736 28.3555 28.1455C28.2836 28.2174 28.2117 28.2893 28.1398 28.3791C28.068 28.451 28.0141 28.5408 27.9602 28.6307C27.9063 28.7205 27.8523 28.8104 27.7984 28.9002C27.7445 28.99 27.7086 29.0799 27.6547 29.1697C27.6187 29.2596 27.5828 29.3674 27.5469 29.4572C27.5109 29.5471 27.493 29.6549 27.457 29.7447C27.4391 29.8525 27.4211 29.9424 27.4031 30.0502C27.3852 30.158 27.3852 30.2479 27.3672 30.3557C27.3672 31.9189 28.3375 32.9252 30.3859 33.3564L31.8234 33.6978C33.225 34.0212 33.8 34.4884 33.8 35.279C33.8 36.0696 32.7937 36.8423 31.482 36.8423C31.3742 36.8603 31.2484 36.8603 31.1406 36.8423C31.0328 36.8423 30.907 36.8243 30.7992 36.8064C30.6914 36.7884 30.5656 36.7524 30.4578 36.7165C30.35 36.6806 30.2422 36.6267 30.1344 36.5907C30.0266 36.5368 29.9367 36.4829 29.8289 36.411C29.7211 36.3392 29.6492 36.2673 29.5594 36.1954C29.4695 36.1236 29.3977 36.0337 29.3258 35.9439C29.2539 35.854 29.182 35.7642 29.1281 35.6564C29.0922 35.5845 29.0383 35.5126 28.9844 35.4587C28.9305 35.4048 28.8586 35.3509 28.8047 35.297C28.7328 35.2611 28.6609 35.2251 28.5711 35.1892C28.4992 35.1712 28.4094 35.1533 28.3195 35.1533H27.5469C27.5109 35.1533 27.493 35.1712 27.457 35.1712C27.4211 35.1892 27.4031 35.1892 27.3852 35.2072C27.3672 35.2251 27.3313 35.2431 27.3133 35.2611C27.2953 35.279 27.2773 35.297 27.2594 35.3329C27.2414 35.3509 27.2234 35.3868 27.2234 35.4048C27.2055 35.4407 27.2055 35.4587 27.2055 35.4947C27.2055 35.5306 27.1875 35.5486 27.1875 35.5845C27.1875 35.6204 27.1875 35.6384 27.1875 35.6743C27.2055 35.7642 27.2414 35.854 27.2773 35.9439C27.3133 36.0337 27.3492 36.1236 27.3852 36.2134C27.4211 36.3032 27.457 36.3931 27.5109 36.4829C27.5648 36.5728 27.6008 36.6446 27.6547 36.7345C27.7086 36.8243 27.7625 36.8962 27.8164 36.9681C27.8703 37.0399 27.9422 37.1118 27.9961 37.1837C28.068 37.2556 28.1219 37.3274 28.1937 37.3993C28.2656 37.4712 28.3375 37.5251 28.4094 37.597C28.4813 37.6509 28.5711 37.7228 28.643 37.7767C28.7328 37.8306 28.8047 37.8845 28.8945 37.9204C28.9844 37.9743 29.0742 38.0103 29.1641 38.0462C29.2539 38.0821 29.3438 38.1181 29.4336 38.154C29.5234 38.1899 29.6133 38.2079 29.7211 38.2438C29.8109 38.2618 29.9188 38.2978 30.0086 38.3157C30.0984 38.3337 30.2063 38.3517 30.2961 38.3517C30.3859 38.3696 30.4938 38.3696 30.5836 38.3696V39.4478C30.5836 39.5017 30.5836 39.5735 30.6016 39.6274C30.6195 39.6813 30.6375 39.7353 30.6555 39.7892C30.6734 39.8431 30.7094 39.897 30.7453 39.9509C30.7813 40.0048 30.8172 40.0407 30.8531 40.0946C30.8891 40.1306 30.943 40.1665 30.9969 40.2024C31.0508 40.2384 31.1047 40.2564 31.1586 40.2923C31.2125 40.3103 31.2664 40.3282 31.3383 40.3462C31.3922 40.3642 31.4641 40.3642 31.518 40.3642C31.5719 40.3642 31.6438 40.3642 31.6977 40.3462C31.7516 40.3282 31.8234 40.3103 31.8773 40.2923C31.9313 40.2743 31.9852 40.2384 32.0391 40.2024C32.093 40.1665 32.1289 40.1306 32.1828 40.0946C32.2188 40.0587 32.2727 40.0048 32.2906 39.9509C32.3266 39.897 32.3445 39.8431 32.3805 39.7892C32.3984 39.7353 32.4164 39.6813 32.4344 39.6274C32.4523 39.5735 32.4523 39.5017 32.4523 39.4478V38.3517C32.5602 38.3517 32.668 38.3517 32.7758 38.3337C32.8836 38.3157 32.9914 38.2978 33.0992 38.2798C33.207 38.2618 33.3148 38.2259 33.4226 38.1899C33.5305 38.154 33.6383 38.1181 33.7281 38.0821C33.8359 38.0462 33.9258 37.9923 34.0336 37.9384C34.1234 37.8845 34.2312 37.8306 34.3211 37.7767C34.4109 37.7228 34.5008 37.6509 34.5906 37.579C34.6804 37.5071 34.7523 37.4353 34.8422 37.3634C34.914 37.2915 34.9859 37.2017 35.0578 37.1298C35.1296 37.0399 35.2015 36.9501 35.2554 36.8603C35.3093 36.7704 35.3812 36.6806 35.4351 36.5907C35.489 36.5009 35.5429 36.3931 35.5789 36.3032C35.6148 36.1954 35.6687 36.1056 35.6867 35.9978C35.7046 35.89 35.7406 35.7821 35.7765 35.6743C35.7945 35.5665 35.8125 35.4587 35.8304 35.3509C35.8484 35.2431 35.8484 35.1353 35.8484 35.0275C35.8484 33.3923 34.8961 32.458 32.632 31.9728L31.3203 31.6853C30.0086 31.3619 29.3977 30.9307 29.3977 30.2119C29.3977 29.4932 30.1883 28.6846 31.482 28.6846C31.5898 28.6666 31.6797 28.6666 31.7875 28.6666C31.8953 28.6666 31.9852 28.6846 32.093 28.7025C32.2008 28.7205 32.2906 28.7385 32.3984 28.7744C32.4883 28.8104 32.5961 28.8463 32.6859 28.9002C32.7758 28.9541 32.8656 28.99 32.9555 29.0619C33.0453 29.1158 33.1172 29.1877 33.189 29.2596C33.2609 29.3314 33.3328 29.4033 33.4047 29.4752C33.4765 29.5471 33.5305 29.6369 33.5844 29.7268C33.6203 29.8166 33.6742 29.8885 33.7461 29.9604C33.8179 30.0322 33.8898 30.1041 33.9617 30.14C34.0515 30.1939 34.1414 30.2299 34.2312 30.2658C34.3211 30.3018 34.4289 30.3018 34.5187 30.3018H35.1296C35.1656 30.3018 35.2015 30.2838 35.2375 30.2658C35.2734 30.2479 35.2914 30.2299 35.3273 30.2119C35.3632 30.1939 35.3812 30.176 35.3992 30.14C35.4171 30.1221 35.4531 30.0861 35.4711 30.0502C35.489 30.0143 35.507 29.9963 35.525 29.9604C35.5429 29.9244 35.5429 29.8885 35.5609 29.8525C35.5609 29.8166 35.5609 29.7807 35.5609 29.7447C35.5609 29.7088 35.5609 29.6729 35.5429 29.6369C35.525 29.5471 35.489 29.4572 35.4711 29.3854C35.4351 29.2955 35.4171 29.2236 35.3812 29.1338C35.3453 29.0439 35.3093 28.9721 35.2734 28.9002C35.2375 28.8283 35.1836 28.7385 35.1476 28.6666C35.1117 28.5947 35.0578 28.5229 35.0039 28.451C34.95 28.3791 34.8961 28.3072 34.8422 28.2354C34.7882 28.1635 34.7164 28.1096 34.6625 28.0377C34.5906 27.9838 34.5367 27.9119 34.4648 27.858C34.3929 27.8041 34.3211 27.7502 34.2492 27.6963C34.1773 27.6424 34.1054 27.5885 34.0156 27.5525C33.9437 27.4986 33.8539 27.4627 33.782 27.4267C33.7101 27.3908 33.6203 27.3549 33.5305 27.3189C33.4406 27.283 33.3687 27.2471 33.2789 27.2291C33.189 27.1932 33.0992 27.1752 33.0094 27.1572C32.9195 27.1392 32.8297 27.1213 32.7398 27.1033C32.65 27.0853 32.5602 27.0853 32.4703 27.0674V26.1869C32.4703 26.133 32.4703 26.0611 32.4523 26.0072C32.4344 25.9533 32.4164 25.8994 32.3984 25.8455C32.3805 25.7916 32.3445 25.7377 32.3086 25.6838C32.2727 25.6299 32.2367 25.5939 32.2008 25.54C32.1648 25.5041 32.1109 25.4682 32.057 25.4322C32.0031 25.3963 31.9492 25.3783 31.8953 25.3424C31.8414 25.3244 31.7875 25.3064 31.7156 25.2885C31.6617 25.2705 31.5898 25.2705 31.5359 25.2705C31.482 25.2705 31.4102 25.2705 31.3563 25.2885C31.3023 25.3064 31.2305 25.3244 31.1766 25.3424C31.1227 25.3603 31.0688 25.3963 31.0148 25.4322C30.9609 25.4682 30.925 25.5041 30.8711 25.54C30.8352 25.576 30.7813 25.6299 30.7633 25.6838C30.7273 25.7377 30.7094 25.7916 30.6734 25.8455C30.6555 25.8994 30.6375 25.9533 30.6195 26.0072C30.6016 26.0611 30.6016 26.133 30.6016 26.1869L30.5836 27.1572Z" fill="#2775C9"/>
<path d="M12.1657 7.07819e-07L18.5179 4.31338L14.4871 4.31571V19.7839L12.1844 23.2584C12.1844 23.2584 12.161 -0.0046852 12.1657 7.07819e-07Z" fill="url(#paint0_linear_2005_1131)"/>
<path d="M15.0684 5.12867H24L15.0801 19.3597C15.0801 19.3597 15.0684 5.11929 15.0684 5.12867Z" fill="url(#paint1_linear_2005_1131)"/>
<path d="M11.8324 7.07819e-07L5.48242 4.31338L9.51327 4.31571V19.7839L11.816 23.2584C11.8136 23.2584 11.8371 -0.0046852 11.8324 7.07819e-07Z" fill="url(#paint2_linear_2005_1131)"/>
<path d="M8.92935 5.12867H0L8.9176 19.3597C8.9176 19.3597 8.92935 5.11929 8.92935 5.12867Z" fill="url(#paint3_linear_2005_1131)"/>
<defs>
<linearGradient id="paint0_linear_2005_1131" x1="15.3415" y1="23.258" x2="15.3415" y2="-0.000407576" gradientUnits="userSpaceOnUse">
<stop stop-color="#E89D9F"/>
<stop offset="1" stop-color="#9FC7FE"/>
</linearGradient>
<linearGradient id="paint1_linear_2005_1131" x1="19.5341" y1="19.3593" x2="19.5341" y2="5.12826" gradientUnits="userSpaceOnUse">
<stop stop-color="#E89D9F"/>
<stop offset="1" stop-color="#9FC7FE"/>
</linearGradient>
<linearGradient id="paint2_linear_2005_1131" x1="8.65769" y1="23.258" x2="8.65769" y2="-0.000407576" gradientUnits="userSpaceOnUse">
<stop stop-color="#E89D9F"/>
<stop offset="1" stop-color="#9FC7FE"/>
</linearGradient>
<linearGradient id="paint3_linear_2005_1131" x1="4.46465" y1="19.3593" x2="4.46465" y2="5.12826" gradientUnits="userSpaceOnUse">
<stop stop-color="#E89D9F"/>
<stop offset="1" stop-color="#9FC7FE"/>
</linearGradient>
</defs>
</svg>
