<svg width="39" height="38" viewBox="0 0 39 38" fill="none" xmlns="http://www.w3.org/2000/svg">
<path d="M19.7696 1.15021e-06L30.092 7.00924L23.5418 7.01303V32.1488L19.8 37.795C19.8 37.795 19.7619 -0.00761345 19.7696 1.15021e-06Z" fill="url(#paint0_linear_2005_1111)"/>
<path d="M24.4863 8.33399H39.0003L24.5053 31.4594C24.5053 31.4594 24.4863 8.31875 24.4863 8.33399Z" fill="url(#paint1_linear_2005_1111)"/>
<path d="M19.2279 1.15021e-06L8.90918 7.00924L15.4593 7.01303V32.1488L19.2012 37.795C19.1973 37.795 19.2355 -0.00761345 19.2279 1.15021e-06Z" fill="url(#paint2_linear_2005_1111)"/>
<path d="M14.5102 8.33399H0L14.4911 31.4594C14.4911 31.4594 14.5102 8.31875 14.5102 8.33399Z" fill="url(#paint3_linear_2005_1111)"/>
<defs>
<linearGradient id="paint0_linear_2005_1111" x1="24.9302" y1="37.7943" x2="24.9302" y2="-0.00066231" gradientUnits="userSpaceOnUse">
<stop stop-color="#E89D9F"/>
<stop offset="1" stop-color="#9FC7FE"/>
</linearGradient>
<linearGradient id="paint1_linear_2005_1111" x1="31.7432" y1="31.4587" x2="31.7432" y2="8.33333" gradientUnits="userSpaceOnUse">
<stop stop-color="#E89D9F"/>
<stop offset="1" stop-color="#9FC7FE"/>
</linearGradient>
<linearGradient id="paint2_linear_2005_1111" x1="14.069" y1="37.7943" x2="14.069" y2="-0.00066231" gradientUnits="userSpaceOnUse">
<stop stop-color="#E89D9F"/>
<stop offset="1" stop-color="#9FC7FE"/>
</linearGradient>
<linearGradient id="paint3_linear_2005_1111" x1="7.25506" y1="31.4587" x2="7.25506" y2="8.33333" gradientUnits="userSpaceOnUse">
<stop stop-color="#E89D9F"/>
<stop offset="1" stop-color="#9FC7FE"/>
</linearGradient>
</defs>
</svg>
