<svg width="39" height="37" viewBox="0 0 39 37" fill="none" xmlns="http://www.w3.org/2000/svg">
<path d="M39.0002 18.2813C39.0002 17.7938 38.9697 17.2759 38.9393 16.7884C38.9088 16.3009 38.8479 15.7829 38.7564 15.2954C38.665 14.8079 38.5736 14.3204 38.4518 13.8329C38.3299 13.3454 38.208 12.8579 38.0557 12.4009C37.9033 11.9134 37.7205 11.4563 37.5377 10.9993C37.3549 10.5423 37.1416 10.0853 36.8979 9.62822C36.6541 9.17119 36.4104 8.74463 36.1666 8.31807C35.8924 7.8915 35.6182 7.46494 35.3439 7.06885C35.0393 6.67275 34.7346 6.27666 34.3994 5.88057C34.0643 5.51494 33.7291 5.11885 33.3635 4.78369C32.9979 4.41807 32.6322 4.08291 32.2666 3.74775C31.8705 3.4126 31.4744 3.10791 31.0783 2.80322C30.6822 2.49854 30.2557 2.22432 29.8291 1.9501C29.4025 1.67588 28.976 1.43213 28.5189 1.21885C28.0619 0.975098 27.6049 0.761817 27.1479 0.579004C26.6908 0.396191 26.2033 0.213379 25.7463 0.0610352H25.4111C25.3502 0.0610352 25.2893 0.0610353 25.1979 0.091504C25.1369 0.091504 25.076 0.121973 25.015 0.152441C24.9541 0.18291 24.8932 0.213379 24.8322 0.243848C24.7713 0.274317 24.7104 0.335254 24.6799 0.365723C24.6189 0.42666 24.5885 0.457129 24.558 0.518066C24.5275 0.579004 24.4971 0.639942 24.4666 0.700879C24.4057 0.792285 24.3752 0.853223 24.3752 0.91416C24.3752 0.975098 24.3447 1.03604 24.3447 1.12744V1.4626C24.3447 1.554 24.3447 1.67588 24.3752 1.76729C24.4057 1.85869 24.4057 1.98057 24.4361 2.07197C24.4666 2.16338 24.4971 2.25479 24.558 2.37666C24.6189 2.46807 24.6494 2.55947 24.7104 2.65088C24.7713 2.74229 24.8322 2.83369 24.8932 2.89463C24.9541 2.98604 25.0455 3.04697 25.1369 3.10791C25.2283 3.16885 25.3197 3.22979 25.4111 3.29072C25.5025 3.35166 25.5939 3.38213 25.6854 3.44307C26.051 3.59541 26.4166 3.74775 26.7822 3.93057C27.1479 4.11338 27.483 4.29619 27.8486 4.50947C28.2143 4.72275 28.5189 4.93604 28.8541 5.14932C29.1893 5.3626 29.4939 5.60635 29.8291 5.88057C30.1338 6.12432 30.4385 6.39854 30.7432 6.67275C31.0479 6.94697 31.3221 7.22119 31.5963 7.52588C31.8705 7.83057 32.1143 8.13525 32.3885 8.43994C32.6322 8.74463 32.876 9.07979 33.0893 9.41494C33.3025 9.7501 33.5158 10.0853 33.7291 10.4204C33.9424 10.7556 34.1252 11.1212 34.2775 11.4868C34.4604 11.8524 34.6127 12.2181 34.765 12.5837C34.9174 12.9493 35.0393 13.3149 35.1611 13.711C35.283 14.0767 35.3744 14.4728 35.4658 14.8688C35.5572 15.2649 35.6182 15.661 35.6791 16.0267C35.74 16.4228 35.7705 16.8188 35.801 17.2149C35.8314 17.611 35.8314 18.0071 35.8314 18.4032C35.8314 18.7993 35.8314 19.1954 35.801 19.5915C35.7705 19.9876 35.74 20.3837 35.6791 20.7798C35.6182 21.1759 35.5572 21.572 35.4658 21.9376C35.3744 22.3337 35.283 22.6993 35.1611 23.0954C35.0393 23.461 34.9174 23.8571 34.765 24.2228C34.6127 24.5884 34.4604 24.954 34.2775 25.3196C34.0947 25.6853 33.9119 26.0204 33.7291 26.386C33.5158 26.7212 33.3025 27.0563 33.0893 27.3915C32.876 27.7267 32.6322 28.0313 32.3885 28.3665C32.1447 28.6712 31.8705 28.9759 31.5963 29.2806C31.3221 29.5853 31.0479 29.8595 30.7432 30.1337C30.4385 30.4079 30.1338 30.6821 29.8291 30.9259C29.5244 31.1696 29.1893 31.4134 28.8541 31.6571C28.5189 31.8704 28.1838 32.0837 27.8486 32.297C27.5135 32.5103 27.1479 32.6931 26.7822 32.8759C26.4166 33.0587 26.051 33.211 25.6854 33.3634C25.5939 33.3938 25.5025 33.4548 25.4111 33.5157C25.3197 33.5767 25.2283 33.6376 25.1674 33.6985C25.076 33.7595 25.015 33.8509 24.9541 33.9118C24.8932 34.0032 24.8322 34.0642 24.7713 34.1556C24.7104 34.247 24.6494 34.3384 24.6189 34.4298C24.5885 34.5212 24.5275 34.6126 24.4971 34.704C24.4666 34.7954 24.4361 34.9173 24.4361 35.0087C24.4057 35.1001 24.4057 35.222 24.4057 35.3134V35.679C24.4057 35.7095 24.4057 35.7704 24.4057 35.8009C24.4057 35.8313 24.4057 35.8923 24.4361 35.9228C24.4361 35.9532 24.4666 36.0142 24.4666 36.0446C24.4666 36.0751 24.4971 36.1056 24.5275 36.1665C24.558 36.197 24.558 36.2274 24.5885 36.2579C24.6189 36.2884 24.6494 36.3188 24.6494 36.3493C24.6494 36.3798 24.7104 36.4103 24.7408 36.4407C24.7713 36.4712 24.8018 36.5017 24.8322 36.5017C24.8627 36.5321 24.8932 36.5321 24.9236 36.5626C24.9541 36.5931 24.9846 36.5931 25.0455 36.6235C25.076 36.6235 25.1369 36.654 25.1674 36.654C25.1979 36.654 25.2588 36.6845 25.2893 36.6845C25.3197 36.6845 25.3807 36.6845 25.4111 36.6845C25.4416 36.6845 25.5025 36.6845 25.533 36.6845C25.5635 36.6845 25.6244 36.6845 25.6549 36.654C25.6854 36.654 25.7463 36.6235 25.7768 36.6235C26.2643 36.4712 26.7213 36.2884 27.2088 36.1056C27.6658 35.9228 28.1229 35.7095 28.5799 35.4657C29.0369 35.222 29.4635 34.9782 29.89 34.7345C30.3166 34.4603 30.7432 34.186 31.1393 33.8813C31.5354 33.5767 31.9314 33.272 32.3275 32.9368C32.7236 32.6017 33.0893 32.2665 33.4244 31.9009C33.79 31.5353 34.1252 31.1696 34.4604 30.804C34.7955 30.4079 35.1002 30.0423 35.4049 29.6157C35.7096 29.2196 35.9838 28.7931 36.2275 28.3665C36.5018 27.9399 36.7455 27.5134 36.9588 27.0563C37.1721 26.5993 37.3854 26.1423 37.5986 25.6853C37.7814 25.2282 37.9643 24.7407 38.1166 24.2837C38.2689 23.7962 38.4213 23.3392 38.5127 22.8517C38.6346 22.3642 38.726 21.8767 38.8174 21.3892C38.9088 20.9017 38.9393 20.4142 39.0002 19.8962C38.9697 19.2868 39.0002 18.7688 39.0002 18.2813Z" fill="#2775C9"/>
<path d="M0 18.2813C0 18.7688 0.0304688 19.2867 0.0609375 19.7742C0.0914063 20.2617 0.152344 20.7797 0.24375 21.2672C0.335156 21.7547 0.426563 22.2422 0.548438 22.7297C0.670313 23.2172 0.792188 23.7047 0.944531 24.1617C1.09688 24.6492 1.27969 25.1063 1.4625 25.5633C1.64531 26.0203 1.85859 26.4773 2.10234 26.9344C2.31563 27.3914 2.58984 27.818 2.83359 28.2445C3.10781 28.6711 3.38203 29.0977 3.65625 29.4938C3.96094 29.8898 4.26563 30.2859 4.60078 30.682C4.93594 31.0781 5.27109 31.4438 5.63672 31.7789C6.00234 32.1445 6.36797 32.4797 6.7336 32.8148C7.12969 33.15 7.52578 33.4547 7.92188 33.7594C8.31797 34.0641 8.74453 34.3383 9.1711 34.6125C9.59766 34.8867 10.0547 35.1305 10.4813 35.3438C10.9383 35.5875 11.3953 35.8008 11.8523 35.9836C12.3094 36.1664 12.7969 36.3492 13.2844 36.5016H13.5891C13.65 36.5016 13.7109 36.5016 13.7719 36.4711C13.8328 36.4711 13.8938 36.4406 13.9547 36.4102C14.0156 36.3797 14.0766 36.3492 14.1375 36.3188C14.1984 36.2883 14.2289 36.2273 14.2898 36.1969C14.3508 36.1664 14.3813 36.1055 14.4117 36.0445C14.4422 35.9836 14.4727 35.9227 14.5031 35.8617C14.5336 35.8008 14.5336 35.7398 14.5641 35.6789C14.5641 35.618 14.5945 35.557 14.5945 35.4961V35.0391C14.5945 34.9477 14.5945 34.8258 14.5641 34.7344C14.5641 34.643 14.5336 34.5211 14.5031 34.4297C14.4727 34.3383 14.4422 34.2469 14.3813 34.1555C14.3508 34.0641 14.2898 33.9727 14.2289 33.8813C14.168 33.7898 14.107 33.7289 14.0461 33.6375C13.9852 33.5766 13.8938 33.4852 13.8328 33.4242C13.7414 33.3633 13.6805 33.3023 13.5891 33.2414C13.4977 33.1805 13.4063 33.15 13.3148 33.1195C12.9492 32.9672 12.5836 32.8148 12.218 32.632C11.8523 32.4492 11.4867 32.2664 11.1516 32.0531C10.8164 31.8398 10.4508 31.6266 10.1461 31.4133C9.81094 31.2 9.50625 30.9563 9.1711 30.7125C8.86641 30.4688 8.56172 30.1945 8.25703 29.9203C7.95235 29.6461 7.67813 29.3719 7.40391 29.0672C7.12969 28.7625 6.85547 28.4578 6.61172 28.1531C6.36797 27.8484 6.12422 27.5133 5.91094 27.1781C5.69766 26.843 5.48438 26.5078 5.27109 26.1727C5.05781 25.8375 4.875 25.4719 4.72266 25.1063C4.53984 24.7406 4.3875 24.375 4.23516 24.0094C4.08281 23.6438 3.96094 23.2477 3.83906 22.882C3.71719 22.5164 3.62578 22.1203 3.53438 21.7242C3.44297 21.3281 3.38203 20.932 3.32109 20.5664C3.26016 20.1703 3.22969 19.7742 3.19922 19.3781C3.16875 18.982 3.16875 18.5859 3.16875 18.1898C3.16875 17.7938 3.16875 17.3977 3.19922 17.0016C3.22969 16.6055 3.26016 16.2094 3.32109 15.8133C3.38203 15.4172 3.44297 15.0211 3.53438 14.6555C3.62578 14.2594 3.71719 13.8938 3.83906 13.4977C3.96094 13.132 4.08281 12.7359 4.23516 12.3703C4.3875 12.0047 4.53984 11.6391 4.72266 11.2734C4.90547 10.9078 5.08828 10.5727 5.27109 10.207C5.48438 9.87188 5.69766 9.53672 5.91094 9.20156C6.12422 8.86641 6.36797 8.56172 6.61172 8.22656C6.85547 7.92188 7.12969 7.61719 7.40391 7.3125C7.67813 7.00781 7.95235 6.73359 8.25703 6.45938C8.56172 6.18516 8.86641 5.91094 9.1711 5.66719C9.47578 5.42344 9.81094 5.17969 10.1461 4.96641C10.4813 4.75313 10.8164 4.53984 11.1516 4.32656C11.4867 4.11328 11.8523 3.93047 12.218 3.74766C12.5836 3.56484 12.9492 3.4125 13.3148 3.26016C13.4063 3.22969 13.4977 3.16875 13.5891 3.13828C13.6805 3.07734 13.7719 3.01641 13.8328 2.95547C13.9242 2.89453 13.9852 2.83359 14.0461 2.74219C14.107 2.68125 14.168 2.58984 14.2289 2.49844C14.2898 2.40703 14.3508 2.31563 14.3813 2.22422C14.4117 2.13281 14.4727 2.04141 14.5031 1.95C14.5336 1.85859 14.5641 1.76719 14.5641 1.64531C14.5641 1.55391 14.5945 1.43203 14.5945 1.34063V0.914063C14.5945 0.883594 14.5945 0.853125 14.5945 0.792188C14.5945 0.761719 14.5945 0.73125 14.5641 0.670313C14.5641 0.639844 14.5336 0.609375 14.5336 0.578906C14.5336 0.548438 14.5031 0.517969 14.5031 0.4875C14.4727 0.457031 14.4727 0.426563 14.4422 0.396094C14.4117 0.365625 14.4117 0.335156 14.3813 0.304688C14.3508 0.304688 14.3203 0.274219 14.2898 0.24375C14.2594 0.213281 14.2289 0.182812 14.1984 0.182812C14.168 0.152344 14.1375 0.152344 14.107 0.121875C14.0766 0.0914063 14.0461 0.0914062 14.0156 0.0609374C13.9852 0.0609374 13.9547 0.0304687 13.9242 0.0304687C13.8938 0.0304687 13.8633 0 13.8023 0C13.7719 0 13.7414 0 13.6805 0C13.65 0 13.6195 0 13.5586 0C13.5281 0 13.4977 -2.98023e-08 13.4367 0.0304687C13.4063 0.0304687 13.3758 0.0609374 13.3148 0.0609374C12.8273 0.213281 12.3703 0.396094 11.8828 0.578906C11.4258 0.761719 10.9688 0.975 10.5117 1.21875C10.0547 1.4625 9.62813 1.70625 9.20156 1.95C8.775 2.22422 8.34844 2.49844 7.95235 2.80313C7.55625 3.10781 7.16016 3.4125 6.76406 3.74766C6.36797 4.08281 6.00234 4.41797 5.63672 4.78359C5.27109 5.14922 4.93594 5.51484 4.60078 5.88047C4.26563 6.27656 3.96094 6.64219 3.65625 7.06875C3.35156 7.46484 3.07734 7.89141 2.80313 8.31797C2.52891 8.74453 2.28516 9.17109 2.07188 9.62813C1.82813 10.0852 1.64531 10.5422 1.43203 10.9992C1.24922 11.4563 1.06641 11.9438 0.914063 12.4008C0.761719 12.8883 0.609375 13.3453 0.4875 13.8328C0.365625 14.3203 0.274219 14.8078 0.182813 15.2953C0.0914063 15.7828 0.0304688 16.3008 0 16.7883C0.0304688 17.2758 0 17.7938 0 18.2813Z" fill="#2775C9"/>
<path d="M17.9461 8.74463C17.7633 8.74463 17.5805 8.7751 17.4281 8.80557C17.2453 8.83604 17.093 8.8665 16.9102 8.89697C16.7273 8.92744 16.575 8.98838 16.3922 9.04932C16.2398 9.11025 16.057 9.17119 15.9047 9.23213C15.7523 9.29307 15.6 9.38447 15.4477 9.47588C15.2953 9.56728 15.143 9.65869 14.9906 9.7501C14.8383 9.8415 14.7164 9.96338 14.5641 10.0548C14.4422 10.1767 14.2898 10.2985 14.168 10.4204C14.0461 10.5423 13.9242 10.6642 13.8023 10.8165C13.6805 10.9384 13.5891 11.0907 13.4977 11.2431C13.4063 11.3954 13.3148 11.5478 13.2234 11.7001C13.132 11.8524 13.0711 12.0048 12.9797 12.1571C12.9187 12.3095 12.8578 12.4923 12.7969 12.6446C12.7359 12.797 12.7055 12.9798 12.6445 13.1321C12.6141 13.3149 12.5836 13.4673 12.5531 13.6501C12.5227 13.8329 12.5227 13.9853 12.4922 14.1681C12.4922 16.8188 14.1375 18.5251 17.6109 19.2563L20.0484 19.8353C22.425 20.3837 23.4 21.1759 23.4 22.5165C23.4 23.8571 21.6938 25.1673 19.4695 25.1673C19.2867 25.1978 19.0734 25.1978 18.8906 25.1673C18.7078 25.1673 18.4945 25.1368 18.3117 25.1063C18.1289 25.0759 17.9156 25.0149 17.7328 24.954C17.55 24.8931 17.3672 24.8017 17.1844 24.7407C17.0016 24.6493 16.8492 24.5579 16.6664 24.436C16.4836 24.3142 16.3617 24.1923 16.2094 24.0704C16.057 23.9485 15.9352 23.7962 15.8133 23.6438C15.6914 23.4915 15.5695 23.3392 15.4781 23.1563C15.4172 23.0345 15.3258 22.9126 15.2344 22.8212C15.143 22.7298 15.0211 22.6384 14.9297 22.547C14.8078 22.486 14.6859 22.4251 14.5336 22.3642C14.4117 22.3337 14.2594 22.3032 14.107 22.3032H12.7969C12.7359 22.3032 12.7055 22.3337 12.6445 22.3337C12.5836 22.3642 12.5531 22.3642 12.5227 22.3946C12.4922 22.4251 12.4313 22.4556 12.4008 22.486C12.3703 22.5165 12.3398 22.547 12.3094 22.6079C12.2789 22.6384 12.2484 22.6993 12.2484 22.7298C12.218 22.7907 12.218 22.8212 12.218 22.8821C12.218 22.9431 12.1875 22.9735 12.1875 23.0345C12.1875 23.0954 12.1875 23.1259 12.1875 23.1868C12.218 23.3392 12.2789 23.4915 12.3398 23.6438C12.4008 23.7962 12.4617 23.9485 12.5227 24.1009C12.5836 24.2532 12.6445 24.4056 12.7359 24.5579C12.8273 24.7103 12.8883 24.8321 12.9797 24.9845C13.0711 25.1368 13.1625 25.2587 13.2539 25.3806C13.3453 25.5024 13.4672 25.6243 13.5586 25.7462C13.6805 25.8681 13.7719 25.9899 13.8937 26.1118C14.0156 26.2337 14.1375 26.3251 14.2594 26.447C14.3813 26.5384 14.5336 26.6603 14.6555 26.7517C14.8078 26.8431 14.9297 26.9345 15.082 26.9954C15.2344 27.0868 15.3867 27.1478 15.5391 27.2087C15.6914 27.2696 15.8438 27.3306 15.9961 27.3915C16.1484 27.4524 16.3008 27.4829 16.4836 27.5438C16.6359 27.5743 16.8188 27.6353 16.9711 27.6657C17.1234 27.6962 17.3063 27.7267 17.4586 27.7267C17.6109 27.7571 17.7938 27.7571 17.9461 27.7571V29.5853C17.9461 29.6767 17.9461 29.7985 17.9766 29.8899C18.007 29.9813 18.0375 30.0728 18.068 30.1642C18.0984 30.2556 18.1594 30.347 18.2203 30.4384C18.2813 30.5298 18.3422 30.5907 18.4031 30.6821C18.4641 30.7431 18.5555 30.804 18.6469 30.8649C18.7383 30.9259 18.8297 30.9564 18.9211 31.0173C19.0125 31.0478 19.1039 31.0782 19.2258 31.1087C19.3172 31.1392 19.4391 31.1392 19.5305 31.1392C19.6219 31.1392 19.7438 31.1392 19.8352 31.1087C19.9266 31.0782 20.0484 31.0478 20.1398 31.0173C20.2313 30.9868 20.3227 30.9259 20.4141 30.8649C20.5055 30.804 20.5664 30.7431 20.6578 30.6821C20.7188 30.6212 20.8102 30.5298 20.8406 30.4384C20.9016 30.347 20.932 30.2556 20.993 30.1642C21.0234 30.0728 21.0539 29.9813 21.0844 29.8899C21.1148 29.7985 21.1148 29.6767 21.1148 29.5853V27.7267C21.2977 27.7267 21.4805 27.7267 21.6633 27.6962C21.8461 27.6657 22.0289 27.6353 22.2117 27.6048C22.3945 27.5743 22.5773 27.5134 22.7602 27.4524C22.943 27.3915 23.1258 27.3306 23.2781 27.2696C23.4609 27.2087 23.6133 27.1173 23.7961 27.0259C23.9484 26.9345 24.1313 26.8431 24.2836 26.7517C24.4359 26.6603 24.5883 26.5384 24.7406 26.4165C24.893 26.2946 25.0148 26.1728 25.1672 26.0509C25.2891 25.929 25.4109 25.7767 25.5328 25.6548C25.6547 25.5024 25.7766 25.3501 25.868 25.1978C25.9594 25.0454 26.0813 24.8931 26.1727 24.7407C26.2641 24.5884 26.3555 24.4056 26.4164 24.2532C26.4773 24.0704 26.5688 23.9181 26.5992 23.7353C26.6297 23.5524 26.6906 23.3696 26.7516 23.1868C26.782 23.004 26.8125 22.8212 26.843 22.6384C26.8734 22.4556 26.8734 22.2728 26.8734 22.0899C26.8734 19.3173 25.2586 17.7329 21.4195 16.9103L19.1953 16.4228C16.9711 15.8743 15.9352 15.1431 15.9352 13.9243C15.9352 12.7056 17.2758 11.3345 19.4695 11.3345C19.6523 11.304 19.8047 11.304 19.9875 11.304C20.1703 11.304 20.3227 11.3345 20.5055 11.3649C20.6883 11.3954 20.8406 11.4259 21.0234 11.4868C21.1758 11.5478 21.3586 11.6087 21.5109 11.7001C21.6633 11.7915 21.8156 11.8524 21.968 11.9743C22.1203 12.0657 22.2422 12.1876 22.3641 12.3095C22.4859 12.4313 22.6078 12.5532 22.7297 12.6751C22.8516 12.797 22.943 12.9493 23.0344 13.1017C23.0953 13.254 23.1867 13.3759 23.3086 13.4978C23.4305 13.6196 23.5523 13.7415 23.6742 13.8024C23.8266 13.8938 23.9789 13.9548 24.1313 14.0157C24.2836 14.0767 24.4664 14.0767 24.6188 14.0767H25.6547C25.7156 14.0767 25.7766 14.0462 25.8375 14.0157C25.8984 13.9853 25.9289 13.9548 25.9898 13.9243C26.0508 13.8938 26.0813 13.8634 26.1117 13.8024C26.1422 13.772 26.2031 13.711 26.2336 13.6501C26.2641 13.5892 26.2945 13.5587 26.325 13.4978C26.3555 13.4368 26.3555 13.3759 26.3859 13.3149C26.3859 13.254 26.3859 13.1931 26.3859 13.1321C26.3859 13.0712 26.3859 13.0103 26.3555 12.9493C26.325 12.797 26.2641 12.6446 26.2336 12.5228C26.1727 12.3704 26.1422 12.2485 26.0813 12.0962C26.0203 11.9438 25.9594 11.822 25.8984 11.7001C25.8375 11.5782 25.7461 11.4259 25.6852 11.304C25.6242 11.1821 25.5328 11.0603 25.4414 10.9384C25.35 10.8165 25.2586 10.6946 25.1672 10.5728C25.0758 10.4509 24.9539 10.3595 24.8625 10.2376C24.7406 10.1462 24.6492 10.0243 24.5273 9.93291C24.4055 9.8415 24.2836 9.7501 24.1617 9.65869C24.0398 9.56729 23.918 9.47588 23.7656 9.41494C23.6438 9.32354 23.4914 9.2626 23.3695 9.20166C23.2477 9.14072 23.0953 9.07978 22.943 9.01885C22.7906 8.95791 22.6688 8.89697 22.5164 8.8665C22.3641 8.80557 22.2117 8.7751 22.0594 8.74463C21.907 8.71416 21.7547 8.68369 21.6023 8.65322C21.45 8.62275 21.2977 8.62275 21.1453 8.59229V7.09932C21.1453 7.00791 21.1453 6.88603 21.1148 6.79463C21.0844 6.70322 21.0539 6.61182 21.0234 6.52041C20.993 6.429 20.932 6.3376 20.8711 6.24619C20.8102 6.15478 20.7492 6.09385 20.6883 6.00244C20.6273 5.9415 20.5359 5.88057 20.4445 5.81963C20.3531 5.75869 20.2617 5.72822 20.1703 5.66729C20.0789 5.63682 19.9875 5.60635 19.8656 5.57588C19.7742 5.54541 19.6523 5.54541 19.5609 5.54541C19.4695 5.54541 19.3477 5.54541 19.2563 5.57588C19.1648 5.60635 19.043 5.63682 18.9516 5.66729C18.8602 5.69775 18.7688 5.75869 18.6773 5.81963C18.5859 5.88057 18.525 5.9415 18.4336 6.00244C18.3727 6.06338 18.2813 6.15478 18.2508 6.24619C18.1898 6.3376 18.1594 6.429 18.0984 6.52041C18.068 6.61182 18.0375 6.70322 18.007 6.79463C17.9766 6.88603 17.9766 7.00791 17.9766 7.09932L17.9461 8.74463Z" fill="#2775C9"/>
</svg>
