<svg width="38" height="36" viewBox="0 0 38 36" fill="none" xmlns="http://www.w3.org/2000/svg">
<path fill-rule="evenodd" clip-rule="evenodd" d="M22.8659 18.8156C22.6499 18.8318 21.5344 18.8983 19.0459 18.8983C17.0666 18.8983 15.6613 18.839 15.1683 18.8156C7.51939 18.4791 1.81012 17.1476 1.81012 15.5534C1.81012 13.9592 7.51939 12.6295 15.1683 12.2876V17.4895C15.6685 17.5255 17.1008 17.61 19.0801 17.61C21.4552 17.61 22.6445 17.5111 22.8587 17.4913V12.2912C30.4914 12.6313 36.1881 13.9628 36.1881 15.5534C36.1881 17.144 30.4932 18.4755 22.8587 18.8138L22.8659 18.8156ZM22.8659 11.7532V7.09835H33.5179V0H4.51631V7.09835H15.1665V11.7514C6.50997 12.1491 0 13.8638 0 15.9187C0 17.9735 6.50997 19.6864 15.1665 20.0859V35.0023H22.8641V20.0805C31.5008 19.6828 38 17.9699 38 15.9169C38 13.8638 31.5062 12.1509 22.8641 11.7514L22.8659 11.7532Z" fill="#50AF95"/>
</svg>
