<svg width="35" height="31" viewBox="0 0 35 31" fill="none" xmlns="http://www.w3.org/2000/svg">
<path d="M23.703 7.74888C24.3178 8.66832 24.3569 9.85717 23.8039 10.8151L13.1755 29.2239C12.6225 30.1817 11.5734 30.7424 10.4697 30.6695L2.71666 30.159C0.569889 30.0176 -0.683144 27.6723 0.392566 25.8092L14.4552 1.45204C15.5309 -0.411142 18.1884 -0.498571 19.3842 1.28988L23.703 7.74888Z" fill="#D34F49"/>
<path d="M34.803 27.4831C35.362 28.451 34.6633 29.6611 33.5455 29.6611H21.4737C20.3559 29.6611 19.6574 28.451 20.2162 27.4831L26.2521 17.0285C26.811 16.0605 28.2082 16.0605 28.7672 17.0285L34.803 27.4831Z" fill="#D34F49"/>
</svg>
