<svg width="38" height="38" viewBox="0 0 38 38" fill="none" xmlns="http://www.w3.org/2000/svg">
<path d="M30.9848 7.97503L29.9414 9.01841C32.4311 11.7411 33.8117 15.2968 33.8117 18.9862C33.8117 22.6755 32.4311 26.2313 29.9414 28.954L30.9848 29.9974C33.7536 26.9941 35.2908 23.0588 35.2908 18.974C35.2908 14.8892 33.7536 10.954 30.9848 7.95068V7.97503Z" fill="#767181"/>
<path d="M9.04331 8.06544C11.766 5.57576 15.3217 4.1951 19.0111 4.1951C22.7004 4.1951 26.2562 5.57576 28.9789 8.06544L30.0223 7.02206C27.019 4.25327 23.0837 2.71606 18.9989 2.71606C14.9141 2.71606 10.9789 4.25327 7.97559 7.02206L9.04331 8.06544Z" fill="#767181"/>
<path d="M8.06617 28.9641C5.57944 26.2421 4.2006 22.6885 4.2006 19.0016C4.2006 15.3146 5.57944 11.761 8.06617 9.03899L7.02279 7.99561C4.254 10.9989 2.7168 14.9341 2.7168 19.0189C2.7168 23.1038 4.254 27.039 7.02279 30.0423L8.06617 28.9641Z" fill="#767181"/>
<path d="M28.9643 29.9277C26.2417 32.4174 22.6859 33.7981 18.9965 33.7981C15.3072 33.7981 11.7514 32.4174 9.02873 29.9277L7.98535 30.9711C10.9886 33.7399 14.9239 35.2771 19.0087 35.2771C23.0935 35.2771 27.0288 33.7399 30.032 30.9711L28.9643 29.9277Z" fill="#767181"/>
<path d="M25.587 15.5188C25.3783 13.3416 23.5002 12.6112 21.1248 12.3886V9.39062H19.2884V12.333C18.805 12.333 18.3111 12.333 17.8208 12.333V9.39062H15.9983V12.4095H12.2734V14.3745C12.2734 14.3745 13.6298 14.3502 13.609 14.3745C13.8535 14.3476 14.099 14.4167 14.2936 14.5672C14.4883 14.7177 14.6169 14.9379 14.6523 15.1814V23.445C14.6471 23.5309 14.6247 23.6148 14.5865 23.6919C14.5483 23.7689 14.495 23.8375 14.4298 23.8936C14.3658 23.9508 14.2909 23.9945 14.2096 24.022C14.1283 24.0495 14.0423 24.0602 13.9568 24.0536C13.9811 24.0745 12.6212 24.0536 12.6212 24.0536L12.2734 26.2482H15.9635V29.3158H17.7999V26.2934H19.2676V29.3018H21.1074V26.2691C24.2097 26.0813 26.373 25.3161 26.6443 22.412C26.8634 20.0749 25.7644 19.0315 24.008 18.6106C25.0757 18.0855 25.7365 17.1117 25.587 15.5188ZM23.0133 22.0503C23.0133 24.3319 19.1041 24.071 17.859 24.071V20.0227C19.1041 20.0262 23.0133 19.6679 23.0133 22.0503ZM22.1612 16.3465C22.1612 18.4333 18.8989 18.1794 17.8625 18.1794V14.4997C18.8989 14.4997 22.1612 14.1728 22.1612 16.3465Z" fill="#F09242"/>
<path d="M18.9965 38C15.239 37.9993 11.566 36.8845 8.442 34.7965C5.318 32.7085 2.88327 29.741 1.44563 26.2694C0.00799802 22.7977 -0.367972 18.9778 0.365258 15.2924C1.09849 11.6071 2.90799 8.22197 5.56498 5.56498C8.22197 2.90799 11.6071 1.09849 15.2924 0.365258C18.9778 -0.367972 22.7977 0.00799802 26.2694 1.44563C29.741 2.88327 32.7085 5.318 34.7965 8.442C36.8845 11.566 37.9993 15.239 38 18.9965C38.0005 21.4922 37.5092 23.9636 36.5544 26.2694C35.5995 28.5752 34.1998 30.6703 32.435 32.435C30.6703 34.1998 28.5752 35.5995 26.2694 36.5544C23.9636 37.5092 21.4922 38.0005 18.9965 38V38ZM18.9965 1.48161C15.5347 1.48436 12.1513 2.51335 9.27414 4.43851C6.39695 6.36368 4.15508 9.09859 2.83187 12.2976C1.50866 15.4966 1.16352 19.0161 1.84008 22.4112C2.51663 25.8063 4.18451 28.9246 6.6329 31.372C9.08129 33.8194 12.2003 35.4861 15.5957 36.1613C18.991 36.8365 22.5104 36.49 25.7088 35.1655C28.9073 33.841 31.6413 31.598 33.5654 28.7201C35.4894 25.8421 36.517 22.4584 36.5184 18.9965C36.5193 16.6956 36.0667 14.417 35.1863 12.2912C34.306 10.1653 33.0153 8.23379 31.388 6.60711C29.7606 4.98043 27.8286 3.69047 25.7024 2.81099C23.5762 1.93152 21.2975 1.47978 18.9965 1.48161V1.48161Z" fill="#413B50"/>
</svg>
